<svg xmlns="http://www.w3.org/2000/svg" xmlns:xlink="http://www.w3.org/1999/xlink" viewBox="0 0 255.76 97.87"><defs><style>.a{fill:#fff;}.b{fill:none;}.c{clip-path:url(#a);}.d{fill:#ff75f5;}.e{fill:#ff85f6;}.f{isolation:isolate;}.g{clip-path:url(#b);}.h{clip-path:url(#c);}</style><clipPath id="a" transform="translate(3.12 1.7)"><circle cx="39.77" cy="39.77" r="39.77"/></clipPath><clipPath id="b" transform="translate(3.12 1.7)"><path class="a" d="M33.61,73.81v.48a2.08,2.08,0,0,1-2.11,1.92,1.84,1.84,0,0,1-1.92-1.79V74a1.84,1.84,0,0,0,1.92,1.8,2.09,2.09,0,0,0,2.11-1.93Z"/></clipPath><clipPath id="c" transform="translate(3.12 1.7)"><path class="b" d="M35,74.32v-.4a1.19,1.19,0,0,0,1.22,1.16,1.25,1.25,0,0,0,1.27-1.19v.4a1.25,1.25,0,0,1-1.27,1.19A1.19,1.19,0,0,1,35,74.32Z"/></clipPath></defs><title>horizontal_purple_logo_small</title><circle cx="42.89" cy="41.46" r="39.77"/><g class="c"><ellipse class="d" cx="74.07" cy="23.86" rx="0.32" ry="0.4"/><path class="e" d="M71.47,22.13a.41.41,0,0,0-.07-.46.51.51,0,0,0-.5-.18.58.58,0,0,0-.44.35.66.66,0,0,0,0,.46.47.47,0,0,0,.55.33.68.68,0,0,0,.37-.44s-.09,0-.12,0a.74.74,0,0,1-.26.08s0,0,0,0-.1.13-.16,0a.27.27,0,0,1,.1-.38c.13,0,.26,0,.34.24C71.26,22.17,71.44,22.19,71.47,22.13Z" transform="translate(3.12 1.7)"/><ellipse class="d" cx="80.03" cy="41.64" rx="0.43" ry="0.54"/><path class="e" d="M77.53,39.9c.17-.32-.18-.86-.7-.77a.74.74,0,0,0-.53,1,.58.58,0,0,0,.66.44.78.78,0,0,0,.47-.57s-.09,0-.12,0c-.26.17-.36.18-.38.22s-.2.09-.28-.08a.43.43,0,0,1,.18-.56c.18-.08.4.1.47.36C77.32,39.94,77.5,40,77.53,39.9Z" transform="translate(3.12 1.7)"/><ellipse class="d" cx="81.35" cy="43.76" rx="0.43" ry="0.54"/><path class="e" d="M78.85,42c.17-.32-.18-.86-.7-.77a.74.74,0,0,0-.53,1,.58.58,0,0,0,.66.44.8.8,0,0,0,.47-.57s-.09,0-.12,0c-.26.18-.36.19-.39.23s-.2.09-.27-.08a.43.43,0,0,1,.17-.56c.18-.08.41.1.48.36C78.64,42.06,78.82,42.09,78.85,42Z" transform="translate(3.12 1.7)"/><ellipse class="d" cx="80.6" cy="63.04" rx="0.43" ry="0.54"/><path class="e" d="M78.1,61.3a.6.6,0,0,0-.69-.77.74.74,0,0,0-.54,1,.59.59,0,0,0,.67.44.77.77,0,0,0,.46-.57s-.09,0-.12,0c-.26.17-.36.18-.38.22s-.2.09-.28-.08a.43.43,0,0,1,.18-.56c.18-.08.4.1.47.36C77.89,61.34,78.07,61.37,78.1,61.3Z" transform="translate(3.12 1.7)"/><ellipse class="d" cx="63.92" cy="52.24" rx="0.43" ry="0.54"/><path class="e" d="M61.42,50.5a.6.6,0,0,0-.69-.77.75.75,0,0,0-.54,1,.6.6,0,0,0,.67.44.82.82,0,0,0,.47-.57s-.09,0-.12,0c-.27.17-.37.18-.39.22s-.2.09-.27-.08a.43.43,0,0,1,.17-.56c.18-.08.41.1.48.36C61.21,50.54,61.39,50.57,61.42,50.5Z" transform="translate(3.12 1.7)"/><ellipse class="d" cx="75.89" cy="42.05" rx="0.43" ry="0.54"/><path class="e" d="M73.39,40.31c.17-.32-.18-.86-.7-.77a.74.74,0,0,0-.53,1,.58.58,0,0,0,.66.44.8.8,0,0,0,.47-.57s-.09,0-.12,0c-.26.17-.36.18-.39.22s-.19.09-.27-.08a.43.43,0,0,1,.18-.56c.18-.08.4.1.47.36C73.18,40.35,73.36,40.38,73.39,40.31Z" transform="translate(3.12 1.7)"/><ellipse class="d" cx="71.65" cy="11.13" rx="0.33" ry="0.42"/><path class="e" d="M69.05,9.4A.42.42,0,0,0,69,8.94a.53.53,0,0,0-.52-.2A.6.6,0,0,0,68,9.1a.73.73,0,0,0,0,.46c.08.24.36.43.56.35A.69.69,0,0,0,69,9.46s-.08,0-.11,0a.79.79,0,0,1-.31.1s-.1.13-.17,0a.3.3,0,0,1,.11-.4c.13-.05.28,0,.36.25C68.84,9.43,69,9.46,69.05,9.4Z" transform="translate(3.12 1.7)"/><ellipse class="d" cx="71.04" cy="16.94" rx="0.37" ry="0.47"/><path class="e" d="M68.49,15.21c.17-.29-.15-.79-.63-.71a.68.68,0,0,0-.49.89.53.53,0,0,0,.61.38c.23-.08.32-.27.41-.5,0,0-.09,0-.12,0-.26.15-.35.13-.34.16s-.14.1-.21,0a.36.36,0,0,1,.14-.47c.14-.06.33.08.4.3C68.28,15.25,68.46,15.27,68.49,15.21Z" transform="translate(3.12 1.7)"/><ellipse class="d" cx="75.07" cy="37.19" rx="0.43" ry="0.54"/><path class="e" d="M72.58,35.45a.61.61,0,0,0-.7-.77.74.74,0,0,0-.53,1,.58.58,0,0,0,.66.44.78.78,0,0,0,.47-.57s-.09,0-.12,0c-.26.17-.37.18-.39.22s-.2.09-.27-.08a.43.43,0,0,1,.17-.56c.18-.08.41.1.48.36C72.36,35.49,72.55,35.52,72.58,35.45Z" transform="translate(3.12 1.7)"/><ellipse class="d" cx="77.13" cy="68.47" rx="0.43" ry="0.54"/><path class="e" d="M74.63,66.73c.17-.32-.18-.86-.7-.77a.74.74,0,0,0-.53,1,.58.58,0,0,0,.66.44.8.8,0,0,0,.47-.57s-.09,0-.12,0c-.26.17-.36.18-.39.22s-.2.09-.27-.08a.43.43,0,0,1,.18-.56c.18-.08.4.1.47.36C74.42,66.77,74.6,66.8,74.63,66.73Z" transform="translate(3.12 1.7)"/><ellipse class="d" cx="62.32" cy="61.19" rx="0.34" ry="0.42"/><path class="e" d="M59.73,59.46a.45.45,0,0,0-.06-.47.57.57,0,0,0-.53-.2.63.63,0,0,0-.44.36.7.7,0,0,0,0,.47.5.5,0,0,0,.57.35.68.68,0,0,0,.38-.46s-.09,0-.12,0c-.27.14-.33.09-.3.11s-.11.12-.18,0a.32.32,0,0,1,.11-.41c.14-.05.29,0,.36.26C59.52,59.49,59.7,59.52,59.73,59.46Z" transform="translate(3.12 1.7)"/><ellipse class="d" cx="57.3" cy="64.7" rx="0.43" ry="0.54"/><path class="e" d="M54.8,63c.17-.32-.18-.86-.69-.78a.75.75,0,0,0-.54,1,.57.57,0,0,0,.67.43A.75.75,0,0,0,54.7,63s-.09,0-.12,0c-.26.17-.36.19-.38.23s-.2.09-.28-.08a.42.42,0,0,1,.18-.56c.18-.09.4.1.47.36C54.59,63,54.77,63,54.8,63Z" transform="translate(3.12 1.7)"/><ellipse class="d" cx="9.96" cy="32.85" rx="0.15" ry="0.19"/><path class="e" d="M7.18,31.14c.17-.16,0-.51-.38-.45a.4.4,0,0,0-.29.55.29.29,0,0,0,.36.16c.11-.06.13-.13.22-.23s-.09,0-.12,0-.23,0-.17,0a.09.09,0,0,1,0,0s0,0,0,0,0,0,0,0,0-.09,0-.09,0,0,.12.06A.42.42,0,0,0,7.18,31.14Z" transform="translate(3.12 1.7)"/><ellipse class="d" cx="3.11" cy="33.08" rx="0.3" ry="0.38"/><path class="e" d="M.48,31.35a.47.47,0,0,0-.54-.62.59.59,0,0,0-.43.79.42.42,0,0,0,.52.29.67.67,0,0,0,.35-.4s-.09,0-.12,0c-.27.1-.29-.05-.27,0s-.1.14-.14.07a.21.21,0,0,1,.09-.3c.12,0,.24,0,.31.2S.45,31.41.48,31.35Z" transform="translate(3.12 1.7)"/><ellipse class="d" cx="4.67" cy="28.3" rx="0.2" ry="0.25"/><path class="e" d="M1.94,26.58c.16-.22-.07-.51-.32-.5a.41.41,0,0,0-.36.15.52.52,0,0,0-.08.54.31.31,0,0,0,.42.14.72.72,0,0,0,.25-.29s-.09,0-.12,0c-.27.07-.3,0-.28,0s0,.1-.05.05a.16.16,0,0,1,.08-.2c.08,0,.17,0,.24.13S1.91,26.62,1.94,26.58Z" transform="translate(3.12 1.7)"/><path class="d" d="M17.61,16a.45.45,0,1,1-.44-.54A.5.5,0,0,1,17.61,16Z" transform="translate(3.12 1.7)"/><path class="e" d="M17.79,15.91a.61.61,0,0,0-.69-.78.75.75,0,0,0-.54,1,.6.6,0,0,0,.67.44A.82.82,0,0,0,17.7,16s-.09,0-.12,0c-.27.18-.37.19-.39.23s-.2.09-.27-.08a.43.43,0,0,1,.17-.56c.18-.08.4.1.48.36C17.58,16,17.76,16,17.79,15.91Z" transform="translate(3.12 1.7)"/><ellipse class="d" cx="38.03" cy="9.75" rx="0.28" ry="0.34"/><path class="e" d="M35.37,8a.44.44,0,0,0-.49-.59.57.57,0,0,0-.43.76.41.41,0,0,0,.5.27.65.65,0,0,0,.32-.38s-.08,0-.11,0c-.28.1-.3-.05-.28,0s-.08.13-.12,0a.19.19,0,0,1,.09-.26c.11-.05.22,0,.3.17S35.34,8.08,35.37,8Z" transform="translate(3.12 1.7)"/><ellipse class="d" cx="32.84" cy="7.24" rx="0.16" ry="0.2"/><path class="e" d="M30.07,5.53c.17-.17-.05-.53-.4-.47a.41.41,0,0,0-.3.57.31.31,0,0,0,.38.18c.11-.06.14-.14.22-.25s-.09,0-.11,0a.57.57,0,0,1-.19,0s0,0,0,.06.06-.06,0,0,0-.11,0-.11.06,0,.14.06S30,5.56,30.07,5.53Z" transform="translate(3.12 1.7)"/><ellipse class="d" cx="24.08" cy="6.83" rx="0.37" ry="0.46"/><path class="e" d="M21.51,5.1c.17-.29-.15-.78-.61-.7a.66.66,0,0,0-.48.87.5.5,0,0,0,.59.37.73.73,0,0,0,.41-.48s-.09,0-.12,0c-.27.15-.35.12-.34.15s-.12.11-.19,0a.34.34,0,0,1,.13-.45c.13-.07.31.07.39.29C21.3,5.13,21.48,5.16,21.51,5.1Z" transform="translate(3.12 1.7)"/><ellipse class="d" cx="14.36" cy="19.79" rx="0.22" ry="0.28"/><path class="e" d="M11.65,18.06c.16-.24-.1-.55-.37-.53a.5.5,0,0,0-.43.71.33.33,0,0,0,.44.18c.13-.06.18-.17.27-.31s-.09,0-.12,0c-.27.07-.3,0-.28,0s0,.1-.06,0a.17.17,0,0,1,.07-.22c.09,0,.19,0,.26.14S11.62,18.11,11.65,18.06Z" transform="translate(3.12 1.7)"/><ellipse class="d" cx="5.69" cy="39.02" rx="0.3" ry="0.37"/><path class="e" d="M3.06,37.28a.46.46,0,0,0-.53-.61.59.59,0,0,0-.43.79.44.44,0,0,0,.52.29A.67.67,0,0,0,3,37.34s-.09,0-.12,0c-.27.1-.29,0-.27,0s-.09.14-.14.06a.2.2,0,0,1,.09-.28c.12,0,.24,0,.31.18S3,37.35,3.06,37.28Z" transform="translate(3.12 1.7)"/><ellipse class="d" cx="11.76" cy="54.53" rx="0.26" ry="0.32" transform="translate(-1.73 2.97) rotate(-5.15)"/><path class="e" d="M12.2,54.46c.15-.23-.15-.63-.55-.52a.53.53,0,0,0-.32.74.41.41,0,0,0,.5.23.66.66,0,0,0,.28-.39s-.09,0-.12,0a.58.58,0,0,1-.25.07c-.06,0,0,0,0,0s0,0,0,0a.07.07,0,0,1-.1,0,.21.21,0,0,1,0-.28c.06,0,.18,0,.27.15S12.18,54.52,12.2,54.46Z" transform="translate(3.12 1.7)"/><ellipse class="d" cx="14.58" cy="55.8" rx="0.35" ry="0.44" transform="translate(-6.29 5.05) rotate(-9.94)"/><path class="e" d="M15.11,55.67a.45.45,0,0,0-.15-.45.57.57,0,0,0-.56-.11.65.65,0,0,0-.32.92.52.52,0,0,0,.59.27.68.68,0,0,0,.35-.55s-.09,0-.12,0c-.29.21-.32.13-.29.19s-.11.09-.18,0a.31.31,0,0,1,0-.43c.12-.09.3,0,.41.2C14.9,55.74,15.09,55.74,15.11,55.67Z" transform="translate(3.12 1.7)"/><ellipse class="d" cx="13.76" cy="48.98" rx="0.24" ry="0.29"/><path class="e" d="M11.07,47.25c.16-.25-.12-.58-.4-.54a.48.48,0,0,0-.39.22.53.53,0,0,0,0,.49.36.36,0,0,0,.46.21A.66.66,0,0,0,11,47.3s-.09,0-.12,0c-.27.08-.29,0-.27,0s-.05.11-.08.05a.17.17,0,0,1,.07-.23c.1,0,.2,0,.27.15S11,47.3,11.07,47.25Z" transform="translate(3.12 1.7)"/><ellipse class="d" cx="33.6" cy="6.86" rx="0.16" ry="0.2"/><path class="e" d="M30.83,5.14c.17-.17,0-.53-.39-.46a.42.42,0,0,0-.31.57.31.31,0,0,0,.38.17c.12-.06.14-.13.23-.24s-.09,0-.12,0-.25,0-.19,0,.05,0,.05.05.07-.06,0,0,0-.11,0-.11.06,0,.13.07S30.8,5.18,30.83,5.14Z" transform="translate(3.12 1.7)"/><path class="d" d="M60.35,20a.4.4,0,0,1-.33.42.35.35,0,0,1-.33-.38.4.4,0,0,1,.33-.42A.35.35,0,0,1,60.35,20Z" transform="translate(3.12 1.7)"/><path class="e" d="M60.54,19.93a.41.41,0,0,0-.09-.47.53.53,0,0,0-.52-.14.63.63,0,0,0-.42.82.47.47,0,0,0,.52.32.71.71,0,0,0,.41-.47s-.09,0-.12,0c-.33.15-.32.05-.31.12s-.11.09-.15,0a.29.29,0,0,1,.1-.38c.13-.06.28,0,.35.21C60.33,20,60.51,20,60.54,19.93Z" transform="translate(3.12 1.7)"/><path class="d" d="M60.89,18.49c-.11.2-.21.41-.42.3a.37.37,0,0,1,.16-.61C60.78,18.17,60.89,18.31,60.89,18.49Z" transform="translate(3.12 1.7)"/><path class="e" d="M61.08,18.47c.17-.21-.07-.63-.46-.58h-.11a.61.61,0,0,0-.34.68.47.47,0,0,0,.22.27l0,0a.32.32,0,0,0,.34-.12.73.73,0,0,1,.21-.22s-.07-.06-.11-.06a.56.56,0,0,0-.35,0s.08.11.07.12,0-.11,0,0l.06,0a.13.13,0,0,1-.11-.05c-.07-.1,0-.25.15-.3h0c.06,0,.16.05.22.18S61.05,18.51,61.08,18.47Z" transform="translate(3.12 1.7)"/><ellipse class="d" cx="68.32" cy="18.82" rx="0.25" ry="0.31"/><path class="e" d="M65.63,17.09c.16-.27-.14-.6-.42-.56a.54.54,0,0,0-.44.73.37.37,0,0,0,.47.23.7.7,0,0,0,.3-.35s-.09,0-.12,0c-.28.08-.3,0-.28,0s0,.12-.09.05a.19.19,0,0,1,.08-.24c.1,0,.21,0,.28.16S65.6,17.15,65.63,17.09Z" transform="translate(3.12 1.7)"/><ellipse class="d" cx="66.79" cy="26.75" rx="0.27" ry="0.34"/><path class="e" d="M64.14,25c.16-.3-.18-.65-.48-.59a.56.56,0,0,0-.43.76.39.39,0,0,0,.49.26.69.69,0,0,0,.32-.37s-.09,0-.12,0c-.27.09-.29,0-.27,0s-.08.13-.12.06a.19.19,0,0,1,.09-.26c.1-.05.22,0,.29.17S64.11,25.08,64.14,25Z" transform="translate(3.12 1.7)"/><ellipse class="d" cx="68.69" cy="16.12" rx="0.34" ry="0.42"/><path class="e" d="M66.09,14.38a.42.42,0,0,0-.06-.46.53.53,0,0,0-.52-.2.59.59,0,0,0-.44.36.64.64,0,0,0,0,.47.49.49,0,0,0,.56.35.75.75,0,0,0,.39-.46s-.09,0-.12,0a.73.73,0,0,1-.31.1s-.1.13-.17,0a.3.3,0,0,1,.11-.4c.13-.05.28,0,.36.26C65.88,14.42,66.06,14.44,66.09,14.38Z" transform="translate(3.12 1.7)"/><ellipse class="d" cx="65.95" cy="66.41" rx="0.43" ry="0.53"/><path class="e" d="M63.44,64.68a.59.59,0,0,0-.68-.77.74.74,0,0,0-.54,1,.58.58,0,0,0,.66.44.81.81,0,0,0,.47-.56s-.09,0-.12,0c-.27.17-.37.18-.39.22s-.19.09-.26-.07a.43.43,0,0,1,.17-.56c.17-.08.39.1.47.36C63.23,64.72,63.41,64.75,63.44,64.68Z" transform="translate(3.12 1.7)"/><ellipse class="d" cx="65.14" cy="79.65" rx="0.43" ry="0.54"/><path class="e" d="M62.64,77.91a.6.6,0,0,0-.69-.77.75.75,0,0,0-.54,1,.59.59,0,0,0,.67.44.8.8,0,0,0,.47-.57s-.09,0-.12,0c-.27.17-.37.18-.39.22s-.2.09-.27-.08a.42.42,0,0,1,.17-.56c.18-.08.4.1.48.36C62.43,78,62.61,78,62.64,77.91Z" transform="translate(3.12 1.7)"/><ellipse class="d" cx="65.71" cy="78.03" rx="0.43" ry="0.54"/><path class="e" d="M63.21,76.29a.6.6,0,0,0-.69-.77.75.75,0,0,0-.54,1,.59.59,0,0,0,.67.44.8.8,0,0,0,.47-.57s-.09,0-.12,0c-.27.17-.37.18-.39.22s-.2.09-.27-.08a.43.43,0,0,1,.17-.56c.18-.08.4.1.48.36C63,76.33,63.18,76.36,63.21,76.29Z" transform="translate(3.12 1.7)"/><ellipse class="d" cx="11.63" cy="53.3" rx="0.22" ry="0.28" transform="translate(2.67 1.79) rotate(-0.48)"/><path class="e" d="M12,53.27c.17-.21-.09-.6-.47-.53a.49.49,0,0,0-.35.66.38.38,0,0,0,.44.24.61.61,0,0,0,.28-.33s-.09,0-.12,0a.38.38,0,0,1-.24,0l.05.06s0,0,0,0-.06,0-.08,0a.16.16,0,0,1,0-.22s.14,0,.22.14S12,53.32,12,53.27Z" transform="translate(3.12 1.7)"/><ellipse class="d" cx="11.47" cy="28.41" rx="0.07" ry="0.09"/><path class="e" d="M8.61,26.7c.17-.12,0-.42-.3-.36a.3.3,0,0,0-.22.43.21.21,0,0,0,.28.1c.07-.06.06-.08.15-.15H8.33s0,0,0,0,0,0,0,0,0,0,0,0,0,0,0,0S8.58,26.73,8.61,26.7Z" transform="translate(3.12 1.7)"/><path class="d" d="M24.83,21.28a.47.47,0,0,1-.45.52.58.58,0,0,1-.47-.6.44.44,0,0,1,.45-.5A.56.56,0,0,1,24.83,21.28Z" transform="translate(3.12 1.7)"/><path class="e" d="M25,21.23a.65.65,0,0,0-.67-.82.66.66,0,0,0-.58.38.77.77,0,0,0,0,.59.7.7,0,0,0,.68.48.68.68,0,0,0,.51-.55s-.09,0-.12,0a2,2,0,0,1-.38.21c0,.06-.26,0-.33-.13a.38.38,0,0,1,.19-.55c.2-.05.43.15.51.42C24.81,21.28,25,21.31,25,21.23Z" transform="translate(3.12 1.7)"/><ellipse class="d" cx="31.07" cy="16.26" rx="0.38" ry="0.48"/><path class="e" d="M28.52,14.53c.17-.3-.15-.8-.64-.72a.69.69,0,0,0-.49.9.55.55,0,0,0,.61.39.76.76,0,0,0,.43-.51s-.09,0-.12,0c-.27.15-.36.14-.35.17s-.15.1-.22,0a.37.37,0,0,1,.14-.48c.15-.07.34.08.42.31C28.31,14.56,28.49,14.59,28.52,14.53Z" transform="translate(3.12 1.7)"/><ellipse class="d" cx="41.61" cy="9.6" rx="0.4" ry="0.49"/><path class="e" d="M39.07,7.86c.17-.3-.16-.81-.65-.73a.71.71,0,0,0-.51.92.55.55,0,0,0,.63.4A.75.75,0,0,0,39,7.93s-.09,0-.12,0c-.27.16-.36.16-.36.19s-.16.1-.23,0a.39.39,0,0,1,.15-.51c.15-.07.35.09.43.32C38.86,7.9,39,7.93,39.07,7.86Z" transform="translate(3.12 1.7)"/><ellipse class="d" cx="44.44" cy="6.89" rx="0.43" ry="0.54"/><path class="e" d="M41.94,5.15a.6.6,0,0,0-.69-.77.75.75,0,0,0-.54,1,.58.58,0,0,0,.67.44.79.79,0,0,0,.47-.56s-.09,0-.12,0c-.27.17-.37.19-.39.23s-.2.08-.28-.08a.44.44,0,0,1,.18-.57c.18-.08.4.1.48.36C41.73,5.2,41.91,5.23,41.94,5.15Z" transform="translate(3.12 1.7)"/><ellipse class="d" cx="59.48" cy="8" rx="0.43" ry="0.54"/><path class="e" d="M57,6.26a.6.6,0,0,0-.69-.77.74.74,0,0,0-.54,1,.59.59,0,0,0,.67.44.8.8,0,0,0,.47-.57s-.09,0-.12,0c-.27.17-.37.18-.39.22s-.2.09-.28-.08a.43.43,0,0,1,.18-.56c.18-.08.4.1.48.36C56.77,6.3,57,6.33,57,6.26Z" transform="translate(3.12 1.7)"/><path class="d" d="M59.74,22.28a.31.31,0,0,1-.28.35.34.34,0,0,1,0-.67A.31.31,0,0,1,59.74,22.28Z" transform="translate(3.12 1.7)"/><path class="e" d="M59.93,22.25c.16-.27-.18-.67-.56-.57a.55.55,0,0,0-.39.75.43.43,0,0,0,.52.26.69.69,0,0,0,.34-.39s-.09,0-.12,0c-.27.13-.33,0-.27.08s0,0,0,0a.09.09,0,0,1-.11,0,.21.21,0,0,1,.08-.3c.09,0,.22,0,.31.18S59.9,22.3,59.93,22.25Z" transform="translate(3.12 1.7)"/><ellipse class="d" cx="58.19" cy="41.88" rx="0.43" ry="0.54"/><path class="e" d="M55.69,40.14a.6.6,0,0,0-.69-.77.74.74,0,0,0-.54,1,.58.58,0,0,0,.67.44.75.75,0,0,0,.46-.56s-.08,0-.11,0c-.27.17-.37.19-.39.23s-.2.08-.28-.08a.44.44,0,0,1,.18-.57c.18-.08.4.1.48.36C55.48,40.19,55.66,40.22,55.69,40.14Z" transform="translate(3.12 1.7)"/><ellipse class="d" cx="58.36" cy="50.38" rx="0.43" ry="0.54"/><path class="e" d="M55.86,48.64a.61.61,0,0,0-.69-.78.75.75,0,0,0-.54,1,.58.58,0,0,0,.67.43.79.79,0,0,0,.47-.56s-.09,0-.12,0c-.27.17-.37.19-.39.23s-.2.09-.27-.08a.41.41,0,0,1,.17-.56c.18-.09.4.1.48.36C55.65,48.68,55.83,48.71,55.86,48.64Z" transform="translate(3.12 1.7)"/><ellipse class="d" cx="67.26" cy="63.14" rx="0.21" ry="0.26"/><path class="e" d="M64.54,61.42c.16-.23-.09-.53-.34-.52a.49.49,0,0,0-.37.17.53.53,0,0,0-.07.53.32.32,0,0,0,.43.16.69.69,0,0,0,.25-.3s-.09,0-.12,0c-.27.07-.29,0-.27,0s0,.1-.06,0a.16.16,0,0,1,.08-.21c.08,0,.17,0,.24.13S64.51,61.46,64.54,61.42Z" transform="translate(3.12 1.7)"/><ellipse class="d" cx="71.48" cy="52.17" rx="0.43" ry="0.54"/><path class="e" d="M69,50.43a.6.6,0,0,0-.69-.77.75.75,0,0,0-.54,1,.6.6,0,0,0,.67.44.8.8,0,0,0,.47-.57s-.09,0-.12,0c-.27.17-.37.18-.39.22s-.2.09-.27-.08a.43.43,0,0,1,.17-.56c.18-.08.41.1.48.36C68.77,50.47,69,50.5,69,50.43Z" transform="translate(3.12 1.7)"/><ellipse class="d" cx="72.32" cy="49.73" rx="0.43" ry="0.54"/><path class="e" d="M69.82,48a.6.6,0,0,0-.69-.77.74.74,0,0,0-.54,1,.59.59,0,0,0,.67.44.77.77,0,0,0,.46-.57s-.09,0-.12,0c-.26.17-.36.18-.38.22s-.2.09-.28-.08a.43.43,0,0,1,.18-.56c.18-.08.4.1.47.36C69.61,48,69.79,48.06,69.82,48Z" transform="translate(3.12 1.7)"/><ellipse class="d" cx="61.29" cy="55.52" rx="0.43" ry="0.54"/><path class="e" d="M58.79,53.79A.6.6,0,0,0,58.1,53a.75.75,0,0,0-.54,1,.58.58,0,0,0,.67.43.79.79,0,0,0,.47-.56s-.09,0-.12,0c-.27.17-.37.19-.39.23s-.2.08-.28-.08a.44.44,0,0,1,.18-.57c.18-.08.4.1.48.36C58.58,53.83,58.76,53.86,58.79,53.79Z" transform="translate(3.12 1.7)"/><ellipse class="d" cx="5.61" cy="72.55" rx="0.43" ry="0.54"/><path class="e" d="M3.11,70.81a.62.62,0,0,0-.7-.78.75.75,0,0,0-.53,1,.58.58,0,0,0,.66.44A.8.8,0,0,0,3,70.88s-.09,0-.12,0c-.26.18-.37.19-.39.23s-.2.09-.27-.08a.43.43,0,0,1,.17-.56c.18-.09.41.1.48.36C2.89,70.85,3.08,70.88,3.11,70.81Z" transform="translate(3.12 1.7)"/><ellipse class="d" cx="3.44" cy="58.2" rx="0.43" ry="0.54"/><path class="e" d="M.94,56.46a.6.6,0,0,0-.69-.77.74.74,0,0,0-.53,1,.57.57,0,0,0,.66.43.79.79,0,0,0,.47-.56s-.09,0-.12,0c-.27.17-.37.19-.39.23s-.2.09-.27-.08a.43.43,0,0,1,.17-.56c.18-.08.4.1.48.36C.73,56.5.91,56.53.94,56.46Z" transform="translate(3.12 1.7)"/><ellipse class="d" cx="10.17" cy="43.3" rx="0.23" ry="0.29"/><path class="e" d="M7.46,41.57c.16-.25-.11-.56-.38-.53a.48.48,0,0,0-.38.2.52.52,0,0,0,0,.51.33.33,0,0,0,.44.19.63.63,0,0,0,.28-.32s-.09,0-.12,0c-.27.07-.3,0-.28,0s0,.11-.07,0A.16.16,0,0,1,7,41.44c.09,0,.19,0,.26.14S7.43,41.62,7.46,41.57Z" transform="translate(3.12 1.7)"/><ellipse class="d" cx="7.15" cy="30.37" rx="0.14" ry="0.18"/><path class="e" d="M4.37,28.65c.17-.16,0-.5-.38-.44a.39.39,0,0,0-.29.54.29.29,0,0,0,.36.16c.11-.06.13-.12.21-.22s-.09,0-.12,0-.21,0-.16,0a.09.09,0,0,1,0,.05s0,0,0,0l0,0H4s0-.09,0-.09,0,0,.11.05S4.34,28.69,4.37,28.65Z" transform="translate(3.12 1.7)"/><ellipse class="d" cx="8.7" cy="64.41" rx="0.41" ry="0.51"/><path class="e" d="M6.18,62.68a.59.59,0,0,0-.67-.75.72.72,0,0,0-.51.94.56.56,0,0,0,.64.41.76.76,0,0,0,.44-.53s-.09,0-.12,0c-.26.16-.36.16-.37.19s-.17.1-.24-.06a.39.39,0,0,1,.16-.51c.16-.08.37.08.44.33C6,62.72,6.15,62.75,6.18,62.68Z" transform="translate(3.12 1.7)"/><ellipse class="d" cx="10.55" cy="66.14" rx="0.4" ry="0.5"/><path class="e" d="M8,64.4a.57.57,0,0,0-.66-.74.71.71,0,0,0-.51.93.55.55,0,0,0,.63.41.76.76,0,0,0,.45-.53s-.09,0-.12,0c-.27.16-.36.16-.37.19s-.17.1-.24,0a.39.39,0,0,1,.16-.52c.16-.08.36.09.44.33C7.81,64.44,8,64.47,8,64.4Z" transform="translate(3.12 1.7)"/><ellipse class="d" cx="12.33" cy="70.1" rx="0.42" ry="0.53"/><path class="e" d="M9.82,68.36c.17-.32-.17-.85-.69-.77a.75.75,0,0,0-.53,1,.59.59,0,0,0,.66.43.8.8,0,0,0,.46-.56s-.09,0-.12,0c-.26.17-.36.18-.38.22S9,68.72,9,68.56A.42.42,0,0,1,9.13,68c.17-.08.39.09.46.35C9.61,68.4,9.79,68.43,9.82,68.36Z" transform="translate(3.12 1.7)"/><ellipse class="d" cx="11.52" cy="61.89" rx="0.37" ry="0.46"/><path class="e" d="M9,60.15c.17-.28-.15-.78-.62-.7a.67.67,0,0,0-.49.88.53.53,0,0,0,.6.38.7.7,0,0,0,.41-.49s-.09,0-.12,0c-.26.15-.35.13-.33.15s-.14.11-.21,0a.36.36,0,0,1,.14-.46c.14-.06.32.07.4.3C8.75,60.19,8.93,60.22,9,60.15Z" transform="translate(3.12 1.7)"/><ellipse class="d" cx="13.09" cy="55.64" rx="0.25" ry="0.31"/><path class="e" d="M10.4,53.91c.16-.27-.14-.61-.43-.56a.54.54,0,0,0-.43.73.37.37,0,0,0,.47.23.7.7,0,0,0,.3-.35s-.09,0-.12,0c-.27.08-.29,0-.28,0s-.05.12-.09,0a.19.19,0,0,1,.08-.24c.1,0,.21,0,.28.16S10.37,54,10.4,53.91Z" transform="translate(3.12 1.7)"/><ellipse class="d" cx="8.28" cy="53.09" rx="0.3" ry="0.37"/><path class="e" d="M5.64,51.36a.47.47,0,0,0-.53-.62.59.59,0,0,0-.43.79.43.43,0,0,0,.52.29.67.67,0,0,0,.35-.4s-.09,0-.12,0c-.28.1-.3,0-.28,0s-.09.14-.14.07a.21.21,0,0,1,.09-.29c.12,0,.25,0,.32.19S5.61,51.42,5.64,51.36Z" transform="translate(3.12 1.7)"/><ellipse class="d" cx="6.96" cy="53.25" rx="0.33" ry="0.41"/><path class="e" d="M4.36,51.52a.42.42,0,0,0-.06-.46.54.54,0,0,0-.52-.19.61.61,0,0,0-.44.35.66.66,0,0,0,0,.46.47.47,0,0,0,.55.34.65.65,0,0,0,.38-.44s-.09,0-.12,0c-.27.14-.33.06-.3.09s-.1.13-.16,0a.29.29,0,0,1,.1-.39c.13-.05.27,0,.35.24C4.15,51.55,4.33,51.58,4.36,51.52Z" transform="translate(3.12 1.7)"/><ellipse class="d" cx="10.68" cy="58.09" rx="0.34" ry="0.42" transform="translate(-2.22 2.94) rotate(-5.32)"/><path class="e" d="M11.2,58a.45.45,0,0,0-.08-.43.53.53,0,0,0-.51-.19h-.06a.63.63,0,0,0-.41.4.68.68,0,0,0,0,.47.49.49,0,0,0,.55.31c.24-.07.32-.28.39-.5,0,0-.09,0-.12,0a1.67,1.67,0,0,1-.28.13s0,0,0,0-.11.09-.17,0,0-.42.13-.44.24.08.32.24S11.17,58.06,11.2,58Z" transform="translate(3.12 1.7)"/><ellipse class="d" cx="15.47" cy="61.51" rx="0.5" ry="0.4" transform="translate(-36.39 31.58) rotate(-45.97)"/><path class="e" d="M15.92,61.89a.57.57,0,0,0,0-1,.71.71,0,0,0-1,.32.56.56,0,0,0,.17.73.77.77,0,0,0,.69-.08s0-.08-.08-.09c-.3-.07-.36-.14-.39-.12s-.19,0-.13-.2a.38.38,0,0,1,.46-.26c.17.06.21.31.09.54C15.74,61.77,15.85,61.92,15.92,61.89Z" transform="translate(3.12 1.7)"/><ellipse class="d" cx="15.47" cy="40.92" rx="0.05" ry="0.07"/><path class="e" d="M12.6,39.21c.17-.11,0-.4-.28-.34s-.27.31-.21.4a.19.19,0,0,0,.26.08c.06-.06.05-.07.13-.12s-.09,0-.12,0,0,0,0,0,0,0,0,0,0,0,0,0-.07,0,0,0A.94.94,0,0,0,12.6,39.21Z" transform="translate(3.12 1.7)"/><ellipse class="d" cx="12.61" cy="20.86" rx="0.17" ry="0.21"/><path class="e" d="M9.85,19.14c.17-.17-.06-.54-.41-.47a.41.41,0,0,0-.3.57.31.31,0,0,0,.38.19c.12-.06.15-.14.24-.26s-.09,0-.12,0a.4.4,0,0,1-.2,0,.13.13,0,0,1,.05.06s.06-.05,0,0a.09.09,0,0,1,0-.13s.06,0,.14.08S9.82,19.18,9.85,19.14Z" transform="translate(3.12 1.7)"/><ellipse class="d" cx="26.76" cy="15.25" rx="0.26" ry="0.33"/><path class="e" d="M24.09,13.52c.16-.29-.17-.64-.46-.58a.55.55,0,0,0-.43.75.38.38,0,0,0,.48.25.62.62,0,0,0,.31-.36s-.09,0-.12,0c-.27.09-.29,0-.27,0s-.07.13-.11.06a.19.19,0,0,1,.09-.26c.1,0,.21,0,.29.17S24.06,13.58,24.09,13.52Z" transform="translate(3.12 1.7)"/><path class="d" d="M22.08,15.52c.08.26-.33.68-.64.37a.52.52,0,0,1,.25-.86A.44.44,0,0,1,22.08,15.52Z" transform="translate(3.12 1.7)"/><path class="e" d="M22.27,15.48a.49.49,0,0,0-.07-.5.57.57,0,0,0-.59-.22.73.73,0,0,0-.49.91.53.53,0,0,0,.63.38.66.66,0,0,0,.43-.53s-.1,0-.12,0c-.24.15-.33.09-.36.16s0,.05-.08.06a.19.19,0,0,1-.15-.09.37.37,0,0,1,.17-.49c.14-.09.33.07.41.3C22.06,15.52,22.24,15.55,22.27,15.48Z" transform="translate(3.12 1.7)"/><ellipse class="d" cx="38.97" cy="7.48" rx="0.27" ry="0.34"/><path class="e" d="M36.31,5.75a.43.43,0,0,0-.47-.58.55.55,0,0,0-.43.75.39.39,0,0,0,.48.26.66.66,0,0,0,.33-.38s-.09,0-.12,0c-.28.09-.3,0-.28,0s-.07.13-.11.06a.19.19,0,0,1,.08-.26c.11,0,.22,0,.3.17S36.28,5.81,36.31,5.75Z" transform="translate(3.12 1.7)"/><ellipse class="d" cx="70.21" cy="8.14" rx="0.25" ry="0.31"/><path class="e" d="M67.53,6.41c.16-.27-.14-.61-.43-.56a.53.53,0,0,0-.43.73.37.37,0,0,0,.47.23.68.68,0,0,0,.29-.35s-.09,0-.11,0c-.28.08-.3,0-.28,0s-.06.12-.09,0A.17.17,0,0,1,67,6.26c.1,0,.21,0,.28.16S67.5,6.46,67.53,6.41Z" transform="translate(3.12 1.7)"/><ellipse class="d" cx="72.04" cy="20.35" rx="0.32" ry="0.4"/><path class="e" d="M69.43,18.62a.4.4,0,0,0-.06-.46.56.56,0,0,0-.51-.19.58.58,0,0,0-.43.36.7.7,0,0,0,0,.45c.08.24.36.42.55.34a.76.76,0,0,0,.38-.44s-.09,0-.12,0a.62.62,0,0,1-.27.09h0s-.1.13-.16,0a.28.28,0,0,1,.1-.37c.13-.05.27,0,.35.23C69.22,18.65,69.4,18.68,69.43,18.62Z" transform="translate(3.12 1.7)"/><ellipse class="d" cx="76.2" cy="49.69" rx="0.43" ry="0.54"/><path class="e" d="M73.7,48a.61.61,0,0,0-.7-.78.75.75,0,0,0-.53,1,.57.57,0,0,0,.66.43A.77.77,0,0,0,73.6,48s-.09,0-.12,0c-.26.17-.36.19-.39.23s-.2.08-.27-.08A.43.43,0,0,1,73,47.6c.18-.09.41.09.48.36C73.49,48,73.67,48,73.7,48Z" transform="translate(3.12 1.7)"/><ellipse class="d" cx="77.69" cy="57.18" rx="0.43" ry="0.54"/><path class="e" d="M75.19,55.44c.17-.32-.18-.86-.69-.78a.75.75,0,0,0-.54,1,.57.57,0,0,0,.66.43.77.77,0,0,0,.47-.56s-.09,0-.12,0c-.26.17-.36.19-.38.23s-.2.09-.28-.08a.42.42,0,0,1,.18-.56c.18-.09.4.1.47.36C75,55.48,75.16,55.51,75.19,55.44Z" transform="translate(3.12 1.7)"/><ellipse class="d" cx="74.63" cy="60.9" rx="0.39" ry="0.48"/><path class="e" d="M72.09,59.17c.17-.3-.16-.81-.65-.73a.7.7,0,0,0-.5.91.54.54,0,0,0,.62.39.72.72,0,0,0,.43-.51s-.09,0-.12,0c-.26.15-.35.14-.35.17s-.15.1-.22,0a.37.37,0,0,1,.14-.49c.15-.07.35.08.42.32C71.88,59.2,72.06,59.23,72.09,59.17Z" transform="translate(3.12 1.7)"/><ellipse class="d" cx="73.08" cy="58.8" rx="0.39" ry="0.48"/><path class="e" d="M70.54,57.06c.17-.29-.16-.8-.64-.72a.7.7,0,0,0-.5.91.54.54,0,0,0,.62.39.71.71,0,0,0,.42-.51s-.09,0-.12,0c-.26.15-.35.14-.35.17s-.15.11-.22,0a.37.37,0,0,1,.15-.49c.15-.07.34.08.42.31C70.33,57.1,70.51,57.13,70.54,57.06Z" transform="translate(3.12 1.7)"/><ellipse class="d" cx="70.94" cy="66.56" rx="0.35" ry="0.44"/><path class="e" d="M68.36,64.83a.47.47,0,0,0-.06-.48.57.57,0,0,0-.54-.21.65.65,0,0,0-.47.86.49.49,0,0,0,.58.36.73.73,0,0,0,.4-.47s-.09,0-.12,0c-.27.14-.36.11-.33.13s0,0,0,.06a.12.12,0,0,1-.13-.08.33.33,0,0,1,.12-.43c.13-.06.3.07.38.28C68.15,64.86,68.33,64.89,68.36,64.83Z" transform="translate(3.12 1.7)"/><ellipse class="d" cx="68.55" cy="64.83" rx="0.27" ry="0.34"/><path class="e" d="M65.89,63.1a.43.43,0,0,0-.47-.58.55.55,0,0,0-.43.75.39.39,0,0,0,.49.26.69.69,0,0,0,.32-.37s-.09,0-.12,0c-.28.09-.29,0-.28,0s-.07.13-.11.06a.19.19,0,0,1,.08-.26c.11,0,.23,0,.3.17S65.86,63.16,65.89,63.1Z" transform="translate(3.12 1.7)"/><ellipse class="d" cx="69.02" cy="62.15" rx="0.23" ry="0.29"/><path class="e" d="M66.33,60.43c.16-.26-.12-.58-.4-.55a.48.48,0,0,0-.38.22.52.52,0,0,0,0,.5.35.35,0,0,0,.45.2.62.62,0,0,0,.28-.33s-.09,0-.12,0c-.27.08-.29,0-.27,0s0,.11-.08,0a.16.16,0,0,1,.08-.22c.09,0,.19,0,.26.14S66.3,60.48,66.33,60.43Z" transform="translate(3.12 1.7)"/><ellipse class="d" cx="68.42" cy="61.18" rx="0.22" ry="0.28"/><path class="e" d="M65.71,59.46a.37.37,0,0,0-.37-.53.47.47,0,0,0-.38.19.55.55,0,0,0-.06.51.34.34,0,0,0,.45.18.68.68,0,0,0,.26-.31s-.09,0-.12,0c-.27.07-.29,0-.27,0s0,.1-.07,0a.17.17,0,0,1,.08-.22c.09,0,.19,0,.26.14S65.68,59.5,65.71,59.46Z" transform="translate(3.12 1.7)"/><ellipse class="d" cx="66.92" cy="61.36" rx="0.21" ry="0.26"/><path class="e" d="M64.19,59.64c.16-.22-.08-.52-.32-.51a.45.45,0,0,0-.37.16.53.53,0,0,0-.08.53.32.32,0,0,0,.43.16.76.76,0,0,0,.25-.3s-.09,0-.12,0c-.27.07-.3,0-.28,0s0,.1-.05,0a.15.15,0,0,1,.07-.2c.09,0,.18,0,.25.13S64.16,59.68,64.19,59.64Z" transform="translate(3.12 1.7)"/><ellipse class="d" cx="65.08" cy="62.54" rx="0.25" ry="0.32"/><path class="e" d="M62.4,60.81c.16-.28-.15-.62-.44-.57a.54.54,0,0,0-.43.74.36.36,0,0,0,.47.23c.16-.07.22-.19.31-.35s-.09,0-.12,0c-.28.08-.3-.05-.28,0s-.06.12-.09,0a.17.17,0,0,1,.08-.24c.1,0,.21,0,.28.16S62.37,60.86,62.4,60.81Z" transform="translate(3.12 1.7)"/><ellipse class="d" cx="65.74" cy="63.26" rx="0.25" ry="0.31"/><path class="e" d="M63.06,61.54c.16-.28-.15-.62-.44-.57a.55.55,0,0,0-.43.74.38.38,0,0,0,.47.23.65.65,0,0,0,.3-.35s-.09,0-.12,0c-.27.09-.29,0-.27,0s-.06.11-.1.05a.2.2,0,0,1,.08-.25c.1,0,.21,0,.28.16S63,61.59,63.06,61.54Z" transform="translate(3.12 1.7)"/><ellipse class="d" cx="68.46" cy="63.69" rx="0.23" ry="0.29"/><path class="e" d="M65.76,62c.16-.26-.12-.58-.39-.55a.51.51,0,0,0-.39.22.55.55,0,0,0,0,.5.35.35,0,0,0,.45.2.66.66,0,0,0,.28-.33s-.09,0-.12,0c-.27.08-.29,0-.27,0s0,.11-.08,0a.16.16,0,0,1,.08-.22c.09,0,.19,0,.27.14S65.73,62,65.76,62Z" transform="translate(3.12 1.7)"/><path class="d" d="M48.29,5.08l.32,2.32,2.32.33-2.32.33-.16,1.16c-.06.58-.1,1.17-.1,1.17s-.13-.59-.23-1.17L48,8.06l-2.32-.33L48,7.4Z" transform="translate(3.12 1.7)"/><path class="e" d="M48.07,5.26c-.08.34-.16.69-.23,1l-.09.53,0,.26c0,.08,0,0,0,0l-4.1.59.52.07,3.63.48.31,1.79.2,1,.09.47c0,.07,0,.17,0,.21l0,.09.09-1.08c0-.51.07-1,.13-1.48l.1-1.08,2.67-.45-2.76-.36c-.1-.66-.19-1.42-.25-2.15,0-.16-.12-.19-.13-.06a8,8,0,0,0,0,1.1c0,.21,0,.4,0,.58l0,.3.06.52.44.07h.14c.07,0,.11,0,.08,0l-.1,0-.09,0-.38.07c0,.13,0,.25,0,.38V8.4c0,.09,0,.18,0,.27l-.05.64V9.4s0,0,0-.05l0-.16-.07-.34L48.07,8l-1.6-.22L48,7.48c.08-.69.16-1.39.24-2.11C48.31,5.06,48.15,4.94,48.07,5.26Z" transform="translate(3.12 1.7)"/><polygon class="d" points="23.52 65.88 21.57 65.88 21.03 67.75 21.03 65.8 19.15 65.26 21.1 65.26 21.64 63.38 21.64 65.34 23.52 65.88"/><path class="e" d="M20.29,64l-.83-.32L19,63.49l-.21-.07h0v-.73c0-.33,0-.65,0-1l0-2-.52,2-.06.2-.4,1.5-1.76,0-1.54,0,1.48.38.61.16.65.16.54.12c0,.63.05,1.25.07,1.85l0,.46.12-.44c.15-.62.33-1.29.5-1.86.54,0,1.19,0,1.79,0,.14,0,.18-.09.07-.12a8.17,8.17,0,0,0-.91-.17L19,63.92H18.7l-.47,0c-.12.4-.23.76-.34,1.14s-.16.62-.25,1l.55.08c0-.69-.07-1.43-.1-2.09l-1-.25-1-.28,0,.26h2l.55-2-.22,0c0,.67,0,1.34,0,2l1.74.44C20.41,64.21,20.55,64.06,20.29,64Z" transform="translate(3.12 1.7)"/><polygon class="d" points="5.1 42.44 5 44.78 7.22 45.52 4.88 45.42 4.14 47.65 4.24 45.31 2.02 44.56 4.36 44.66 5.1 42.44"/><path class="e" d="M1.74,40.88c-.15.32-.29.65-.42,1s-.12.34-.19.5L1,42.62c0,.07,0,0,0,0l-4.14-.16.49.15L.86,43.79.74,47.44l.42-1.3c.24-.75.47-1.51.7-2.26l2.71,0-2.65-.85c0-.67.08-1.43.15-2.16,0-.16-.08-.21-.12-.08a10.83,10.83,0,0,0-.22,1.08l-.08.57,0,.3c0,.18,0,.35,0,.52l.43.15H2l.16,0c.07,0,.11,0,.07.05l-.1,0H1.63c0,.13-.07.25-.11.37l0,.12c0,.09-.05.18-.07.26L1.19,45l.06-1.49L-.28,43l1.58,0c.21-.67.41-1.34.63-2C2,40.73,1.87,40.58,1.74,40.88Z" transform="translate(3.12 1.7)"/><polygon class="d" points="33.9 0.01 34.2 2.34 36.51 2.7 34.19 2.99 33.83 5.31 33.53 2.98 31.22 2.62 33.54 2.33 33.9 0.01"/><path class="e" d="M30.56-1.51c-.09.34-.17.69-.24,1,0,.18-.07.36-.1.53l0,.26c0,.08,0,0,0,0L26.05.9l.51.08,3.63.53c.16,1.2.33,2.4.5,3.62l.19-1.36c.1-.78.21-1.56.31-2.34L33.87,1,31.11.61C31,0,31-.81,30.89-1.54c0-.16-.11-.2-.13-.06,0,.34,0,.71,0,1.1,0,.21,0,.4,0,.58s0,.2,0,.3l.05.51.44.08h.14c.07,0,.11,0,.07,0a.19.19,0,0,1-.09,0l-.09,0-.38.06-.05.39v.12l0,.27-.1.74-.2-1.47L28.93.94,30.5.71c.09-.69.18-1.39.27-2.11C30.81-1.7,30.65-1.83,30.56-1.51Z" transform="translate(3.12 1.7)"/><polygon class="d" points="12.43 38.29 14.62 37.98 12.43 37.67 13.29 36.67 12.29 37.52 11.97 35.33 11.67 37.52 10.66 36.67 11.52 37.67 9.33 37.98 11.52 38.29 10.66 39.29 11.67 38.44 11.97 40.63 12.29 38.44 13.29 39.29 12.43 38.29"/><path class="e" d="M9.4,36.92l.62.8.27-.27C9.92,37.12,9.8,37,9,36.31l-.12.83v.12l0-.07v0l-.12-.83-.55.47-.75.64.3.3,1.08-1.28-.95-.13-.31,0,.26,0,.93-.15L7.78,35l-.12-.14-.21.2,1.19,1c.07-.61.15-1.21.22-1.81l.27,1.67L10.19,35l0,0-.88,1,2,.29-1.77.22c-.17,0-.26.1,0,.1.72,0,2-.15,3.36-.32l-3-.48c-.13.15.33-.38.57-.68L10,34.8c-.29.25-.81.69-.7.61v0h0l0-.24-.14-1-.27-1.74c-.14,1.09-.28,2.16-.4,3.15l-.37-.3-.47-.4-.16.16.74.85-2.68.38,2.7.38-.74.87.13.13.87-.75.38,2.59c.11-.88.23-1.76.35-2.64l.93.77.06-.06-.59-.67C9.31,36.56,9.1,36.52,9.4,36.92Z" transform="translate(3.12 1.7)"/><ellipse class="d" cx="62.06" cy="11.29" rx="0.25" ry="0.32"/><path class="e" d="M59.39,9.56c.16-.28-.15-.62-.44-.57a.54.54,0,0,0-.43.74A.36.36,0,0,0,59,10a.65.65,0,0,0,.3-.35s-.09,0-.12,0c-.27.08-.29,0-.27,0s-.06.12-.1.05a.17.17,0,0,1,.08-.24c.1,0,.21,0,.28.16S59.35,9.61,59.39,9.56Z" transform="translate(3.12 1.7)"/><ellipse class="d" cx="63.5" cy="10.22" rx="0.25" ry="0.31"/><path class="e" d="M60.82,8.5a.4.4,0,0,0-.43-.56.53.53,0,0,0-.43.73.36.36,0,0,0,.47.22.68.68,0,0,0,.3-.34s-.09,0-.12,0c-.28.08-.3,0-.28,0s0,.11-.09.05a.17.17,0,0,1,.08-.24c.1,0,.21,0,.28.16S60.79,8.55,60.82,8.5Z" transform="translate(3.12 1.7)"/><ellipse class="d" cx="62.88" cy="12.62" rx="0.11" ry="0.14"/><path class="e" d="M60.06,10.91c.17-.14,0-.47-.34-.4a.36.36,0,0,0-.26.49.27.27,0,0,0,.32.13c.09-.06.1-.11.19-.19s-.09,0-.12,0h-.12a0,0,0,0,1,0,0s0,0,0,0,0,0,0-.06,0,0,0,0,.05,0,.08,0S60,10.94,60.06,10.91Z" transform="translate(3.12 1.7)"/><ellipse class="d" cx="64.21" cy="13.94" rx="0.05" ry="0.07"/><path class="e" d="M61.33,12.24c.17-.11,0-.4-.28-.34s-.26.31-.2.4.19.13.25.07a.57.57,0,0,1,.14-.11h-.12c-.12,0,0,0,0,0l0,0s0,0,0,0-.07,0,0,0S61.3,12.26,61.33,12.24Z" transform="translate(3.12 1.7)"/><ellipse class="d" cx="65.64" cy="11.68" rx="0.14" ry="0.17"/><path class="e" d="M62.84,10c.17-.16,0-.5-.37-.43a.37.37,0,0,0-.27.52.26.26,0,0,0,.34.15c.1-.06.12-.12.21-.21s-.09,0-.12,0h-.16s0,0,0,0l0,0s0,0,0,0,0,0,0,0,0-.06,0-.07,0,0,.1,0S62.81,10,62.84,10Z" transform="translate(3.12 1.7)"/><ellipse class="d" cx="67.05" cy="13.59" rx="0.17" ry="0.22"/><path class="e" d="M64.3,11.87c.17-.17-.06-.54-.41-.47a.42.42,0,0,0-.31.58.32.32,0,0,0,.38.19c.13-.07.16-.15.24-.26s-.09,0-.12,0-.25,0-.2,0,0,0,0,.05.06-.05,0,0a.09.09,0,0,1,0-.13s.07,0,.14.08S64.27,11.91,64.3,11.87Z" transform="translate(3.12 1.7)"/><ellipse class="d" cx="68.5" cy="11.67" rx="0.36" ry="0.44"/><path class="e" d="M65.93,9.94a.45.45,0,0,0-.07-.48.56.56,0,0,0-.54-.21.65.65,0,0,0-.47.86.51.51,0,0,0,.58.37.72.72,0,0,0,.4-.48s-.09,0-.12,0c-.26.14-.35.12-.32.14a.09.09,0,0,1-.06.06.14.14,0,0,1-.13-.08.33.33,0,0,1,.12-.44c.14-.06.31.07.38.28C65.72,10,65.9,10,65.93,9.94Z" transform="translate(3.12 1.7)"/><ellipse class="d" cx="68.32" cy="9.91" rx="0.27" ry="0.34"/><path class="e" d="M65.67,8.18c.16-.3-.18-.65-.49-.59a.58.58,0,0,0-.43.77.4.4,0,0,0,.5.25.66.66,0,0,0,.32-.37s-.09,0-.12,0c-.27.1-.29,0-.27,0s-.08.13-.12,0A.19.19,0,0,1,65.14,8c.11,0,.23,0,.3.17S65.64,8.24,65.67,8.18Z" transform="translate(3.12 1.7)"/><ellipse class="d" cx="68.7" cy="8.44" rx="0.23" ry="0.29"/><path class="e" d="M66,6.72c.16-.26-.12-.58-.39-.55a.48.48,0,0,0-.38.22.53.53,0,0,0-.06.5.36.36,0,0,0,.46.2.69.69,0,0,0,.27-.33s-.09,0-.12,0c-.27.08-.29,0-.27,0s0,.11-.08,0a.17.17,0,0,1,.08-.22c.09,0,.19,0,.27.14S66,6.76,66,6.72Z" transform="translate(3.12 1.7)"/><ellipse class="d" cx="69.4" cy="7.03" rx="0.29" ry="0.36"/><path class="e" d="M66.76,5.3a.46.46,0,0,0-.52-.61.59.59,0,0,0-.43.78.42.42,0,0,0,.51.29.65.65,0,0,0,.34-.4s-.09,0-.12,0c-.27.1-.29,0-.27,0s-.09.13-.14.06a.22.22,0,0,1,.09-.29c.12,0,.24,0,.31.19S66.73,5.36,66.76,5.3Z" transform="translate(3.12 1.7)"/><path class="d" d="M23.83,3.93s4,3.42,4.82,6.14a28.28,28.28,0,0,0-4.79-4.9" transform="translate(3.12 1.7)"/><path class="e" d="M23.87,5.42c.83.89,1.78,1.7,2.65,2.56a20.29,20.29,0,0,1,1.94,2.22l.95,1.27L28.86,10a6.43,6.43,0,0,0-.48-1,31.55,31.55,0,0,0-4.4-5c-.09-.09-.19,0-.13.05,1,1.57,3,3.14,4,4.79a6.07,6.07,0,0,1,.65,1.33l.24-.12a23.57,23.57,0,0,0-4.7-4.71C23.86,5.14,23.69,5.23,23.87,5.42Z" transform="translate(3.12 1.7)"/><path class="d" d="M67.19,27.57l1,1.18a.64.64,0,0,0,.36.14l1.66-.2-1.32,1a.69.69,0,0,0-.17.34l.1,1.56-1-1.19a.75.75,0,0,0-.36-.13l-1.66.2,1.32-1a.68.68,0,0,0,.17-.35Z" transform="translate(3.12 1.7)"/><path class="e" d="M67.47,28.25l.48.55.06.07a.28.28,0,0,0,.12.1.88.88,0,0,0,.22.1.72.72,0,0,0,.27,0l.18,0,.66-.08h0l-.1.08-.36.28-.18.14a.41.41,0,0,0-.11.1.94.94,0,0,0-.09.12,1,1,0,0,0-.11.28,1.72,1.72,0,0,0,0,.27l0,.46,0,.3-.21-.23-.29-.34a1.54,1.54,0,0,0-.19-.2.93.93,0,0,0-.27-.12l-.14,0h-.15l-.23,0-.45.06-.24,0,.16-.13c.23-.19.42-.31.7-.56a.78.78,0,0,0,.17-.52l0-.43-.06-.85c0-.25-.13-.25-.11,0s0,.57,0,.86.1.6-.12.85c-.48.38-.89.65-1.42,1.05l.94-.08a5.3,5.3,0,0,1,.87,0,.55.55,0,0,1,.31.25l.29.36L69,32c0-.44,0-.87,0-1.31l0-.45c0-.06,0-.2,0-.18a1,1,0,0,1,.07-.15.15.15,0,0,1,0-.06l.06-.05.18-.13.36-.27,1.34-1c-2.5.17-2.37.66-3.18-.41C67.17,27.3,66.85,27.52,67.47,28.25Z" transform="translate(3.12 1.7)"/><path class="d" d="M15.21,8.16,15,8.91a.93.93,0,0,0,.81,1.48,3.19,3.19,0,0,0-3,1.45c0-.62.62-1,.42-1.79l-.51-.57-.52-.58,1.5.38a.56.56,0,0,0,.35-.09Z" transform="translate(3.12 1.7)"/><path class="e" d="M14.84,8.73c0,.13,0,.07-.09.21a1.28,1.28,0,0,0-.11.33,1.11,1.11,0,0,0,.09.67,1.19,1.19,0,0,0,1.1.66l0-.43a3.4,3.4,0,0,0-3.2,1.57l.37.1c0-.44.53-.93.44-1.65a.5.5,0,0,0,0-.12.25.25,0,0,0-.08-.17l-.15-.17-.29-.32-.17-.18.21,0,.4.1c.14,0,.24.1.47.07a.78.78,0,0,0,.25-.07.46.46,0,0,0,.13-.08l.07-.07L14.59,9l.61-.56c.17-.15.09-.23-.08-.08l-.61.54c-.22.15-.39.43-.7.45-.57-.1-1-.27-1.65-.44l.59.7L13,9.9l.13.16s0,.09,0,.16c.08.56-.46.94-.51,1.62l0,.54.3-.47a3.12,3.12,0,0,1,2.87-1.31l0-.43a.74.74,0,0,1-.7-.42.72.72,0,0,1-.07-.41.86.86,0,0,1,.07-.21,1,1,0,0,0,.11-.29C15.42,8,15.05,7.88,14.84,8.73Z" transform="translate(3.12 1.7)"/><path class="d" d="M13.56,7.91l.79,1.33a.61.61,0,0,0,.31.18c.55,0,1.07,0,1.58,0a4,4,0,0,0-2.28,2c-.1-.72-.52-.93-1.23-.82l-.77,0,1.32-.78a.63.63,0,0,0,.19-.32Z" transform="translate(3.12 1.7)"/><path class="e" d="M13.68,8.55l.37.63.1.16a.86.86,0,0,0,.2.19.76.76,0,0,0,.46.11h.57l0,0-.28.17a2,2,0,0,0-.33.24,3.6,3.6,0,0,0-.58.59l-.12.17,0,0,0,0v-.06a.83.83,0,0,0-.11-.15,1,1,0,0,0-.67-.31c-.62,0-.51,0-.63,0l.19-.11.35-.21c.11-.09.25-.11.38-.28a.76.76,0,0,0,.13-.23,1,1,0,0,0,0-.25l0-.42,0-.82c0-.21-.1-.22-.11,0l-.06.82,0,.41a.56.56,0,0,1-.14.4,16.67,16.67,0,0,1-1.5.86c.38,0,.95.07,1.29.08s.62.16.74,1.16a5.78,5.78,0,0,1,.53-.93,3.12,3.12,0,0,1,.53-.5,2.82,2.82,0,0,1,.31-.21l.16-.1.23-.12c.43-.22,1-.46,1.52-.69l-2.36,0c-.15,0-.15,0-.24-.05s-.08-.07-.07-.05L14.42,9c-.12-.21-.25-.41-.39-.62C13.61,7.67,13.25,7.84,13.68,8.55Z" transform="translate(3.12 1.7)"/><path class="d" d="M77.84,50,78,51.54a.67.67,0,0,0,.19.31l1.34.77-1.54.1a.64.64,0,0,0-.31.2l-.77,1.33-.11-1.54a.67.67,0,0,0-.19-.31l-1.34-.77,1.54-.1a.64.64,0,0,0,.31-.2Z" transform="translate(3.12 1.7)"/><path class="e" d="M77.67,50.68l0,.69v.2a.71.71,0,0,0,.1.23A.66.66,0,0,0,78,52a.77.77,0,0,0,.18.12l.58.33h0l-.15,0-.43,0H78a.7.7,0,0,0-.3.11.65.65,0,0,0-.22.22l-.11.19-.21.37-.11.19v-.21L77,53v-.22a.7.7,0,0,0-.11-.29.71.71,0,0,0-.21-.22l-.19-.1-.38-.22-.22-.12.21,0,.41,0a1.52,1.52,0,0,0,.47-.07,1,1,0,0,0,.21-.15.31.31,0,0,0,.1-.12l.05-.09.2-.35.41-.72c.12-.2,0-.25-.09,0l-.42.7c-.16.21-.23.53-.52.65-.58.08-1.06.06-1.69.1l.77.47.37.23c.13.08.24.13.3.25a.44.44,0,0,1,.06.17V53l0,.43.06,1.3.67-1.12.23-.36.11-.19a.55.55,0,0,1,.1-.08s.11-.05.12,0h.21l.43,0,1.58-.1-1.83-1.05-.11-.06-.07-.09c0-.07,0-.08-.06-.24s0-.45-.06-.69C78,49.78,77.6,49.77,77.67,50.68Z" transform="translate(3.12 1.7)"/><path class="d" d="M76.19,50.27l1.17,1a.6.6,0,0,0,.35.08L79.2,51l-1,1.16a.64.64,0,0,0-.08.36l.4,1.49-1.16-1a.66.66,0,0,0-.36-.08l-1.49.4,1-1.16a.64.64,0,0,0,.08-.36Z" transform="translate(3.12 1.7)"/><path class="e" d="M76.55,50.88l.53.46.15.12a.73.73,0,0,0,.23.1.93.93,0,0,0,.24,0c.14,0,.14,0,.21-.05l.65-.18h0v0l-.1.11-.28.33-.15.16a.72.72,0,0,0-.13.29.64.64,0,0,0,0,.31l0,.21.12.41.06.21L78,53.26,77.66,53l-.17-.14a.66.66,0,0,0-.27-.13.64.64,0,0,0-.31,0l-.21,0-.41.12L76,53l.14-.17.27-.31c.08-.12.19-.16.28-.38a.7.7,0,0,0,0-.25.81.81,0,0,0,0-.15l0-.1-.11-.4-.22-.79c-.06-.23-.16-.2-.1,0s.13.53.2.79.21.54.09.82c-.35.47-.71.79-1.12,1.26l.87-.2.42-.1c.16,0,.27-.08.4,0a.39.39,0,0,1,.16.07l.15.15.32.3,1,.88c-.1-.43-.21-.85-.31-1.27l-.1-.42,0-.21a.78.78,0,0,1,0-.13.61.61,0,0,1,0-.11l.15-.16.29-.32,1-1.18-2,.55-.12,0h-.11c-.09,0-.09,0-.21-.13l-.53-.44C76.15,50,75.86,50.28,76.55,50.88Z" transform="translate(3.12 1.7)"/><path class="d" d="M76.79,29.83l.11,1.54a.67.67,0,0,0,.19.31l1.34.77-1.54.1a.64.64,0,0,0-.31.2l-.77,1.33-.11-1.54a.67.67,0,0,0-.19-.31l-1.34-.77,1.54-.1a.64.64,0,0,0,.31-.2Z" transform="translate(3.12 1.7)"/><path class="e" d="M76.62,30.51l0,.7,0,.19a.55.55,0,0,0,.1.23.85.85,0,0,0,.14.19,1,1,0,0,0,.19.12l.58.33h0l-.15,0-.43,0H76.9a.7.7,0,0,0-.29.11.77.77,0,0,0-.23.22l-.1.19-.22.37-.1.19,0-.21,0-.43v-.22a.7.7,0,0,0-.11-.29.71.71,0,0,0-.21-.22l-.19-.1L75,31.73l-.23-.12.22,0,.41,0a1.47,1.47,0,0,0,.46-.07.86.86,0,0,0,.22-.15.42.42,0,0,0,.1-.12l0-.09.2-.35.41-.71c.12-.21,0-.26-.1-.06l-.41.71c-.16.2-.23.52-.52.64-.58.08-1.06.06-1.69.1l.77.47.37.23c.13.08.24.13.3.25s.06.13.05.17v.22l0,.43.06,1.3c.22-.37.45-.74.67-1.12l.23-.36.11-.19a.55.55,0,0,1,.1-.08s.11-.05.11,0h.22l.43,0,1.57-.1-1.82-1.05-.11-.06a.31.31,0,0,1-.07-.09c-.05-.07,0-.08-.06-.24s0-.45-.06-.69C76.94,29.61,76.55,29.6,76.62,30.51Z" transform="translate(3.12 1.7)"/><path class="d" d="M75.14,30.1l1.16,1a.66.66,0,0,0,.36.08l1.49-.4-1,1.16a.64.64,0,0,0-.08.36l.4,1.49-1.17-1a.6.6,0,0,0-.35-.08l-1.49.4,1-1.16a.64.64,0,0,0,.08-.36Z" transform="translate(3.12 1.7)"/><path class="e" d="M75.5,30.71l.53.46.15.12a.73.73,0,0,0,.23.1.91.91,0,0,0,.23,0c.14,0,.15,0,.22-.05l.65-.18h0v0l-.09.11-.29.33L77,31.8a.72.72,0,0,0-.13.29.62.62,0,0,0,0,.31l.06.21L77,33l.06.21-.17-.14-.32-.28-.17-.14a.64.64,0,0,0-.28-.13.6.6,0,0,0-.3,0l-.21.05-.42.12-.25.07.14-.17.27-.31a1.28,1.28,0,0,0,.28-.38,1,1,0,0,0,0-.25.41.41,0,0,0,0-.15l0-.1-.11-.4-.22-.79c-.06-.23-.17-.2-.1,0s.13.53.2.79.21.54.08.82a15.85,15.85,0,0,1-1.12,1.26l.88-.2.42-.1c.16,0,.27-.08.39,0a.3.3,0,0,1,.16.07l.16.15.32.3,1,.88c-.1-.43-.21-.85-.31-1.27l-.1-.42-.05-.21a.78.78,0,0,1,0-.13.61.61,0,0,1,0-.11l.15-.16.29-.32,1-1.18-2,.55-.12,0h-.11c-.09,0-.1,0-.21-.13l-.54-.44C75.1,29.84,74.81,30.11,75.5,30.71Z" transform="translate(3.12 1.7)"/><path class="d" d="M14,23.3a2.65,2.65,0,0,0,.79,3.18c-1.14-.94-2.18-.31-3,.72.42-1.14.83-2.38-.41-3.21.83.1,1.66.51,2.18-.28Z" transform="translate(3.12 1.7)"/><path class="e" d="M13.58,23.89a3,3,0,0,0,1.06,2.74l.29-.32a1.88,1.88,0,0,0-1.85-.39,3.41,3.41,0,0,0-1.45,1.16l.34.19a5.71,5.71,0,0,0,.41-1.71,2,2,0,0,0-.18-.92c-.21-.38-.19-.29-.24-.35s0,0,.08,0l.24,0a2.6,2.6,0,0,0,.4,0,1.19,1.19,0,0,0,.79-.29c.1-.07.2-.26.24-.28l.27-.24c.17-.16.1-.24-.07-.08a5,5,0,0,0-.52.51,1,1,0,0,1-.71.24,3.2,3.2,0,0,1-.72-.11L11.6,24l-.19,0c-.06,0,0,0,0,0l.06.05a1.8,1.8,0,0,1,.53.66,1.65,1.65,0,0,1,.13.82,5.5,5.5,0,0,1-.47,1.61l-.27.68.49-.56a3.28,3.28,0,0,1,1.33-1,1.46,1.46,0,0,1,1.44.36l.29-.32A2.76,2.76,0,0,1,14,24c.07-.38.09-.62,0-.67S13.68,23.4,13.58,23.89Z" transform="translate(3.12 1.7)"/><path class="d" d="M12.75,23.08a1.91,1.91,0,0,0,2.15,1.53c-1.35.31-1.56,1.76-1.46,2.91-.41-1.25-1.14-2.18-2.59-1.77.72-.41,1.87-.93,1.81-2C12.71,23.39,12.75,23.08,12.75,23.08Z" transform="translate(3.12 1.7)"/><path class="e" d="M12.81,23.8a2,2,0,0,0,.94.86l.31.1h0a1.27,1.27,0,0,0-.16.14,2.29,2.29,0,0,0-.5.81,4.49,4.49,0,0,0-.17,1.81l.39-.08A3.75,3.75,0,0,0,12.79,26a1.8,1.8,0,0,0-.78-.45.88.88,0,0,0-.25-.05h-.07c-.09,0,0,0,0,0l.14-.09a3.68,3.68,0,0,0,.38-.31,1.6,1.6,0,0,0,.59-1.32l.06-.45c0-.24-.07-.25-.11,0l-.06.46a1.8,1.8,0,0,1-.06.45,1.65,1.65,0,0,1-.52.77,3.74,3.74,0,0,1-.76.51l-.46.24c-.29.14,0,0,0,.07a1.6,1.6,0,0,1,1.65.42,3.37,3.37,0,0,1,.71,1.38l.35,1.13-.06-1.19a4.07,4.07,0,0,1,.2-1.64,1.82,1.82,0,0,1,.42-.65,1.14,1.14,0,0,1,.18-.15c.13-.08.37-.15.55-.23l.44-.14.52-.15.83-.25-1.84.09a2.55,2.55,0,0,1-.72,0,1,1,0,0,1-.24-.08,1.67,1.67,0,0,1-.77-.67c-.2-.33-.33-.53-.44-.5S12.56,23.36,12.81,23.8Z" transform="translate(3.12 1.7)"/><path class="d" d="M30.4,10.69l-.78.24a.4.4,0,0,0-.13.13l-.24.78L29,11.06a.35.35,0,0,0-.14-.13l-.77-.24.77-.23a.32.32,0,0,0,.14-.14l.23-.77.24.77a.35.35,0,0,0,.13.14Z" transform="translate(3.12 1.7)"/><path class="e" d="M30,10.58l-.35.11c-.12,0-.41.28-.38.34l0,.08V11a.48.48,0,0,0-.28-.28h-.07l-.08,0,.07,0h0l0,0a.42.42,0,0,0,.17-.11.4.4,0,0,0,.1-.16v0l0-.05,0-.1,0,.09,0,0s0,0,.08.16a.5.5,0,0,0,.26.18l.21.06.41.12c.12,0,.15-.07,0-.11l-.41-.13c-.12-.06-.29-.06-.39-.2s-.14-.52-.24-.88l-.15.41c-.06.12-.12.39-.19.43a2.85,2.85,0,0,1-.53.15l-.73.19.63.22.36.13.17.05,0,0c.15.51.29,1,.42,1.46.14-.45.28-.89.41-1.34l0-.08h0s0,0,.07,0l.35-.12C30.55,10.82,30.45,10.44,30,10.58Z" transform="translate(3.12 1.7)"/><path class="d" d="M64.06,53.11l-.89.27a.36.36,0,0,0-.15.15l-.27.89-.27-.89a.39.39,0,0,0-.16-.15l-.89-.27.89-.28a.39.39,0,0,0,.16-.15l.27-.89.27.89a.36.36,0,0,0,.15.15Z" transform="translate(3.12 1.7)"/><path class="e" d="M63.61,53l-.4.13c-.14,0-.44.29-.41.37l0,.18,0-.11,0,0v-.05a.51.51,0,0,0-.12-.18.57.57,0,0,0-.19-.12l0,0h-.06l-.15,0,.13,0,.08,0,0,0a.46.46,0,0,0,.17-.12.36.36,0,0,0,.12-.18l0,0,0-.08,0-.17,0,.15,0,.08a.55.55,0,0,0,.09.18L63,53a.64.64,0,0,0,.16.07l.24.07.47.14c.14,0,.17-.06,0-.11L63.47,53c-.14-.06-.34-.07-.45-.23a10,10,0,0,1-.27-1l-.18.47-.1.28,0,.14a.21.21,0,0,1-.06.08,3.48,3.48,0,0,1-.6.18l-.79.21.7.24.38.13.19.06,0,0,0,0,.06.21.12.44.27.91c.15-.49.29-1,.44-1.44.05-.18,0-.08.05-.14s0,0,.1,0l.39-.14C64.23,53.23,64.14,52.85,63.61,53Z" transform="translate(3.12 1.7)"/><path class="d" d="M77,24l-.89.27a.39.39,0,0,0-.15.16l-.27.89-.27-.89a.41.41,0,0,0-.16-.16L74.35,24l.89-.27a.39.39,0,0,0,.16-.15l.27-.89.27.89a.36.36,0,0,0,.15.15Z" transform="translate(3.12 1.7)"/><path class="e" d="M76.53,23.9l-.4.12c-.14,0-.44.3-.41.38l0,.18,0-.11,0-.06v0a.43.43,0,0,0-.12-.18.46.46,0,0,0-.19-.13h-.05l-.06,0L75,24l.13,0,.08,0,.05,0a.46.46,0,0,0,.17-.12.41.41,0,0,0,.12-.18l0-.05,0-.08,0-.17,0,.15,0,.08a.55.55,0,0,0,.09.18.49.49,0,0,0,.13.12.4.4,0,0,0,.16.07l.24.07.47.14c.14.05.17-.06,0-.1l-.47-.15c-.14-.07-.34-.07-.45-.23-.12-.31-.16-.61-.27-1l-.18.47-.1.27,0,.15a.19.19,0,0,1-.06.07,2.29,2.29,0,0,1-.6.18l-.79.21.7.24.38.14.19.06,0,0a.06.06,0,0,1,0,0l.06.2.12.44c.09.31.18.62.27.91l.44-1.43c0-.18,0-.08,0-.14s0,0,.1-.05l.39-.13C77.15,24.12,77.06,23.74,76.53,23.9Z" transform="translate(3.12 1.7)"/><path class="a" d="M13.84,45.38c-.05,0-.13,0-.25-.16a2.88,2.88,0,0,1-.4-.63,7,7,0,0,1-.47-1,9.36,9.36,0,0,1-.41-1.45c0-.13-.05-.27-.08-.41l-.06-.43a5.52,5.52,0,0,1-.08-.95,7.5,7.5,0,0,1,.12-1c0-.35.08-.62.13-1,0-.17.06-.35.11-.53s.1-.35.16-.52.22-.6.35-.9v.06a.18.18,0,0,1,.05-.12l0,0,0-.11a2.3,2.3,0,0,1,.74-.9A2.36,2.36,0,0,1,14.87,35,2.32,2.32,0,0,1,16,35.1a1.89,1.89,0,0,1,.49.25,3.21,3.21,0,0,1,.41.34,1.94,1.94,0,0,1,.35.44c.05,0,.05.15.06.19v.13l0,.25c0,.33.08.66.11,1l.12,1,0,.47c0,.16,0,.34,0,.49,0,.32,0,.6,0,.85s.08.54.12.82.08.57.09.83,0,.52.05.74c0,.44.11.85.16,1.24a2.46,2.46,0,0,1-.57,1.69,2.74,2.74,0,0,1-.72.59,2.18,2.18,0,0,1-.86.26,2.35,2.35,0,0,1-.76-.06,2.55,2.55,0,0,1-.33-.11l-.15-.07-.14-.08a1.8,1.8,0,0,1-.57-.65c-.09-.17-.11-.28-.08-.3s.12,0,.26.17a2.75,2.75,0,0,0,.61.44l.1,0L15,46l.27,0a2.08,2.08,0,0,0,.61,0,1.68,1.68,0,0,0,.63-.21,2.31,2.31,0,0,0,.58-.48,1.93,1.93,0,0,0,.45-1.25c0-.31-.11-.77-.14-1.27,0-.23,0-.5,0-.74s0-.48-.07-.74-.07-.56-.1-.85a7.46,7.46,0,0,1,0-.93c0-.15,0-.29,0-.42l0-.46L17,37.78l-.09-1-.05-.48a1.67,1.67,0,0,0-.23-.33,2.1,2.1,0,0,0-.35-.31,2.23,2.23,0,0,0-.4-.24A2.05,2.05,0,0,0,14,35.6a2,2,0,0,0-.67.76l-.07.15,0,.05a.14.14,0,0,0,0-.1l0,.06c-.11.28-.22.55-.31.82a4.74,4.74,0,0,0-.15.5c0,.16-.07.32-.1.49,0,.35-.08.67-.12,1a8.7,8.7,0,0,0-.09.94,5,5,0,0,0,.08.86c0,.15.06.3.08.44s0,.27.08.4a12.82,12.82,0,0,0,.4,1.4c.14.41.29.75.42,1l.28.67C13.86,45.26,13.88,45.35,13.84,45.38Z" transform="translate(3.12 1.7)"/><path class="a" d="M65.7,45.38s0-.13,0-.28.18-.38.31-.65.27-.62.42-1A9.78,9.78,0,0,0,66.87,42c0-.13,0-.27.07-.4a2.7,2.7,0,0,0,0-.41c0-.28,0-.58,0-.91s0-.65,0-1a4.07,4.07,0,0,0-.15-1c0-.17-.09-.34-.13-.51s-.09-.34-.14-.5a9.32,9.32,0,0,0-.33-.88v-.06a.1.1,0,0,0,0,.09l0,0,0-.09a2.15,2.15,0,0,0-.67-.77,2,2,0,0,0-1.88-.21,1.81,1.81,0,0,0-.41.22A1.87,1.87,0,0,0,63,36a1.55,1.55,0,0,0-.24.37.83.83,0,0,0,0,.18l0,.25c0,.33-.06.65-.08,1s-.06.64-.08,1l0,.47a3.61,3.61,0,0,1-.07.49c-.05.31-.11.59-.13.84s0,.55,0,.83,0,.57-.07.83-.07.52-.1.73c0,.44-.06.86-.09,1.25a1.89,1.89,0,0,0,.5,1.26,1.65,1.65,0,0,0,.56.42,2.39,2.39,0,0,0,.64.21,2.35,2.35,0,0,0,.59,0l.27-.06.12,0,.13,0a3.31,3.31,0,0,0,.7-.33c.15-.09.24-.16.27-.14s0,.14-.13.32a2.06,2.06,0,0,1-.7.53l-.12,0-.13.06-.32.1a2.22,2.22,0,0,1-.74.05,2.58,2.58,0,0,1-.79-.21,2.17,2.17,0,0,1-.78-.57,2.45,2.45,0,0,1-.62-1.62c0-.41,0-.81.11-1.32,0-.23.08-.49.12-.73s.06-.48.08-.75,0-.55.06-.85.11-.63.16-.91,0-.28.07-.42l0-.46c0-.31.06-.63.1-.95s.07-.64.1-1l0-.5a1.47,1.47,0,0,1,.3-.5,2.07,2.07,0,0,1,.4-.38,2.27,2.27,0,0,1,.48-.27A2.33,2.33,0,0,1,64.59,35a2.25,2.25,0,0,1,1.12.39,2.33,2.33,0,0,1,.79.86l.09.17,0-.05a.22.22,0,0,1,.06.13l0-.07c.13.28.23.57.33.85s.11.34.15.52.09.31.14.49a4.62,4.62,0,0,1,.2,1.06c0,.36,0,.69,0,1s0,.6,0,.91c0,.15,0,.3,0,.46s0,.29-.07.43a8.65,8.65,0,0,1-.4,1.47,6.87,6.87,0,0,1-.5,1.08,3.32,3.32,0,0,1-.44.6C65.82,45.36,65.75,45.41,65.7,45.38Z" transform="translate(3.12 1.7)"/><path d="M33.27,61.88a92.18,92.18,0,0,1,13.08-.31,45.87,45.87,0,0,1,9.24,1.55c3.32,1,6.54,2.29,9.86,3.53a5.39,5.39,0,0,1,2,1l1,.46" transform="translate(3.12 1.7)"/><path class="a" d="M68.4,67.26,68,66.92a.22.22,0,0,0-.08-.11,2,2,0,0,0-.26-.24,5.63,5.63,0,0,0-1.14-.73c-.2-.09-.41-.18-.61-.25l-.46-.2L64.34,65c-1.45-.54-2.93-1-4.4-1.48l-2.4-.78A23.24,23.24,0,0,0,55.09,62,39.42,39.42,0,0,0,50,61.18c-5.68-.51-10.9.49-16.49.31a.25.25,0,0,0-.12.49,18.29,18.29,0,0,0,7.63.67,51.87,51.87,0,0,1,7.78-.25,38.55,38.55,0,0,1,4.89.77,37.46,37.46,0,0,1,4.76,1.5q2.37.83,4.75,1.61c.8.25,1.57.52,2.4.74a6.35,6.35,0,0,1,1.13.41,4.63,4.63,0,0,1,.52.3,3.48,3.48,0,0,0,.6.27C68.42,68.21,68.92,67.66,68.4,67.26Z" transform="translate(3.12 1.7)"/><path d="M11.68,67.9c6.85-3.11,14-5.5,21.59-6" transform="translate(3.12 1.7)"/><path class="a" d="M12.21,68.49a17.49,17.49,0,0,0,5.34-1.82c1.88-.82,3.81-1.53,5.73-2.25,3.19-1.2,6.34-2.49,9.83-2.16.2,0,.23-.38.06-.48a6.19,6.19,0,0,0-4.89-.5c-1.69.41-3.31,1.18-4.74,1.64-4,1.28-8,2.55-11.61,4.71C11.61,67.82,11.8,68.53,12.21,68.49Z" transform="translate(3.12 1.7)"/><path d="M64.35,35.65a21.64,21.64,0,0,0-2.08-10.51c-.15-.32-.31-.65-.48-1a46.6,46.6,0,0,0-7.15-8.62q-.47-.37-1-.72c-4.89-3.44-11.2-4.41-17.07-3.72l-1,.16a27.57,27.57,0,0,0-2.9.67,24,24,0,0,0-7.62,3.7l-.85.64c-3.26,1.89-5.13,5.21-6.58,8.5-.16.32-.31.65-.46,1a24.44,24.44,0,0,0-2,9.84v5.25A24,24,0,0,0,20.6,56.12c.2.26.41.51.62.76a29.63,29.63,0,0,0,2,2.17c.29.27.59.53.89.78a24.59,24.59,0,0,0,28.38,2.05c.34-.2.67-.42,1-.64,4.78-3,7.89-7.87,9.74-13.07.11-.38.22-.77.32-1.17a24.36,24.36,0,0,0,.77-6.14V37.17c0-.34,0-.65,0-.91Z" transform="translate(3.12 1.7)"/><path class="a" d="M64.35,35.65s0,.14,0,.41,0,.68,0,1.17c0,1.06,0,2.55,0,4.39a25.48,25.48,0,0,1-1,6.65,29.17,29.17,0,0,1-4,7.89,21.53,21.53,0,0,1-1.58,1.93,21.82,21.82,0,0,1-1.81,1.78,20.27,20.27,0,0,1-2.17,1.65A21.39,21.39,0,0,1,51.27,63,23.37,23.37,0,0,1,45.73,65a30,30,0,0,1-5.83.75,22.12,22.12,0,0,1-3.22-.16A24.5,24.5,0,0,1,33.52,65a25.36,25.36,0,0,1-6-2.47,21.75,21.75,0,0,1-5.25-4.08A25.71,25.71,0,0,1,18.18,53,25.19,25.19,0,0,1,15.8,47.4a20.38,20.38,0,0,1-.63-3,18.42,18.42,0,0,1-.2-3c0-1,0-2,0-3s0-2.06,0-3a24.85,24.85,0,0,1,.78-5.86,28,28,0,0,1,2-5.38c.39-.86.8-1.71,1.26-2.52a18.4,18.4,0,0,1,1.67-2.47,13,13,0,0,1,1.9-1.94c.33-.28.67-.52,1-.75l.51-.32.44-.34a24.07,24.07,0,0,1,4.21-2.68,20.27,20.27,0,0,1,4.73-1.74c.78-.19,1.53-.38,2.26-.52a21.16,21.16,0,0,1,2.13-.25,29.4,29.4,0,0,1,7.56.33,20.75,20.75,0,0,1,8.9,3.88l.49.39c.21.19.31.3.47.45l.85.89c.56.6,1.11,1.21,1.65,1.84a42.71,42.71,0,0,1,2.88,3.78c.4.61.79,1.2,1.13,1.78s.59,1.22.83,1.81.45,1.16.63,1.71c.09.3.17.58.26.87s.16.57.22.85A20.76,20.76,0,0,1,64.39,34c0,1.07,0,1.68,0,1.68s0-.16,0-.48,0-.78,0-1.38A20.83,20.83,0,0,0,63.61,29c-.06-.23-.13-.46-.2-.7s-.17-.49-.25-.74c-.2-.55-.42-1.11-.68-1.68a18.77,18.77,0,0,0-.88-1.73c-.36-.57-.77-1.13-1.2-1.71A41.42,41.42,0,0,0,57.57,19c-.53-.57-1.11-1.16-1.72-1.76l-1-.91-.49-.47-.53-.38A21.09,21.09,0,0,0,45.53,12a30.49,30.49,0,0,0-7.6-.45c-.72,0-1.44.1-2.15.2l-2.13.43a20.73,20.73,0,0,0-4.21,1.35A23.44,23.44,0,0,0,25.07,16l-.58.42c-.25.18-.42.26-.63.39-.39.25-.76.52-1.12.8a13.19,13.19,0,0,0-1.86,1.88,17.25,17.25,0,0,0-1.41,2c-.46.78-.88,1.6-1.28,2.44s-.81,1.7-1.15,2.58A23.79,23.79,0,0,0,15.34,35c0,1,0,2,0,2.92s0,2,0,3a22.19,22.19,0,0,0,.18,3,22.87,22.87,0,0,0,.6,2.94,25.71,25.71,0,0,0,6.2,10.85c.38.4.74.81,1.13,1.19s.82.72,1.26,1a21.9,21.9,0,0,0,2.69,1.82,25,25,0,0,0,5.88,2.48,27.19,27.19,0,0,0,3.06.62,20.78,20.78,0,0,0,3,.18,27.88,27.88,0,0,0,6.13-.74,23.17,23.17,0,0,0,5.32-1.85,18.92,18.92,0,0,0,2.24-1.31,23.22,23.22,0,0,0,5.73-5.2,29.85,29.85,0,0,0,4.27-7.71,24,24,0,0,0,1.22-6.75c0-1.91,0-3.34,0-4.35,0-.46,0-.83,0-1.11S64.35,35.65,64.35,35.65Z" transform="translate(3.12 1.7)"/><path class="a" d="M59.22,51.37a22.61,22.61,0,0,0,2.53-8A25.8,25.8,0,0,0,61.51,35a13,13,0,0,0-1.45-4,9,9,0,0,0-3.15-3,19.51,19.51,0,0,0-3.81-1.81,33.28,33.28,0,0,0-4-1.18,41.47,41.47,0,0,0-8.23-1.11,38.24,38.24,0,0,0-8.28.71,33.38,33.38,0,0,0-8,2.45A13.67,13.67,0,0,0,21,29.4a8.88,8.88,0,0,0-2.23,3.75,22.51,22.51,0,0,0-.95,7.31,26.3,26.3,0,0,0,1.22,7.41,19.23,19.23,0,0,0,1.53,3.53A14.88,14.88,0,0,0,23,54.49a20.52,20.52,0,0,0,6.64,3.87,29.52,29.52,0,0,0,14.79,1.41,27.64,27.64,0,0,0,6.9-2,18.15,18.15,0,0,0,5.74-3.89c.2-.21.07-.12-.13.09a19.68,19.68,0,0,1-6.81,4.14,29,29,0,0,1-7.74,1.73A28.59,28.59,0,0,1,27,56.87a18,18,0,0,1-3.34-2.22A9.28,9.28,0,0,1,22.2,53.2,12.88,12.88,0,0,1,21,51.56,20.81,20.81,0,0,1,18.44,44a25.91,25.91,0,0,1-.05-8,15.73,15.73,0,0,1,1.07-3.89,6.58,6.58,0,0,1,.46-.92l.25-.45.32-.41.33-.42.37-.36A6.14,6.14,0,0,1,22,29a22.4,22.4,0,0,1,7.86-3.47,42.43,42.43,0,0,1,8.45-1.29,38.1,38.1,0,0,1,8.53.62A34.17,34.17,0,0,1,55,27.29a13.68,13.68,0,0,1,3.74,2.5,9.09,9.09,0,0,1,2.13,4,20,20,0,0,1,.72,4.41,26.33,26.33,0,0,1-.1,4.44,22.25,22.25,0,0,1-3.35,9.91c-.81,1-1,1.38-.73,1.16A9.86,9.86,0,0,0,59.22,51.37Z" transform="translate(3.12 1.7)"/><path class="a" d="M40.71,58.79a23.29,23.29,0,0,0,3.78.14,27.31,27.31,0,0,0,3.13-.33c1-.16,1.6-.29,1.79-.34.37-.08.51-.08.48,0a2.21,2.21,0,0,1-.54.29,13.31,13.31,0,0,1-1.83.55,11,11,0,0,1-1.82.29c-.23,0-.69,0-1.25,0a14.6,14.6,0,0,1-1.89-.15A9.56,9.56,0,0,1,40.71,58.79Z" transform="translate(3.12 1.7)"/><path class="a" d="M30.75,57.25s.49.23,1.27.56a28.19,28.19,0,0,0,2.95,1c1.09.33,2.18.58,3,.74.43.1.73.16,1,.2l.44.09c.25.06.3.11.21.14a2.41,2.41,0,0,1-.77.08,13,13,0,0,1-1.9-.14,9,9,0,0,1-1.63-.36L35,59.45c-.12-.06-.21-.13-.41-.22l-1.53-.73c-.59-.29-1.19-.6-1.61-.85S30.75,57.25,30.75,57.25Z" transform="translate(3.12 1.7)"/><path class="a" d="M22.64,52s.28.44.77,1.14a13.12,13.12,0,0,0,2.37,2.33,26.79,26.79,0,0,0,2.94,1.94l1.57.84c.59.34,0,.26-1.1-.14a11.27,11.27,0,0,1-2.65-1.43c-.11-.08-.37-.34-.79-.72s-1-.94-1.52-1.54A9.64,9.64,0,0,1,23,52.72Z" transform="translate(3.12 1.7)"/><path class="a" d="M19.47,44.06a21.31,21.31,0,0,0,.66,4.3c.16.53.29,1.08.47,1.57s.35,1,.52,1.33c.37.75.6,1.29.67,1.4.29.5-.23.12-.86-.89a8.9,8.9,0,0,1-1.18-2.69c0-.13-.06-.41-.11-.84l-.14-1.69c0-.65-.07-1.26-.06-1.73S19.47,44.06,19.47,44.06Z" transform="translate(3.12 1.7)"/><path class="a" d="M19.48,35.32a7.7,7.7,0,0,0-.31,1c-.18.62-.35,1.46-.52,2.35a31.1,31.1,0,0,0-.36,3.92c0,.55-.21.09-.3-1a12.47,12.47,0,0,1,.1-3,13.59,13.59,0,0,1,.7-1.84c.17-.36.33-.71.46-1Z" transform="translate(3.12 1.7)"/><path class="a" d="M27.18,27.19l-.35.1c-.22.06-.54.14-.89.26a21.61,21.61,0,0,0-2.45.93A10.21,10.21,0,0,0,21.1,30c-.33.29-.58.62-.81.85s-.3.46-.36.55-.21.3-.28.39-.09.12-.11.12,0-.19.2-.59a5.79,5.79,0,0,1,.39-.7c.19-.25.39-.53.63-.79l.77-.7c.26-.19.53-.36.73-.49A8.63,8.63,0,0,1,23.61,28a10.39,10.39,0,0,1,1.58-.44l1.29-.23Z" transform="translate(3.12 1.7)"/><path class="a" d="M37.13,25.13l-1.06,0c-.63,0-1.46,0-2.36,0s-1.88.12-2.75.25-1.6.28-1.81.31l-.48.08a.61.61,0,0,1-.2,0s.1-.12.5-.25a13.74,13.74,0,0,1,1.68-.45c.35-.08.68-.15,1-.2l.89-.12a14.49,14.49,0,0,1,1.54-.06,10,10,0,0,1,1.59.12c.43.07.75.17,1,.22Z" transform="translate(3.12 1.7)"/><path class="a" d="M50.11,26.43s-1.65-.66-3.46-1.19a39.79,39.79,0,0,0-4.33-1c-.68-.12-.46-.22.58-.17a17.18,17.18,0,0,1,3.22.5,16.85,16.85,0,0,1,2.45,1c.43.23.81.42,1.09.58Z" transform="translate(3.12 1.7)"/><path class="a" d="M59,31.51a1.64,1.64,0,0,0-.15-.3c-.11-.18-.26-.44-.46-.74a9.87,9.87,0,0,0-2-1.94,16.47,16.47,0,0,0-2.84-1.71c-.94-.45-1.76-.76-2-.85-.91-.37-1.2-.52-.43-.37.39.1,1,.27,1.68.52l1,.41c.33.15.66.32.91.46A12.8,12.8,0,0,1,56.33,28,9.33,9.33,0,0,1,58,29.59a5.82,5.82,0,0,1,.77,1.31c.08.18.16.32.2.43Z" transform="translate(3.12 1.7)"/><path class="a" d="M60.7,42.6s.13-.6.22-1.46c0-.44.12-.94.15-1.46s.07-1.09.07-1.65a15.21,15.21,0,0,0,0-1.66,13.21,13.21,0,0,0-.14-1.5c-.11-.93-.33-1.62-.35-1.83-.24-.76-.11-.76.25.14a11.46,11.46,0,0,1,.67,3.37,8.62,8.62,0,0,1,0,1.39,18.83,18.83,0,0,1-.24,1.93c-.09.65-.26,1.29-.35,1.82S60.7,42.6,60.7,42.6Z" transform="translate(3.12 1.7)"/><path class="a" d="M56.47,53l1-1c.26-.34.59-.74.92-1.19s.64-1,.91-1.52a25.11,25.11,0,0,0,1.94-4.92c.22-.72.27-.38.11.71-.1.55-.27,1.16-.42,1.72s-.4,1-.55,1.36A20.87,20.87,0,0,1,58.54,51a12.9,12.9,0,0,1-1.41,1.48Z" transform="translate(3.12 1.7)"/><path d="M56.35,53.09C53.52,56.1,47.27,59,39.9,59S26.27,56.1,23.45,53.09c-4.08-4.34-5.07-12.69-3.76-18.22.08-.35.17-.68.27-1,2.2-6.14,9.57-7.8,15.34-8.5l1.21-.14C37.7,25.1,38.85,25,39.9,25c6.28,0,16.1,2.16,18.81,6.31C61.71,36,61.44,47.67,56.35,53.09Z" transform="translate(3.12 1.7)"/><path class="a" d="M58.25,50.93a21.52,21.52,0,0,0,2.41-7.6,24.85,24.85,0,0,0-.21-8,11.86,11.86,0,0,0-1.35-3.79,8.3,8.3,0,0,0-2.9-2.81A18.75,18.75,0,0,0,52.58,27a30.07,30.07,0,0,0-3.83-1.14,40.39,40.39,0,0,0-7.89-1.08l-1,0-1,.05-2,.11c-1.33.1-2.64.28-4,.49a26.11,26.11,0,0,0-7.64,2.34,11.09,11.09,0,0,0-5.47,5.77,20.81,20.81,0,0,0-.92,7A25.33,25.33,0,0,0,20,47.58a17.35,17.35,0,0,0,1.46,3.34,12.08,12.08,0,0,0,2.27,2.91,19.2,19.2,0,0,0,6.31,3.68,27.85,27.85,0,0,0,14.14,1.3,26.27,26.27,0,0,0,6.58-2,17.09,17.09,0,0,0,5.36-3.72c.18-.2.05-.12-.14.07a18.33,18.33,0,0,1-6.4,3.89,27.68,27.68,0,0,1-7.36,1.66A27.19,27.19,0,0,1,27.58,56a16.61,16.61,0,0,1-3.14-2.08A11.69,11.69,0,0,1,22,51a19.63,19.63,0,0,1-2.43-7.11,24.82,24.82,0,0,1-.05-7.55,11.44,11.44,0,0,1,1.07-3.6A9.85,9.85,0,0,1,23,29.83a17.34,17.34,0,0,1,7.33-3.41,38.94,38.94,0,0,1,4-.74c.68-.09,1.36-.18,2-.25s1.36-.07,2-.11a33.2,33.2,0,0,1,8.14.58,32.83,32.83,0,0,1,7.79,2.38,12.33,12.33,0,0,1,3.44,2.32,8.17,8.17,0,0,1,1.89,3.63,22.34,22.34,0,0,1,.56,8.35,21.7,21.7,0,0,1-3.13,9.33c-.73,1-.87,1.32-.6,1.14A7.3,7.3,0,0,0,58.25,50.93Z" transform="translate(3.12 1.7)"/><path d="M59.7,59.67c.25,1.9-1.31,3-2.69,3.85L56.3,64c-.31.19-.64.37-1,.54-.58.38-1.31.59-2,.95l-1,.4A29.89,29.89,0,0,1,47,67.23q-.6.1-1.2.18a39.37,39.37,0,0,1-9.89.25l-1-.1a31.21,31.21,0,0,1-6-1.25l-1.15-.4-1-.43a17.14,17.14,0,0,1-6.17-3.81,2.46,2.46,0,0,1-.41-2.39c.2-.52.52-1,1.14-1a15.32,15.32,0,0,1,5,1.42l1,.39c1.3.52,2.6,1.05,3.94,1.48.37.12.74.22,1.12.32a23.66,23.66,0,0,0,13.1.5c.39-.06.78-.13,1.18-.22a31.31,31.31,0,0,0,5.28-1.63l1-.44c2.09-.36,4.89-3.79,6.58-1.25A2.33,2.33,0,0,1,59.7,59.67Z" transform="translate(3.12 1.7)"/><path class="a" d="M59.18,61.18c-.63,1.21-2,1.84-3.27,2.6l-1,.54a9.74,9.74,0,0,1-1,.43l-.52.22-.26.13-.23.08c-.34.13-.67.26-1,.38a30.14,30.14,0,0,1-4.21,1.17c-.71.13-1.44.21-2.17.31s-1.44.19-2.17.25A35.28,35.28,0,0,1,39,67.4c-1.4-.06-2.83-.13-4.21-.31a33.71,33.71,0,0,1-4.12-.81,25.71,25.71,0,0,1-4-1.33,20.18,20.18,0,0,1-3.7-1.9,12.3,12.3,0,0,1-1.6-1.28,6.2,6.2,0,0,1-.64-.67,1.49,1.49,0,0,1-.22-.71,3.14,3.14,0,0,1,.08-.9c0-.05,0,0,0,0l0-.1.1-.19a1.14,1.14,0,0,1,.2-.25c.14-.09.15-.09.59,0s.7.1,1,.17a17.65,17.65,0,0,1,2,.53c.32.11.65.24,1,.38l.53.23.5.2L30.73,62A39,39,0,0,0,35,63.11a25.06,25.06,0,0,0,4.41.43,24.29,24.29,0,0,0,4.42-.39c.71-.11,1.48-.32,2.13-.42s1.46-.28,2.17-.46A34.18,34.18,0,0,0,52.3,60.9l.51-.22.25-.1.18,0a5.69,5.69,0,0,0,1.12-.45c.68-.36,1.29-.76,1.9-1.09A3.47,3.47,0,0,1,58,58.47a1.06,1.06,0,0,1,.63.3c.11,0,.18.21.27.3s0,0,.07.11.05.12.07.19c.1.47.35.48.24-.07a.89.89,0,0,0-.18-.39c-.1-.11-.18-.27-.31-.34a1.38,1.38,0,0,0-.79-.34,4,4,0,0,0-1.87.59c-.62.33-1.24.71-1.91,1a4.72,4.72,0,0,1-1.07.4,6.36,6.36,0,0,0-1,.36A31.72,31.72,0,0,1,48,62c-.71.17-1.42.3-2.14.4s-1.42.26-2.13.37a25.24,25.24,0,0,1-4.34.27,24.18,24.18,0,0,1-4.33-.44,38.13,38.13,0,0,1-4.18-1.17l-4-1.59c-.68-.24-1.31-.61-2-.84a14.83,14.83,0,0,0-2.1-.59c-.35-.07-.71-.13-1.07-.18a3.21,3.21,0,0,0-.55-.05,1,1,0,0,0-.53.22,2.45,2.45,0,0,0-.67,2,2.12,2.12,0,0,0,.33,1,6.16,6.16,0,0,0,.75.78,13.43,13.43,0,0,0,1.67,1.34,20.2,20.2,0,0,0,3.77,2A25.2,25.2,0,0,0,30.55,67a32.71,32.71,0,0,0,4.18.9c1.43.19,2.87.22,4.3.29a36.72,36.72,0,0,0,4.45,0c.74,0,1.5-.13,2.22-.24s1.46-.17,2.19-.3a28.75,28.75,0,0,0,4.37-1.08c.36-.12.7-.27,1.06-.4s.66-.34,1-.47a11.11,11.11,0,0,0,1.05-.51c.3-.19.65-.38,1-.57.64-.4,1.25-.75,1.9-1.21a5.17,5.17,0,0,0,1.63-1.8,2.22,2.22,0,0,0,.22-1.45c-.08-.32-.19-.46-.28-.45S59.63,60.28,59.18,61.18Z" transform="translate(3.12 1.7)"/><path class="a" d="M50.51,94.91c0-.11.29-.15.67-.38A1.75,1.75,0,0,0,52.06,93c0-.56.1-1.19.15-1.84s.09-1.34.13-2.11.06-1.62.1-2.54.08-1.87.13-2.84.07-1.93,0-2.94,0-2.12-.09-3.23c0-.56-.07-1.12-.1-1.69s-.08-1.12-.15-1.69-.13-1.17-.2-1.77c0-.14,0-.33,0-.43a1.67,1.67,0,0,0-.08-.3,1.7,1.7,0,0,0-.34-.54,1.57,1.57,0,0,0-1.19-.5l-1.88,0c-.62,0-1.25,0-1.85,0l-1.89.06c-.66,0-1.28,0-2,.06l-2-.09c-1.31,0-2.64,0-4,0s-2.43,0-3.66,0-2.51-.17-3.53,0a2.72,2.72,0,0,0-1.34.5,3,3,0,0,0-1,1.07,6.82,6.82,0,0,0-.58,3.12c0,1.11.11,2.24.12,3.4,0,.28,0,.58,0,.87l-.06.82c0,.55,0,1.09-.05,1.62,0,1,0,2,.1,3.09,0,.54.05,1.08.07,1.63s.05,1,.07,1.51c0,1,.11,1.92.18,2.83.05.47.09.93.13,1.38a7.25,7.25,0,0,0,.14,1.25,1.77,1.77,0,0,0,1.3,1.24,5.33,5.33,0,0,0,.93.07h.92l3.5-.11c1.1,0,2,0,2.47.06l2.93.18.62,0,.68,0,1.33,0,4.5.23c2.5.14,4,.31,3.94.46s-1.5.27-4,.33c-1.27,0-2.79,0-4.53,0H39.9l-.8,0C38,96.08,37,96,36.05,96c-.47,0-1.1-.06-1.92-.06L30.69,96H29.51l-.64,0a2.82,2.82,0,0,1-2.56-2.39c-.07-.84-.12-1.56-.2-2.52S26,89.18,26,88.2c0-.48,0-1-.05-1.48s0-.92-.05-1.42c0-1-.09-2.07-.07-3.25l.06-1.68c0-.29,0-.58.07-.83s0-.54,0-.82c0-1.1-.09-2.23-.08-3.44a7.68,7.68,0,0,1,.65-3.44,3.75,3.75,0,0,1,1.14-1.36,3.33,3.33,0,0,1,1.63-.68,28.89,28.89,0,0,1,3.6,0c1.21,0,2.43,0,3.64,0s2.68,0,4,0l1,0,.49,0,.46,0c.63,0,1.25,0,1.9,0l2-.07c.69,0,1.38,0,2,0l1.92,0a2.3,2.3,0,0,1,1.63.58c.93.77.77,2.13,1,3.28.08.6.14,1.2.19,1.8l.12,1.73c.07,1.12.13,2.22.15,3.28s0,2.19,0,3.16-.07,1.87-.11,2.7-.06,1.66-.09,2.46-.09,1.57-.17,2.3-.15,1.31-.23,1.88A2.12,2.12,0,0,1,51.34,95C50.79,95.13,50.5,95,50.51,94.91Z" transform="translate(3.12 1.7)"/><g class="f"><rect class="a" x="43.02" y="79.65" width="6.37" height="0.4"/><path class="a" d="M46.13,77.57a10.9,10.9,0,0,0-3.42-.19l-2.81.12-.47,0,0,.43,0,.4,0,.45.39,0,.55,0a30,30,0,0,1,5.83-.24h.13l0-.16,0-.29c0-.12-.18-.15-.24-.06a2.31,2.31,0,0,0-.18.35l.24-.24c-1.62-.76-3.79-.13-5.45-.06l-.93,0,.27.27V78l-.26.26c2.06,0,4.13,0,6.18-.19C46.29,78,46.37,77.64,46.13,77.57Z" transform="translate(3.12 1.7)"/><path class="a" d="M45.77,71.63a20.89,20.89,0,0,0-3-.15l-1.49,0-2.06.09V72l.21,6.39,1,0,.59,0,2.76-.14,1.37-.07.73,0,.41,0h.09v-.31c0-.48-.06-1-.1-1.43L46.23,75c0-.91,0-1.83,0-2.77,0-.21-.19-.26-.24-.09a14.47,14.47,0,0,0-.35,5.12c0,.16,0,.1,0,.13l0,0s0,0,0,0l-1.34.09c-.9.06-1.76.12-2.56.14l-1.57,0c0-1.76-.06-3.52-.1-5.28l2.7-.12c1,0,1.95-.12,2.92-.2C46.08,72.05,46.2,71.68,45.77,71.63Z" transform="translate(3.12 1.7)"/></g><g class="f"><g class="f"><path class="a" d="M33.61,73.81v.48a2.08,2.08,0,0,1-2.11,1.92,1.84,1.84,0,0,1-1.92-1.79V74a1.84,1.84,0,0,0,1.92,1.8,2.09,2.09,0,0,0,2.11-1.93Z" transform="translate(3.12 1.7)"/><g class="g"><g class="f"><path class="a" d="M33.61,73.81v.48c0,.06,0,.13,0,.2v-.4c0-.07,0-.14,0-.2v-.08" transform="translate(3.12 1.7)"/><path class="a" d="M33.23,73.82c-.16,0-.22.08-.24.11s0,0,0,.12a.21.21,0,0,0,0,.11c0,.11.08.22.14.33l.85.06,0-.07c-.13-.28-.49-.45-.19-.66a.78.78,0,0,0-.24,0c-1,.17-.31.41-.25.55a.29.29,0,0,1,0,.09l.54,0c0-.11,0-.22,0-.33a.61.61,0,0,0-.14-.33A1.32,1.32,0,0,0,33.23,73.82Z" transform="translate(3.12 1.7)"/><path class="a" d="M33.59,74.09v.4a1.77,1.77,0,0,1-.08.31v-.4a1.57,1.57,0,0,0,.08-.31" transform="translate(3.12 1.7)"/><path class="a" d="M33.21,74c-.17,0-.23,0-.26.09s0,0,0,0v.11a.37.37,0,0,0,0,.18,1.35,1.35,0,0,0,.14.35l1.33,2.36-.5-2.23,0-.07a2.43,2.43,0,0,0-.19-.43.22.22,0,0,1,.06-.33.78.78,0,0,0-.24,0c-.52.09-.6.2-.54.31s.24.12.26.23,0,.06,0,.09l.52.08c0-.11,0-.24,0-.34a1,1,0,0,0-.1-.34A1.33,1.33,0,0,0,33.21,74Z" transform="translate(3.12 1.7)"/><path class="a" d="M33.51,74.4v.4a2.17,2.17,0,0,1-.15.35v-.4a2.17,2.17,0,0,0,.15-.35" transform="translate(3.12 1.7)"/><path class="a" d="M33.15,74.3c-.17,0-.25,0-.28,0s0,.12-.06.17a.37.37,0,0,0,0,.18q0,.11,0,.18l0,.09a1.07,1.07,0,0,0,.07.19l.81,1.5V75.27a3.86,3.86,0,0,0-.1-.49c-.07-.15-.08-.24.07-.36s-.18,0-.24,0c-.52.07-.6.26-.54.27s.22.13.21.24a.38.38,0,0,1,0,.1l.51.13c0-.11,0-.29,0-.34a.94.94,0,0,0,0-.36A1.15,1.15,0,0,0,33.15,74.3Z" transform="translate(3.12 1.7)"/><path class="a" d="M33.36,74.75v.4a2.14,2.14,0,0,1-1.86,1.06,1.84,1.84,0,0,1-1.92-1.79V74a1.84,1.84,0,0,0,1.92,1.8,2.15,2.15,0,0,0,1.86-1.07" transform="translate(3.12 1.7)"/><path class="a" d="M33,74.65a2.57,2.57,0,0,1-2,.52A1.3,1.3,0,0,1,30,74h-.9l0,.43a2.1,2.1,0,0,0,.11.51,2.13,2.13,0,0,0,2.27,1.37,2.59,2.59,0,0,0,1.21-.43,2.43,2.43,0,0,0,.5-.41,2.47,2.47,0,0,0,.24-.29c0-.12,0-.26,0-.36s-.18-.12-.24,0-.21.31-.35.31l-.42.2a4.24,4.24,0,0,1-.84.31A1.49,1.49,0,0,1,30,75a1.87,1.87,0,0,1-.18-1h-.52A2.07,2.07,0,0,0,31,76a2.16,2.16,0,0,0,2.29-1.07C33.41,74.75,33.12,74.55,33,74.65Z" transform="translate(3.12 1.7)"/></g></g></g><path class="a" d="M31.56,71.59a2.09,2.09,0,0,0-1.79.57A2.47,2.47,0,0,0,29,74a2.29,2.29,0,0,0,1,1.87,2.41,2.41,0,0,0,2,.28,2.29,2.29,0,0,0,1.66-2.38,2.24,2.24,0,0,0-1.89-2c-.12,0-.15.17-.06.23A3.13,3.13,0,0,1,33,73.61a1.58,1.58,0,0,1-.07,1,1.56,1.56,0,0,1-.73.77,1.79,1.79,0,0,1-1.45,0,1.54,1.54,0,0,1-.9-1.1A2.05,2.05,0,0,1,31.54,72C31.72,72,31.82,71.64,31.56,71.59Z" transform="translate(3.12 1.7)"/></g><g class="f"><g class="f"><g class="h"><g class="f"><path class="a" d="M37.47,73.89v.4s0,.1,0,.15V74c0-.05,0-.1,0-.15" transform="translate(3.12 1.7)"/><path class="a" d="M37.09,73.89c-.16,0-.22,0-.24.14s0,.1,0,.15.08.17.14.26l2.2,2.92L37.88,74.5l0-.06c-.13-.25-.49-.36-.19-.54a.78.78,0,0,0-.24,0c-1,.13-.31.35-.25.45s0,0,0,.06l.53,0c0-.18,0-.35-.18-.54A2.16,2.16,0,0,0,37.09,73.89Z" transform="translate(3.12 1.7)"/><path class="a" d="M37.46,74v.4a1.33,1.33,0,0,1-.05.19v-.4a1.05,1.05,0,0,0,.05-.19" transform="translate(3.12 1.7)"/><path class="a" d="M37.08,74c-.31-.09-.3.29-.23.36a1.22,1.22,0,0,0,.14.28l1.26,1.8-.44-1.67,0-.07c-.06-.32-.46-.45-.15-.64H37.4c-.52.07-.6.16-.54.25s.26.08.28.18a.64.64,0,0,1,0,.07l.52.08a1.43,1.43,0,0,1,0-.29,1.52,1.52,0,0,0-.13-.27A1.73,1.73,0,0,0,37.08,74Z" transform="translate(3.12 1.7)"/><path class="a" d="M37.41,74.23v.4a1,1,0,0,1-.09.21v-.4a1,1,0,0,0,.09-.21" transform="translate(3.12 1.7)"/><path class="a" d="M37.05,74.12c-.28-.12-.4.22-.3.4a1.92,1.92,0,0,0,.14.32l.86,1.38-.06-1.17V75a.69.69,0,0,0-.15-.44c-.07-.1-.08-.19.07-.29h-.24c-.52.07-.6.16-.54.26s.25.07.26.13a.08.08,0,0,1,0,.07l.51.14c0-.1,0-.22,0-.3l-.08-.27A1.69,1.69,0,0,0,37.05,74.12Z" transform="translate(3.12 1.7)"/><path class="a" d="M37.32,74.44v.4a1.29,1.29,0,0,1-1.12.64A1.19,1.19,0,0,1,35,74.32v-.4a1.19,1.19,0,0,0,1.22,1.16,1.29,1.29,0,0,0,1.12-.64" transform="translate(3.12 1.7)"/><path class="a" d="M37,74.3a3.85,3.85,0,0,1-.57.14,1.15,1.15,0,0,1-.49,0,.65.65,0,0,1-.45-.52h-.93l0,.34a1.54,1.54,0,0,0,.1.44,1.45,1.45,0,0,0,1.61.88,1.73,1.73,0,0,0,.79-.33,2.45,2.45,0,0,0,.33-.32c.1-.12.07-.32.12-.44s-.18-.08-.24,0a.52.52,0,0,1-.53.25l-.42.15a.78.78,0,0,1-1-.2.81.81,0,0,1-.1-.31c0-.13,0-.29,0-.43h-.51a1.4,1.4,0,0,0,1.11,1.33,1.31,1.31,0,0,0,1.48-.69C37.37,74.44,37.06,74.26,37,74.3Z" transform="translate(3.12 1.7)"/></g></g></g></g><path class="a" d="M36.26,72.7a1.18,1.18,0,0,1,1.21,1.19,1.25,1.25,0,0,1-1.27,1.19A1.17,1.17,0,0,1,35,73.89,1.26,1.26,0,0,1,36.26,72.7Z" transform="translate(3.12 1.7)"/><path class="a" d="M36.15,72.32a1.29,1.29,0,0,0-1.26.36A1.61,1.61,0,0,0,34.42,74a1.67,1.67,0,0,0,.79,1.27,1.65,1.65,0,0,0,1.38.15,1.47,1.47,0,0,0,1-1.64,1.66,1.66,0,0,0-1.25-1.27c-.08,0-.09.18,0,.24a5.4,5.4,0,0,1,.57,1,.85.85,0,0,1,.07.49.72.72,0,0,1-.34.46.94.94,0,0,1-1.34-.57,1.18,1.18,0,0,1,.9-1.36C36.25,72.74,36.33,72.38,36.15,72.32Z" transform="translate(3.12 1.7)"/><rect class="a" x="49.4" y="79.65" width="2.48" height="0.4"/><path class="a" d="M48.7,77.57a2.08,2.08,0,0,0-1.46-.18l-1,.09-.53,0,0,.42c0,.13,0,.26.05.4l.06.48.37,0,.23,0a6.73,6.73,0,0,1,2.25-.29h.08l0-.11A2.25,2.25,0,0,1,49,78s-.18-.06-.24,0a1.42,1.42,0,0,0-.39.38l.44-.44c-.65-.43-1.46.08-2.09.14l-.39,0,.27.27c0-.13,0-.27,0-.4l-.25.26a11.43,11.43,0,0,0,2.4-.19C48.77,78,48.8,77.64,48.7,77.57Z" transform="translate(3.12 1.7)"/><path class="a" d="M48.56,75.24a3.4,3.4,0,0,0-1.2-.23H45.63a.66.66,0,0,0,0,.14c0,.4,0,.79.07,1.18l.06.67c0,.29.05.59.07.9l0,.28v.13c0,.05.09,0,.12,0l.57,0a5.51,5.51,0,0,0,.68-.07l.54-.07.59-.07.33,0c.08,0,.25,0,.19-.13a11.4,11.4,0,0,1-.09-1.18,6.82,6.82,0,0,1,.06-1.1c0-.09-.18-.1-.24,0a2.12,2.12,0,0,0-.44,1,1.86,1.86,0,0,0,0,.71s0,.05,0,.07,0,.06-.21.09a9.76,9.76,0,0,1-1,.14l-.41,0a3.46,3.46,0,0,1,0-.39l0-1.22v-.21a1.11,1.11,0,0,1,.19,0l.56,0c.44,0,.88-.07,1.32-.13C48.68,75.67,48.73,75.31,48.56,75.24Z" transform="translate(3.12 1.7)"/><rect class="a" x="51.88" y="79.65" width="1.41" height="0.4"/><path class="a" d="M50.13,77.57a.88.88,0,0,0-.91-.18l-.46.06-.56.09.06.41c0,.13.05.27.08.4l.11.5.31-.08.15,0a4,4,0,0,1,1.26-.32h.07v-.08a1.11,1.11,0,0,1,.11-.37s-.18,0-.24,0a1,1,0,0,0-.5.38l.56-.55c-.38-.21-.81.19-1.16.25l-.25,0,.27.27,0-.4-.25.25A3.75,3.75,0,0,0,50.12,78,.63.63,0,0,0,50.13,77.57Z" transform="translate(3.12 1.7)"/><path class="a" d="M50,75.24a2.22,2.22,0,0,0-.47-.17l-.26,0-.47,0h-.71c-.07,0,0,.14,0,.2,0,.31.05.63.07,1l.12,1.08c0,.26,0,.53.08.8l0,.21c0,.07,0,.16.1.12l.45,0,.46,0,.32,0,.71-.09c0-.27-.08-.52-.12-.76s0-.39-.07-.58a4.06,4.06,0,0,1,.06-1.15c0-.07-.19-.07-.24,0a1.55,1.55,0,0,0-.5,1.13,2.38,2.38,0,0,0,.05.56.28.28,0,0,1,.12.15c0,.07-.08.14-.37.16a1.36,1.36,0,0,1-.29,0c0-.08,0-.18,0-.28l-.05-1,0-.38,0-.17a.36.36,0,0,1,.15,0c.18,0,.57-.07.91-.13C50.07,75.67,50.11,75.31,50,75.24Z" transform="translate(3.12 1.7)"/><path class="a" d="M49.63,71.62a8.19,8.19,0,0,0-1.78-.23c-.3,0-.6,0-.9,0l-1.5,0,0,.35c.14,2.19.17,2.13.33,4.3l1.06,0,1.61-.13.8-.07.93-.06C50.1,75,50,74.5,50,73.9a17.8,17.8,0,0,1,0-1.79c0-.14-.19-.16-.24,0a4.3,4.3,0,0,0-.39,1.75,5.83,5.83,0,0,0,0,.93c0,.45,0,.25.07.35s0,0-.11.07l-.71.08c-.47.05-.92.1-1.35.11l-.82,0c-.05-1.06-.11-2.11-.17-3.16l1.52,0c.59,0,1.18-.07,1.76-.12C49.81,72.05,49.9,71.69,49.63,71.62Z" transform="translate(3.12 1.7)"/><path class="a" d="M53.31,46.54,53.76,48a.65.65,0,0,0,.26.26l1.47.45L54,49.18a.65.65,0,0,0-.26.26l-.45,1.47-.45-1.47a.65.65,0,0,0-.26-.26l-1.48-.45,1.48-.45a.65.65,0,0,0,.26-.26Z" transform="translate(3.12 1.7)"/><path class="a" d="M53.29,47.25l.23.75a.77.77,0,0,0,.31.42.58.58,0,0,0,.14.08l.1,0,.19.06.48.15h0l-.37.11L54,49a.77.77,0,0,0-.4.35c-.12.32-.16.52-.25.79l0,.12-.07-.2-.12-.41-.07-.21a.65.65,0,0,0-.17-.26.72.72,0,0,0-.25-.16l-.21-.06L52,48.8l-.26-.07.21-.07.39-.12a1.68,1.68,0,0,0,.44-.17.81.81,0,0,0,.18-.19A.46.46,0,0,0,53,48l0-.1.11-.39.24-.79c.07-.22,0-.25-.11,0l-.24.78c-.11.24-.11.57-.37.74a16.34,16.34,0,0,1-1.62.48l.86.29.41.14a.69.69,0,0,1,.35.18.4.4,0,0,1,.09.15l.06.21.11.42.35,1.25c.21-.62.41-1.25.62-1.86a.33.33,0,0,1,.18-.16l.38-.11,1.12-.32.37-.11c.08,0,.38-.08.14-.12l-.73-.22-1-.31c-.1,0-.31-.08-.3-.1s-.13-.09-.15-.19l-.24-.74C53.41,46.3,53,46.38,53.29,47.25Z" transform="translate(3.12 1.7)"/><path class="a" d="M47.08,46.54l.28.89a.39.39,0,0,0,.15.16l.89.27-.89.27a.39.39,0,0,0-.15.16l-.28.89-.27-.89a.39.39,0,0,0-.15-.16l-.89-.27.89-.27a.39.39,0,0,0,.15-.16Z" transform="translate(3.12 1.7)"/><path class="a" d="M47,47l.12.4c0,.13.3.44.38.41l.18,0-.11,0-.05,0h0a.51.51,0,0,0-.18.12.57.57,0,0,0-.12.19l0,0,0,.06,0,.15,0-.14,0-.07,0,0a.63.63,0,0,0-.12-.18A.43.43,0,0,0,46.7,48l-.05,0-.08,0-.17,0,.15,0,.08,0s0,0,.18-.09l.13-.13a.4.4,0,0,0,.06-.16l.08-.24.14-.47c0-.14-.07-.17-.11,0l-.15.47c-.07.14-.07.35-.23.46s-.6.16-1,.27l.47.18.28.1.14,0a.21.21,0,0,1,.08.06,3.21,3.21,0,0,1,.18.6l.2.79c.09-.24.17-.47.25-.7l.13-.39.06-.18,0,0,0,0,.2-.06.45-.12.91-.27-1.44-.44c-.18-.05-.08,0-.14-.05s0,0,0-.1-.1-.26-.14-.39C47.21,46.38,46.83,46.47,47,47Z" transform="translate(3.12 1.7)"/><path class="a" d="M50.7,43l.17.55a.28.28,0,0,0,.09.1l.55.16L51,44a.22.22,0,0,0-.09.1l-.17.55-.17-.55a.22.22,0,0,0-.09-.1l-.55-.17.55-.16a.28.28,0,0,0,.09-.1Z" transform="translate(3.12 1.7)"/><path class="a" d="M50.56,43.32l.11.35a1.21,1.21,0,0,0,.2.19l.58.18v-.41l-.58.18a1.7,1.7,0,0,0-.19.19l-.17.59h.38L50.71,44a1.07,1.07,0,0,0-.19-.18l-.58-.17V44l.58-.18.17-.18.15-.52c0-.08-.07-.11-.1,0l-.17.49-.12.1-.57.13h0l.53.22a.18.18,0,0,0,.05.07c0,.19.08.37.11.56l.09.42.17-.42.2-.51h0a5,5,0,0,0,.53-.13l.68-.19-.68-.23-.52-.15h0L51,43.2C50.84,42.9,50.46,43,50.56,43.32Z" transform="translate(3.12 1.7)"/><path class="a" d="M26.77,39.45l-1.48.45a.63.63,0,0,0-.25.26l-.45,1.48-.45-1.48a.65.65,0,0,0-.26-.26l-1.48-.45L23.88,39a.65.65,0,0,0,.26-.26l.45-1.48L25,38.75a.63.63,0,0,0,.25.26Z" transform="translate(3.12 1.7)"/><path class="a" d="M26.06,39.44l-.66.2-.19.06a.86.86,0,0,0-.2.15.65.65,0,0,0-.15.18c-.06.13-.05.15-.08.21l-.19.64v0h0l0-.15-.13-.41-.07-.21a.65.65,0,0,0-.17-.26.59.59,0,0,0-.26-.17l-.21-.06-.41-.13-.21-.06.21-.06.41-.13.2-.06a.69.69,0,0,0,.26-.17.65.65,0,0,0,.17-.26l.06-.2.12-.42.08-.25.06.21.12.39a1.32,1.32,0,0,0,.18.43.66.66,0,0,0,.19.18.37.37,0,0,0,.14.07l.09,0,.4.12.78.24c.23.06.26,0,0-.11l-.78-.25c-.23-.1-.56-.1-.74-.36-.21-.54-.29-1-.47-1.62l-.29.85-.14.41c-.06.15-.08.27-.18.35a.56.56,0,0,1-.15.1l-.21.05-.42.11-1.26.35,1.24.41.41.14.21.07a.41.41,0,0,1,.1.08s.07.09.06.1l.06.21.12.41.45,1.51c.2-.67.41-1.34.61-2,0,0,0-.15,0-.12a.28.28,0,0,1,.07-.09c.06-.07.07-.06.21-.11l.67-.22C27,39.56,26.94,39.17,26.06,39.44Z" transform="translate(3.12 1.7)"/><path class="a" d="M26.77,33.23l-.89.27a.41.41,0,0,0-.16.16l-.27.89-.27-.89A.39.39,0,0,0,25,33.5l-.89-.27L25,33a.39.39,0,0,0,.15-.16l.27-.89.27.89a.41.41,0,0,0,.16.16Z" transform="translate(3.12 1.7)"/><path class="a" d="M26.32,33.14l-.4.12c-.14,0-.44.3-.41.37l-.06.19,0-.11,0-.06,0,0a.57.57,0,0,0-.12-.19.51.51,0,0,0-.18-.12h0l-.07,0-.14,0,.13,0,.07,0h.05a.51.51,0,0,0,.18-.12.63.63,0,0,0,.12-.18V32.8l0-.08,0-.18.05.15,0,.08a.4.4,0,0,0,.09.19.37.37,0,0,0,.13.12.4.4,0,0,0,.16.07l.24.07.47.14c.14,0,.17-.06,0-.1l-.47-.16c-.14-.06-.34-.06-.45-.23s-.16-.6-.28-1c-.05.16-.11.32-.17.48l-.1.27-.05.14a.24.24,0,0,1-.06.08,3,3,0,0,1-.6.18l-.79.21.69.24.39.13.19.07,0,0,0,0,0,.2.13.44c.09.31.18.61.26.91.15-.48.3-.95.44-1.44.06-.17,0-.07.06-.13s0,0,.09,0l.4-.14C26.94,33.36,26.85,33,26.32,33.14Z" transform="translate(3.12 1.7)"/><path class="a" d="M30.3,36.85l-.55.16a.32.32,0,0,0-.1.1l-.17.55-.16-.55-.1-.1-.55-.16.55-.17a.32.32,0,0,0,.1-.1l.16-.55.17.55a.24.24,0,0,0,.1.1Z" transform="translate(3.12 1.7)"/><path class="a" d="M30,36.71l-.34.1a1.89,1.89,0,0,0-.2.2l-.17.59h.41L29.5,37a.86.86,0,0,0-.19-.19l-.58-.17V37l.58-.19.18-.18.17-.58h-.35l.18.57a1,1,0,0,0,.18.18l.51.15c.09,0,.12-.08,0-.11l-.49-.16-.11-.12c0-.18-.08-.37-.13-.57v0l0,0-.21.52-.08.06-.55.11-.43.08.43.17.51.21v0c0,.12.09.35.14.52l.18.68.23-.68c.06-.16.13-.4.16-.51h0l.27-.11C30.42,37,30.32,36.61,30,36.71Z" transform="translate(3.12 1.7)"/></g><path class="a" d="M113,28.77V40.41a8.67,8.67,0,0,1-2.56,6.34,8.5,8.5,0,0,1-6.23,2.56h-3.67a1.16,1.16,0,0,0-1.12,1.12v8.12a1.05,1.05,0,0,1-1.06,1.06h-2a1.09,1.09,0,0,1-1.06-1.06V20.93a1.05,1.05,0,0,1,1.06-1.06h7.85a8.47,8.47,0,0,1,6.51,2.5A9,9,0,0,1,113,28.77Zm-3.89.12a4.5,4.5,0,0,0-1.34-3.4,4.33,4.33,0,0,0-3.39-1.39h-3.84a1.12,1.12,0,0,0-1.12,1.11v19a1.12,1.12,0,0,0,1.12,1.12h3.84a4.7,4.7,0,0,0,3.34-1.4,4.79,4.79,0,0,0,1.39-3.39Z" transform="translate(3.12 1.7)"/><path class="a" d="M133.08,20.93v2A1.09,1.09,0,0,1,132,24h-9.57a1.15,1.15,0,0,0-1.06,1.11v17a1.15,1.15,0,0,0,1.06,1.12h6.4a1.06,1.06,0,0,1,1.11,1v2a1.11,1.11,0,0,1-1.11,1.06h-6.4a1.1,1.1,0,0,0-1.06,1.11v5.9a1.1,1.1,0,0,0,1.06,1.11H132a1.06,1.06,0,0,1,1.06,1.06v2A1.09,1.09,0,0,1,132,59.61H118.33a1.09,1.09,0,0,1-1.06-1.06V20.93a1.05,1.05,0,0,1,1.06-1.06H132A1.05,1.05,0,0,1,133.08,20.93Z" transform="translate(3.12 1.7)"/><path class="a" d="M154.68,59.61h-2.34a1,1,0,0,1-1-.78l-3.45-8.68a1.21,1.21,0,0,0-1.06-.84h-4.29a1.16,1.16,0,0,0-1.11,1.12v8.12a1.06,1.06,0,0,1-1.06,1.06h-2a1.1,1.1,0,0,1-1.11-1.06V20.93a1.07,1.07,0,0,1,1.11-1.06h7.8c3.17,0,5.51.83,6.95,2.5a9.85,9.85,0,0,1,1.9,6.4V40.41a8.58,8.58,0,0,1-3,6.68,1.35,1.35,0,0,0-.39,1.11l4.06,10.13v.22A1.09,1.09,0,0,1,154.68,59.61Zm-3.57-30.72c0-3.06-1.72-4.79-4.73-4.79h-3.84a1.11,1.11,0,0,0-1.11,1.11v19a1.12,1.12,0,0,0,1.11,1.12h3.84a4.58,4.58,0,0,0,3.34-1.4,4.79,4.79,0,0,0,1.39-3.39Z" transform="translate(3.12 1.7)"/><path class="a" d="M175.77,20.93v2A1.09,1.09,0,0,1,174.71,24h-9.57a1.15,1.15,0,0,0-1.06,1.11v17a1.15,1.15,0,0,0,1.06,1.12h6.4a1.07,1.07,0,0,1,1.12,1v2a1.12,1.12,0,0,1-1.12,1.06h-6.4a1.1,1.1,0,0,0-1.06,1.11v5.9a1.1,1.1,0,0,0,1.06,1.11h9.57a1.06,1.06,0,0,1,1.06,1.06v2a1.09,1.09,0,0,1-1.06,1.06H161A1.1,1.1,0,0,1,160,58.55V20.93A1.06,1.06,0,0,1,161,19.87h13.69A1.05,1.05,0,0,1,175.77,20.93Z" transform="translate(3.12 1.7)"/><path class="a" d="M197.81,28.27v8.19a1,1,0,0,1-1.05,1h-2.23a1.09,1.09,0,0,1-1.06-1v-8.3a4.66,4.66,0,0,0-4.78-4.73A4.66,4.66,0,0,0,184,28.16v23a4.73,4.73,0,0,0,1.34,3.34,4.5,4.5,0,0,0,3.34,1.39,4.75,4.75,0,0,0,3.39-1.33,5,5,0,0,0,1.39-3.34V48.42a1.1,1.1,0,0,0-1.11-1.05H191A1.15,1.15,0,0,1,190,46.25v-2A1.06,1.06,0,0,1,191,43.19h5.74a1,1,0,0,1,1.05,1.06v7a8.93,8.93,0,0,1-8.9,8.91A9,9,0,0,1,180,51.26v-23A8.34,8.34,0,0,1,182.62,22a8.88,8.88,0,0,1,12.58,0A8.34,8.34,0,0,1,197.81,28.27Z" transform="translate(3.12 1.7)"/><path class="a" d="M219.41,59.61h-2.34a1,1,0,0,1-1-.78l-3.45-8.68a1.19,1.19,0,0,0-1.06-.84h-4.28a1.16,1.16,0,0,0-1.12,1.12v8.12a1.05,1.05,0,0,1-1,1.06h-2A1.11,1.11,0,0,1,202,58.55V20.93a1.07,1.07,0,0,1,1.12-1.06H211c3.17,0,5.51.83,7,2.5a9.9,9.9,0,0,1,1.89,6.4V40.41a8.55,8.55,0,0,1-3,6.68,1.35,1.35,0,0,0-.39,1.11l4.07,10.13v.22A1.09,1.09,0,0,1,219.41,59.61Zm-3.56-30.72c0-3.06-1.73-4.79-4.73-4.79h-3.84a1.12,1.12,0,0,0-1.12,1.11v19a1.12,1.12,0,0,0,1.12,1.12h3.84a4.6,4.6,0,0,0,3.34-1.4,4.79,4.79,0,0,0,1.39-3.39Z" transform="translate(3.12 1.7)"/><path class="a" d="M228.82,20.93V58.55a1.06,1.06,0,0,1-1.06,1.06h-2a1.09,1.09,0,0,1-1.06-1.06V20.93a1.05,1.05,0,0,1,1.06-1.06h2A1,1,0,0,1,228.82,20.93Z" transform="translate(3.12 1.7)"/><path class="a" d="M252.64,20.93V58.55a1.06,1.06,0,0,1-1.06,1.06h-3.06a1.14,1.14,0,0,1-1-.72l-9.69-28.06a.34.34,0,0,0-.33-.27h-.06a.41.41,0,0,0-.27.39v27.6a1.08,1.08,0,0,1-1.12,1.06h-2a1.09,1.09,0,0,1-1-1.06V20.93a1.05,1.05,0,0,1,1-1.06h3.34a1,1,0,0,1,1,.78l9.46,28.72c.05.17.16.28.28.28h.05a.36.36,0,0,0,.28-.34V20.93a1.07,1.07,0,0,1,1.11-1.06h2A1,1,0,0,1,252.64,20.93Z" transform="translate(3.12 1.7)"/></svg>