<svg xmlns="http://www.w3.org/2000/svg" viewBox="0 -30 540 517" x="0px" y="0px">
    <title>aquarius icon - Created by monkik from the Noun Project</title>
    <metadata>        <?xpacket begin="&#65279;" id="W5M0MpCehiHzreSzNTczkc9d"?>
        <x:xmpmeta xmlns:x="adobe:ns:meta/" x:xmptk="Adobe XMP Core 5.6-c145 79.162955, 2018/05/10-01:07:16        "/>
        <?xpacket end="w"?></metadata>
    <g>
        <path d="M80,216a8,8,0,1,1-8,8A8.009,8.009,0,0,1,80,216ZM370.536,40.907c-.976-2.928-1.915-5.858-3.045-8.731-.333-.837-15.148,1.023-17.062,1.26-.148.505.083.834.274,1.382ZM232,136a63.964,63.964,0,0,1-4.425,23.4c4.212.274,8.453.462,12.721.537L251,109.355A44.78,44.78,0,0,1,295.27,72H308a36,36,0,0,1,36,36v2.111l7.155,14.311a8,8,0,0,1-1.5,9.235L344,139.314v3.54c7.759-2.737,15.383-5.78,22.816-9.115L334.068,35.51a304.324,304.324,0,0,0-38.891,8.715,296.593,296.593,0,0,0-56.219,22.967,270.359,270.359,0,0,0-30.631,19.113A63.919,63.919,0,0,1,232,136Zm-86.12-23.092C152.894,107,160.338,104,168,104a32.036,32.036,0,0,1,32,32c0,12.031-5.944,24.009-14.171,40.588-.777,1.565-1.585,3.194-2.413,4.873,1.288-.437,2.562-.921,3.814-1.469a47.982,47.982,0,0,0,21.111-17.975c.061-.093.123-.185.187-.276A48,48,0,1,0,120,136a48.874,48.874,0,0,0,.323,5.564C129.714,129.008,138.553,119.07,145.88,112.908Zm64.078,91.115a38.559,38.559,0,0,1,26.629-26.559l.337-1.593c-6.059-.173-12.069-.555-18-1.105a63.848,63.848,0,0,1-18.72,16.548l7.208,21.622Zm-35.126-4.4c-1.273,2.856-2.492,5.692-3.679,8.548l13.016,39.05A24.552,24.552,0,0,0,207.45,264a24.643,24.643,0,0,0,23.6-17.8l8.662-30.31A37.379,37.379,0,0,1,252.837,192s-7.587.059-8.482.174a22.6,22.6,0,0,0-19.014,16.246L215.692,242.2a8,8,0,0,1-7.518,5.8c-.058,0-.117,0-.175,0a8,8,0,0,1-7.588-5.47l-14.982-44.944A63.586,63.586,0,0,1,174.832,199.622ZM384.211,99.14l-13.587-4.568,5.362,16.083ZM368.779,57.105l-11.86-3.641,4.241,12.721Zm-3.243,94.679c-3.951,1.643-45.616,14.532-45.616,15.015l.081,9.192,55.742.033a5.63,5.63,0,0,0,6.1-3.167c8.01-12.023,26.751-40.356,26.246-42.7-9.207,5.22-18.5,10.371-28.009,15.024C375.308,147.515,370.472,149.73,365.536,151.784Zm-43.4-57.932q-.723-.72-1.506-1.359l-16.87,22.491-3.445,37.939A60.235,60.235,0,0,1,293.4,176H304V152a8,8,0,0,1,8-8h16v-8a8,8,0,0,1,2.343-5.657l3.923-3.923-5.421-10.842A7.994,7.994,0,0,1,328,112v-4A19.9,19.9,0,0,0,322.138,93.852Zm57.7-25.035L372,78.156l12.33,4.145ZM424,124v12a7.993,7.993,0,0,1-1.344,4.438l-32,48A8,8,0,0,1,384,192H294a100.3,100.3,0,0,0,30.571,28.973l4.275-8.551a8,8,0,0,1,8.037-4.373c16.951,1.882,34.7,2.7,51.729,1.388,4.672-.359,16.959-.413,20.273-5.084,19.472-38.954,27.8-64.083,31.355-78.293A7.989,7.989,0,0,1,441.6,123.2l21.08-28.1a1.31,1.31,0,0,0,.187-1.2l-4.337-13.012A1.338,1.338,0,0,0,457.3,80a1.3,1.3,0,0,0-1.3,1.3V88a8,8,0,0,1-3.2,6.4s-22.371,16.78-22.4,16.8C427,113.5,424,118.75,424,124ZM404.611,92.536l.007.027,5.644,16.936q.982-.672,1.957-1.355A32.052,32.052,0,0,1,420.8,98.4L440,84V81.3a17.33,17.33,0,0,1,12.112-16.5l-8.5-26.476-29.467-3.983a264.509,264.509,0,0,0-29.693-2.27L404.6,92.5C404.6,92.514,404.607,92.524,404.611,92.536Zm-18.75,31.821c1.44-.776,10.19-5.783,10.5-5.968l-1.984-5.953Zm-119.11-12.19c-.019.113-.041.227-.064.339L253.251,176h20.937a44.375,44.375,0,0,0,10.194-24.52l3.651-40.2A7.99,7.99,0,0,1,289.6,107.2L304,88H295.27A28.83,28.83,0,0,0,266.751,112.167Zm-3.7,317.469a103.392,103.392,0,0,1-7.012-34.84L224.675,426a32.072,32.072,0,0,0,23.395,54h56.567a104.822,104.822,0,0,1-24.952-22l-24.349-2.028a8,8,0,0,1-4.993-13.629ZM256,360H216v52.06l40-39.8ZM48,416V376c0-46.485,15.934-94.3,30.362-128.062C93.75,249.75,104,237.234,104,224a23.909,23.909,0,0,0-6.35-16.242,486.324,486.324,0,0,1,26.206-43.58c11.949-17.574,23.73-31.8,32.328-39.03C160.3,121.684,164.161,120,168,120a16.019,16.019,0,0,1,16,16c0,8.279-5.245,18.848-12.5,33.475-3.152,6.352-14.07,29.922-16.288,35.386C136.9,249.96,128,300.707,128,360v56a8,8,0,1,1-16,0v-8H96v8a8,8,0,1,1-16,0,8,8,0,0,0-16,0,8,8,0,0,1-16,0Zm73.261-213.477,15.018,5.52a132.789,132.789,0,0,1,6.734-15.86L129,184.467A142.733,142.733,0,0,0,121.261,202.523ZM102.979,274.81l15.774,2.674a442.2,442.2,0,0,1,12.613-54.753l-15.3-4.674A457.885,457.885,0,0,0,102.979,274.81ZM94.584,350.6l15.972.95c1.2-20.185,3.113-39.66,5.687-57.885L100.4,291.427C97.767,310.077,95.81,329.985,94.584,350.6Zm-1.356,33.732,16,.348c.1-4.474.228-8.967.387-13.353l-15.989-.582C93.459,375.208,93.327,379.779,93.228,384.331ZM61,392.068l16-.136c-.3-34.611,8.1-77.62,8.183-78.051l-15.7-3.1C69.125,312.606,60.691,355.8,61,392.068Zm118.579,71.087-26.53,13.27A1.9,1.9,0,0,0,153.89,480H200V352a8,8,0,0,1,8-8h48V312H201.04A25.068,25.068,0,0,0,176,337.04v14.719c.312,4.575,5.838,76.03,7.976,103.623A8,8,0,0,1,179.579,463.155ZM464,472a8.009,8.009,0,0,1-8,8H360a88.1,88.1,0,0,1-88-88V248a8,8,0,0,0-4.422-7.155,22.1,22.1,0,0,1-1.83-38.5l11.321-7.075a116.332,116.332,0,0,0,41.813,40.924L315.038,253.6a22.042,22.042,0,0,0,5.5,22.245,93.745,93.745,0,0,1,23.224,38.574l21.118,68.635A23.881,23.881,0,0,0,387.817,400H392a8.009,8.009,0,0,1,8,8,23.885,23.885,0,0,0,1.376,8H384v16h40a8.009,8.009,0,0,1,8,8,23.885,23.885,0,0,0,1.376,8H416v16h40A8.009,8.009,0,0,1,464,472ZM311.284,318.155l-13.85,8.011a308.1,308.1,0,0,0,48.909,63.491l11.314-11.314A292.043,292.043,0,0,1,311.284,318.155ZM280.411,290.53a172.614,172.614,0,0,0,8.411,19.55l14.356-7.063a161.606,161.606,0,0,1-7.592-17.556ZM323.159,425.9l12.255-10.287c-19.887-23.691-31.985-50.6-32.1-50.868L296,368l-7.311,3.249C289.213,372.428,301.772,400.425,323.159,425.9Zm55.371,22.508c-11.35-3.784-22.886-11.548-34.288-23.078l-11.377,11.251c13.186,13.333,26.848,22.42,40.605,27ZM64,176H80V160H64Zm0-64H48v16H64Zm0,352H48v16H64Zm16,32H96V480H80Z"/>
    </g>
</svg>