<svg xmlns="http://www.w3.org/2000/svg" viewBox="0 0 500 479" x="0px" y="0px">
    <title>aries icon - Created by monkik from the Noun Project</title>
    <metadata>        <?xpacket begin="&#65279;" id="W5M0MpCehiHzreSzNTczkc9d"?>
        <x:xmpmeta xmlns:x="adobe:ns:meta/" x:xmptk="Adobe XMP Core 5.6-c145 79.162955, 2018/05/10-01:07:16        "/>
        <?xpacket end="w"?></metadata>
    <g>
        <path d="M144,96H120V84c0-1.343.066-2.675.166-4H136V64H123.972a52,52,0,0,1,11.252-16.771c.8-.8,1.631-1.56,2.474-2.3l7.112,14.579,4.7-2.291A67.619,67.619,0,0,0,144,84Zm78.9,24.318,1-2.007A77.114,77.114,0,0,0,232,84a12,12,0,0,0-24,0V96h8a8,8,0,0,1,8,8v8A31.93,31.93,0,0,1,222.9,120.318ZM168,32.215v-.049a51.673,51.673,0,0,0-16.714,4.123l4.579,9.387A68.569,68.569,0,0,1,168,32.215ZM176,64V80H160.169c-.1,1.322-.169,16-.169,16h32V84a28,28,0,0,1,56,0,93.263,93.263,0,0,1-6.606,34.359l1.984-.992A37.1,37.1,0,0,0,264,84a51.712,51.712,0,0,0-10.032-30.654l-8.311,8.311L234.343,50.343l8.311-8.311A51.781,51.781,0,0,0,224,33.413V48H208V32.169A51.617,51.617,0,0,0,191.547,36.2l7.7,16.4-14.486,6.8L177.9,44.789A52.238,52.238,0,0,0,164.005,64ZM421.24,328.2,400,311.128v22.809a29.84,29.84,0,0,0,4.52.363C410.1,334.3,416.739,332.614,421.24,328.2ZM104,128V112H88A16.019,16.019,0,0,0,104,128ZM287.155,467.578a8,8,0,0,1-3.594,3.586l-1.69.84a17.8,17.8,0,0,0-8,8h25.7L336,421.706V405.968a72.606,72.606,0,0,1-23.716-47.538L288,352.827v5.233a73.454,73.454,0,0,0,21.657,52.283,8,8,0,0,1,1.5,9.235ZM140.944,192,120,150.111V112h88a16.019,16.019,0,0,1-16,16H176v16h16a31.852,31.852,0,0,0,20.782-7.7c.045.1.1.206.143.313l27.69,66.46a8.007,8.007,0,0,0,2.473,3.238l72,56a8,8,0,0,0,3.176,1.494l34.41,7.65A40.168,40.168,0,0,1,380.613,294.4,39.588,39.588,0,0,1,384,310.5V376a8,8,0,0,0,2.343,5.657l35.363,35.363L379.719,480h-25.85a17.807,17.807,0,0,1,8-8l1.69-.84a8,8,0,0,0,3.3-3.048l24-40a8,8,0,0,0-3.282-11.271l-28.22-14.11A56.733,56.733,0,0,1,328,352V312H312v29.944l-81.816-18.878a23.953,23.953,0,0,1-14.578-10.074l-6-8.992H240a8,8,0,0,0,6.4-3.2l24-32-12.8-9.6L236,288H168a8,8,0,0,0-8,8v24a8,8,0,0,0,2.343,5.657L168,331.313v24.871l-8.913-3.565A23.886,23.886,0,0,1,144,330.335V280a16.019,16.019,0,0,1,16-16h56V248H176V152H160v40ZM136,152h16V136H136ZM87.091,328.622,96,332.185V307.314l-5.657-5.657A8,8,0,0,1,88,296V272a8,8,0,0,1,8-8h36.305A32.012,32.012,0,0,1,160,248v-8H88a16.019,16.019,0,0,0-16,16v50.33A23.894,23.894,0,0,0,87.091,328.622Z"/>
    </g>

</svg>