<svg xmlns="http://www.w3.org/2000/svg" viewBox="-20 -50 580 540" x="0px" y="0px">
    <title>cancer  </title>
    <metadata>        <?xpacket begin="&#65279;" id="W5M0MpCehiHzreSzNTczkc9d"?>
        <x:xmpmeta xmlns:x="adobe:ns:meta/" x:xmptk="Adobe XMP Core 5.6-c145 79.162955, 2018/05/10-01:07:16        "/>
        <?xpacket end="w"?></metadata>
    <g>
        <path d="M79.194,250.056c1.969-1.9,4.709-2.006,7.321-2.021l25.828-.147a59.4,59.4,0,0,1,13.462.949c4.4,1,8.689,3.112,11.466,6.664q-3.033,4.152-5.8,8.491c-14.777.011-46.1.031-46.98-.038a10.687,10.687,0,0,1-2.938-.6,8.014,8.014,0,0,1-4.985-6.089A8.173,8.173,0,0,1,79.194,250.056Zm-18.671,62.76a7.837,7.837,0,0,0-.818.559L35.433,336.538q-.2.193-.419.373a8.568,8.568,0,0,0-2.962,7.532,48.749,48.749,0,0,1,13.744,4.32l21.365-20.389a23.815,23.815,0,0,1-6.638-15.558ZM196,480h12a16,16,0,0,0,0-32H160.221A36.052,36.052,0,0,0,196,480ZM80.657,304.828a2.1,2.1,0,0,0-.948.5A8.632,8.632,0,0,0,76.545,311a7.716,7.716,0,0,0,2.032,6.126c2.214,2.3,5.672,2.877,8.863,2.816,12.415-.239,24.828.121,37.235-.539q-21.445-7.236-42.915-14.4A2.36,2.36,0,0,0,80.657,304.828ZM48,192V144a7.994,7.994,0,0,1,.845-3.578l2.309-4.619c-.836.016-1.474.045-1.839.089C33.251,138.741,32,150.162,32,153.6v53.442C40.135,205.12,48,200.262,48,192ZM160,416v16h24V385.012A32.058,32.058,0,0,0,160,416Zm-11.51-80.21a8.126,8.126,0,0,0-7.759,9.939,7.979,7.979,0,0,0,7.759,6.061h12.462l-9.143-16ZM96,446.187c0,3.437,1.251,14.858,17.315,17.707.365.044,1,.072,1.839.089l-2.309-4.62a7.99,7.99,0,0,1-.845-3.577v-48c0-8.262-7.865-13.12-16-15.041Zm28.523-101.371a7.837,7.837,0,0,0-.818.559L99.433,368.538q-.2.193-.419.373a8.568,8.568,0,0,0-2.962,7.532,48.749,48.749,0,0,1,13.744,4.32l21.365-20.389a23.815,23.815,0,0,1-6.638-15.558ZM35.008,230.864q.22.181.427.38l24.27,23.171a7.675,7.675,0,0,0,.818.558,23.827,23.827,0,0,1,6.637-15.559L45.8,219.021a48.729,48.729,0,0,1-13.747,4.322A8.542,8.542,0,0,0,35.008,230.864Zm297.521-10.355a119.864,119.864,0,0,1,20.442,12.9,36.919,36.919,0,0,0,17.372-9.8l50.085-50.084-20.269-18.534Zm-34.786-188.5c-1.758.054-3.382.15-4.888.286L329.75,79.729l7.967-5.311,2.467-1.645-25.246-30.54C308.17,34.707,303.31,31.848,297.743,32.007ZM437.987,139.432c-1.654-7.974-8.108-14.364-13.231-18.32-1.676-1.294-3.329-2.423-4.846-3.382l-10.326,24.193,21.66,19.8C437.138,153.742,439.4,146.266,437.987,139.432ZM90.208,172.075,110.284,152,90.208,131.925A37.382,37.382,0,0,0,90.208,172.075ZM460.846,135.8l2.309,4.619A7.994,7.994,0,0,1,464,144v48c0,8.262,7.865,13.12,16,15.041V153.6c0-3.437-1.251-14.858-17.315-17.707C462.32,135.848,461.682,135.819,460.846,135.8ZM154.453,237.174a119.737,119.737,0,0,1,24.569-16.438L121.6,163.313,100.914,184l50.343,50.343A37.6,37.6,0,0,0,154.453,237.174ZM100.911,120l20.878,20.878L219.6,49.59A13.742,13.742,0,0,0,224,39.7a13.943,13.943,0,0,0-.372-3.47L174.8,78.074A8,8,0,0,1,169.6,80H140.911ZM341.953,90.823c-5.068,3.379-10.059,8.767-16.665,7.222-2.106-.493-54.382-17.012-65.063-20.353a13.981,13.981,0,0,0,.994,3.538,13.745,13.745,0,0,0,7.745,7.471L395.6,133.933,405.686,110.3,352.575,83.742ZM166.638,64l31.577-27.066A78.486,78.486,0,0,0,174.507,50.9L159.223,64ZM32,414.187c0,3.437,1.251,14.858,17.315,17.707.365.044,1,.072,1.839.089l-2.309-4.62A7.99,7.99,0,0,1,48,423.786v-48c0-8.262-7.865-13.12-16-15.041Zm379.476-46.742c-3.909-3.715-19.377-19.355-23.723-22.392-1.131,2.066-1.054,5.36-2.018,7.738a24.052,24.052,0,0,1-4.9,7.6l21.351,20.372a46.264,46.264,0,0,1,12.357-4.029,1.889,1.889,0,0,0,1.219-.537,1.56,1.56,0,0,0,.256-.874C416.2,372.191,413.747,369.6,411.476,367.445ZM288,464a16.019,16.019,0,0,0,16,16h12a36.052,36.052,0,0,0,35.779-32H304A16.019,16.019,0,0,0,288,464Zm82.75-123.594a7.966,7.966,0,0,0-7.24-4.616h-3.319l-9.143,16H363.51a7.986,7.986,0,0,0,7.24-11.384ZM328,385.012V432h24V416A32.058,32.058,0,0,0,328,385.012Zm102.443-65.775a8.255,8.255,0,0,0,4.307-10.831,8.031,8.031,0,0,0-3.539-3.71L387.3,319.333a24.278,24.278,0,0,0,4.7.457h35.51A8.041,8.041,0,0,0,430.443,319.237ZM416,446.187V392.745c-8.135,1.921-16,6.779-16,15.041v48a7.99,7.99,0,0,1-.845,3.577l-2.309,4.62c.836-.017,1.474-.045,1.839-.089C414.749,461.045,416,449.624,416,446.187Zm60.986-109.276q-.216-.18-.419-.373L452.3,313.375a7.932,7.932,0,0,0-.817-.559,23.84,23.84,0,0,1-6.637,15.559L466.2,348.763a48.749,48.749,0,0,1,13.744-4.32A8.568,8.568,0,0,0,476.986,336.911ZM230.629,384H200v16h8A24.042,24.042,0,0,0,230.629,384Zm204.64-129.939a8.092,8.092,0,0,0-4.851-5.5A7.84,7.84,0,0,0,427.51,248H392a23.847,23.847,0,0,0-16.973,7.027c-.134.134-.26.278-.391.416q3.115,4.126,5.88,8.557H427.51a7.952,7.952,0,0,0,7.223-4.58A8.366,8.366,0,0,0,435.269,254.061Zm30.932-35.04-21.362,20.4a23.834,23.834,0,0,1,6.639,15.557,7.766,7.766,0,0,0,.817-.558q8-7.639,16-15.282c4.26-4.057,12.393-9.026,11.65-15.79A48.729,48.729,0,0,1,466.2,219.021ZM464,375.786v48a7.99,7.99,0,0,1-.845,3.577l-2.309,4.62c.836-.017,1.474-.045,1.839-.089C478.749,429.045,480,417.624,480,414.187V360.745C471.865,362.666,464,367.524,464,375.786ZM102.492,295.064l36.659-15.711a8,8,0,0,0,3.795-3.384A103.368,103.368,0,0,1,232.5,224h47a103.368,103.368,0,0,1,89.552,51.969,8,8,0,0,0,3.8,3.384l36.659,15.711L357.47,312.411a8,8,0,0,0-4.416,3.62l-22.786,39.876A24.054,24.054,0,0,1,309.43,368H202.57a24.054,24.054,0,0,1-20.838-12.093l-22.786-39.876a8,8,0,0,0-4.416-3.62ZM320,272h16V256H320Zm-16,32h16V288H304Zm-24-32h16V256H280Zm-64,0h16V256H216Zm-15.324,63.324-7.536,12.56,13.72,8.232,7.536-12.56A48.785,48.785,0,0,1,248,320.7V352h16V320.7a48.785,48.785,0,0,1,33.6,22.857l7.536,12.56,13.72-8.232-7.536-12.56A64.9,64.9,0,0,0,264,304.51V240H248v64.51A64.9,64.9,0,0,0,200.676,335.324ZM208,288H192v16h16Zm-32-16h16V256H176ZM304,400h8V384H281.371A24.042,24.042,0,0,0,304,400ZM216,208V197.835a16,16,0,1,0-16,0V208Zm96,0V197.835a16,16,0,1,0-16,0V208Zm-64-16H232v16h16Zm32,0H264v16h16Z"/>
    </g>
</svg>