<svg xmlns="http://www.w3.org/2000/svg" viewBox="-20 -20 570 500" x="0px" y="0px">
    <title>capricorn icon  - Created by monkik from the Noun Project</title>
    <metadata>        <?xpacket begin="&#65279;" id="W5M0MpCehiHzreSzNTczkc9d"?>
        <x:xmpmeta xmlns:x="adobe:ns:meta/" x:xmptk="Adobe XMP Core 5.6-c145 79.162955, 2018/05/10-01:07:16        "/>
        <?xpacket end="w"?></metadata>
    <g>
        <path d="M124.877,71.155l7.155-14.31-9.9-4.951a64.437,64.437,0,0,1,10.783-9.088l4.385,8.772,14.311-7.156-4.393-8.785A63.684,63.684,0,0,1,168.455,32v8h16V32h16v8h16V32h16v8h16V32h16v8h16V32h14.628a24.04,24.04,0,0,1-22.628,16h-88a48.079,48.079,0,0,0-47.334,40H104.952a63.507,63.507,0,0,1,7.558-23.028ZM72.952,88h15.9a79.9,79.9,0,0,1,27.728-52.832A64.177,64.177,0,0,0,72.952,88ZM91.3,426.71,175.75,356.5l-16.269-16.787c-4.731-4.213-6.731-10.213-7.026-16.963V248.471A46.267,46.267,0,0,1,178.8,261.657,7.994,7.994,0,0,0,184.457,264a6.443,6.443,0,0,0,3.059-.609C192,261,192.455,248,192.455,248a48.071,48.071,0,0,0-40-47.321V168h-16v64h-17.88a16.011,16.011,0,0,1-13.987-8.225L72.455,165.927V104H183.442a32.056,32.056,0,0,1-30.987,24h-8v16h8a48.044,48.044,0,0,0,42.928-26.564,113.335,113.335,0,0,1,45.6,44.3c.043.075.086.15.132.224a113.48,113.48,0,0,1,6.658,13.858,130.125,130.125,0,0,0,62.679,68.123l20.919,10.46c-6.88,5.454-14.557,10.817-22.9,16.473-31.167,21.131-48.568,44.531-56.42,75.874A120.861,120.861,0,0,0,249.52,392h-35.4a47.648,47.648,0,0,0,2.332-14.647V352h-16v25.353a32.162,32.162,0,0,1-15.537,27.439L124.339,441.14A8,8,0,0,0,128.455,456h56a8,8,0,0,0,5.656-2.343L203.769,440h28.019a48.078,48.078,0,0,1-47.333,40H110.592A30.138,30.138,0,0,1,91.3,426.71ZM272.455,272h16V256h-16Zm-24-24h16V232h-16Zm0,48h16V280h-16Zm-32-104h16V176h-16Zm-96-28a12,12,0,1,0-12,12A12.014,12.014,0,0,0,120.455,164Zm72,4h16V152h-16Zm-136-48V104H33.826A24.04,24.04,0,0,0,56.455,120Zm9.9,316.752a46.021,46.021,0,0,1,14.7-22.334l7.7-6.418h-16.3a8,8,0,0,1-8-8V336a8,8,0,0,1,8-8H136.82c-.233-1.743-.365-32-.365-32h-80a24.027,24.027,0,0,0-24,24v68A52.154,52.154,0,0,0,66.359,436.752ZM400.909,160h21.084c29.761,0,54.4-24.473,58.007-56H458.916C429.155,104,404.517,128.473,400.909,160ZM320.572,379.386a48.1,48.1,0,0,0,44.5,44.5A47.593,47.593,0,0,0,401.2,411.1,48.171,48.171,0,0,0,416.455,376h-16a32.005,32.005,0,0,1-34.288,31.921,32.036,32.036,0,0,1-29.633-29.635c-1.223-17.745,12.242-29.541,26.5-42.03,3.666-3.211,7.456-6.531,10.936-9.931,13.99-13.669,27.816-28.391,37.695-44.949a103.938,103.938,0,1,1-144.1,69.264c6.825-27.244,22.208-47.759,49.878-66.518,30.689-20.806,54.846-39.407,63.423-73.192a86.559,86.559,0,0,0,2.07-32.564c-.01-.071-.133-1.017-.334-2.366H406c5.229,24.956,8.716,53.069.55,78.454-7.283,22.642-25.338,42.423-43.765,60.427-3.168,3.1-6.631,6.129-10.3,9.34C336.7,338.053,318.8,353.73,320.572,379.386ZM384.455,248h16V232h-16Zm-88,120V352h-16v16Zm16,48h-16v16h16Zm8,24v16h16V440Zm5.538-336H304.909c3.608,31.527,28.246,56,58.007,56H384C380.392,128.473,355.754,104,325.993,104ZM152.455,217.012v15.332a62.03,62.03,0,0,1,22.8,6.967A32.126,32.126,0,0,0,152.455,217.012Zm202.873,12.6a72.381,72.381,0,0,0,10.031-22.615c2.234-8.8,1.292-29.526,1.045-30.992h-3.488c-23.758,0-44.937-12.031-58.58-30.7a7.945,7.945,0,0,1-.294,1.24l-1.45,4.339A25.172,25.172,0,0,0,326.475,184h9.98a8,8,0,0,1,7.153,11.581,24.671,24.671,0,0,0-.6,21.231A25.234,25.234,0,0,0,355.328,229.607ZM204.218,104c3.6,1.97,7.107,4.1,10.492,6.4a130.676,130.676,0,0,1,40.06,43.229c.042.069.083.139.123.209a129.273,129.273,0,0,1,7.731,16.047A114.15,114.15,0,0,0,317.6,229.635l26.686,13.342c.249-.251.5-.5.749-.753a41.285,41.285,0,0,1-16.694-19.019,40.86,40.86,0,0,1-2.835-23.216A41.2,41.2,0,0,1,285.857,152a41.2,41.2,0,0,1-40-48Z"/>
    </g>
</svg>