<svg xmlns="http://www.w3.org/2000/svg" viewBox="0 -40 570 540" x="0px" y="0px">
    <title>libra icon - Created by monkik from the Noun Project</title>
    <metadata>        <?xpacket begin="&#65279;" id="W5M0MpCehiHzreSzNTczkc9d"?>
        <x:xmpmeta xmlns:x="adobe:ns:meta/" x:xmptk="Adobe XMP Core 5.6-c145 79.162955, 2018/05/10-01:07:16        "/>
        <?xpacket end="w"?></metadata>
    <g>
        <path d="M427.7,261.612l-14.041-9.84,15.99-36.21a8,8,0,0,0-1.266-8.464l-38.33-44.33-.01.008A7.991,7.991,0,0,0,384,160a63.02,63.02,0,0,1-49.29-24h56.63A24.465,24.465,0,0,1,411,146.238l35.519,50.738a23.963,23.963,0,0,1,1.85,24.418ZM288,478.36a1.671,1.671,0,0,0,1.64,1.64h41.111a72.422,72.422,0,0,1-13.967-15.058l-27.793,11.911A1.628,1.628,0,0,0,288,478.36ZM376.379,58.433C370.472,39.9,360.8,32,344.03,32H331.614c7.908,21.516,17.923,34.932,25.31,42.632.637.665,1.206,1.3,1.743,1.952A39.975,39.975,0,0,1,368,102.27V120h16.434a63.52,63.52,0,0,1-7-33.036C378.563,67.736,377.072,60.605,376.379,58.433Zm23.781,184.3,12.806-29-25.339-29.305-10.672,37.352c8.712,8.222,15.038,20.319,16.025,22.08A8.014,8.014,0,0,1,400.16,242.732Zm-80.79-100.5A82.139,82.139,0,0,0,373.6,175.4l-11.127,38.225c-1.419,4.876-2.816,10.233-.792,14.89,2.821,6.492,11.47,9.565,12.861,16.5-5.2-1.142-11.507-1.374-14.894,2.729-5.3,6.416,1.475,16.172-.454,24.266L347.915,235.3l-15.5,3.034A154.288,154.288,0,0,0,370.24,317.66l11.314-11.276a98.3,98.3,0,0,1-13.636-17.707c7-.4,14.98-.443,19.812,4.644a15.815,15.815,0,0,1,3.822,8.012,48.309,48.309,0,0,1,.7,8.955c.459,56.647-3.644,113.774,5.941,169.606-12.232,1.1-24.725,1-36.584-2.188s-23.1-9.7-30.375-19.594c-11.1-15.09-11.5-35.252-11.463-53.981q.2-97.549.4-195.1c.009-4.239-.016-8.638-1.813-12.478-2.177-4.651-6.619-7.788-9.686-11.907C297.377,169.482,310.445,154.38,319.37,142.236Zm62.287,308.107c-.228-.228-23.015-23.279-38.229-61.314l-14.856,5.942c16.421,41.053,40.743,65.658,41.771,66.686Zm-53.418-144.4c.675,2.7,16.828,66.441,42.1,91.717l11.314-11.314c-8.98-8.98-18.349-26.256-27.095-49.959-6.788-18.4-10.762-34.169-10.8-34.326ZM328,200a197.269,197.269,0,0,0,1.885,23.816l15.859-2.116A185.538,185.538,0,0,1,344,199.994Zm80,148.432v46.043l46.191,56.459a8,8,0,0,1-1.753,11.722l-19.36,12.91A2.472,2.472,0,0,0,432,477.58a2.423,2.423,0,0,0,2.42,2.42h18.913l24.048-18.036ZM350.378,93.608c-2.041-5.149-6.107-9.17-9.729-13.36-10.5-12.148-17.856-26.708-23.72-41.656-5.634,5.919-3.734,12.426-5.447,19.6-1.046,4.383-4.183,7.973-5.724,12.207a16.632,16.632,0,0,1,6.172,9.676A16.154,16.154,0,0,1,311.8,87.9c4.117,1.009,8.421-.067,12.658-.185s9.117,1.211,10.841,5.083a13.438,13.438,0,0,1,.764,5.546q-.041,10.827-.08,21.655l16.025,0C351.083,111.177,353.645,101.853,350.378,93.608Zm60.69,193.716a8.945,8.945,0,0,0,5.989-4.982c.05-.112,3.261-6.366,3.261-6.366l-14.2-9.953a7.938,7.938,0,0,1-8.194.632l-10.652-5.326-12.994-.492,1.058,11.842,8.714.216a8,8,0,0,1,4.649,1.633l14.741,11.228A8.939,8.939,0,0,0,411.068,287.324ZM182.81,32H168a8.009,8.009,0,0,0-8,8H144V64h16V41.754l25.94,6.485a8,8,0,0,1,5.445,4.684l38.4,92.168,60.142,13.365c.047-.145.083-.292.132-.437a40.017,40.017,0,0,1,5.953-11.372L304,136h-8a8.046,8.046,0,0,1-1.315-.109l-48-8a8,8,0,0,1-5.595-3.86l-51.37-88.06A8.027,8.027,0,0,0,182.81,32ZM36.132,288h71.736L72,204.309Zm160,0h71.736L232,204.309Zm74.5,16H193.371A24.042,24.042,0,0,0,216,320h32A24.042,24.042,0,0,0,270.629,304ZM56,320H88a24.042,24.042,0,0,0,22.629-16H33.371A24.042,24.042,0,0,0,56,320Zm88-192h16V112H144Zm16-48H144V96h16ZM129.264,191.682a24,24,0,0,0,45.472,0c3.383.69,6.748,1.516,10.08,2.515l13.372,4.011a130.336,130.336,0,0,0,67.671,1.927l-3.718-15.561a114.34,114.34,0,0,1-59.355-1.691l-13.372-4.011a130.992,130.992,0,0,0-15.036-3.544A24.062,24.062,0,0,0,160,161.384V144H144v17.384a24.064,24.064,0,0,0-14.378,13.943,130.787,130.787,0,0,0-15.036,3.545l-13.372,4.011a114.33,114.33,0,0,1-59.355,1.691l-3.718,15.561a130.355,130.355,0,0,0,67.671-1.927l13.372-4.011C122.516,193.2,125.881,192.372,129.264,191.682Z"/>
    </g>
</svg>