<svg xmlns="http://www.w3.org/2000/svg" viewBox="0 -10 540 510" x="0px" y="0px">
    <title>pisces icon - Created by monkik from the Noun Project</title>
    <metadata>        <?xpacket begin="&#65279;" id="W5M0MpCehiHzreSzNTczkc9d"?>
        <x:xmpmeta xmlns:x="adobe:ns:meta/" x:xmptk="Adobe XMP Core 5.6-c145 79.162955, 2018/05/10-01:07:16        "/>
        <?xpacket end="w"?></metadata>
    <g>
        <path d="M36,120a20,20,0,1,1,20-20A20.023,20.023,0,0,1,36,120ZM80,48H96V32H80ZM48,64H64V48H48ZM276,288a20,20,0,1,0,20,20A20.023,20.023,0,0,0,276,288ZM232,176H216v16h16Zm112,88v16h16V264ZM168,248V232H152v16ZM432,476a20,20,0,1,0-20,20A20.023,20.023,0,0,0,432,476Zm32-60h16V400H464Zm-16,16v16h16V432ZM192.176,328.088c23.084,13.17,47.261,23.978,71.833,34.057a20.218,20.218,0,0,0-5.73,14.753c.117,7.3,3.748,14.169,10.223,19.349,2.488,1.991,6.069,6.053,10.389,11.962l10.077,69.635c-3.717.337-8.315.734-13,1.1L267.6,412.666l-15.875,2,8.23,65.251c-1.517.053-2.844.081-3.959.081A224,224,0,0,1,32,256c0-39.4,11.722-79.54,32.313-114.348a195.977,195.977,0,0,0,2.381,35.2,164.211,164.211,0,0,0,28.4,69.309,215.333,215.333,0,0,0,28.8,32.879C142.2,296.266,164.535,312.312,192.176,328.088ZM112,312h16V296H112ZM45.555,222.435c4.653,39.552,17.581,71.5,40.684,100.545l12.522-9.96c-13.32-16.745-31.679-44.546-37.316-92.455ZM149.97,374.891c-.325-.106-28.525-9.42-48.2-26.4l27.651-10.844c6.49,8.247,19.8,23.94,30.855,29.11l6.777-14.494c-8.051-3.765-21.736-19.779-28.47-28.987a8,8,0,0,0-9.381-2.729l-44.625,17.5a8,8,0,0,0-3.185,12.617c21.712,25.647,61.939,38.891,63.641,39.441Zm65.363,40.276a24,24,0,1,0,24,24A24.028,24.028,0,0,0,215.333,415.167Zm-1.273-62.928-32,8a8,8,0,0,0-4.92,3.645l-24,40a8,8,0,0,0-.568,7.087l16,40,14.856-5.942L168.9,408.713l20.254-33.756,28.785-7.2Zm-6.727,86.928a8,8,0,1,0,8-8A8.009,8.009,0,0,0,207.333,439.167ZM186.71,277.038l15.781,38.5c5.706,3.214,11.689,6.441,17.888,9.643,1.126-15.58.552-38.594-6.905-66.288A66.2,66.2,0,0,1,186.71,277.038ZM92.682,448c3.545,0,16.435-2.183,19.343,0a240.526,240.526,0,0,1-22.434-19.094,331.122,331.122,0,0,1-32.907-10.693c5.038,9.926,6.03,18.667,7.1,29.616C73.4,448.244,83.057,448,92.682,448ZM138.749,67.854C129.97,72.777,116.83,80.53,111.44,85.137a218.611,218.611,0,0,0-29.124,30.306c-2.425,19.008-2.691,36.121-.791,52,36.6.916,77.613,24.24,97.77,37.266a102.779,102.779,0,0,0-2.7-21.369L139.21,171.28l4.913-15.226,24.191,7.8a44.747,44.747,0,0,0-6.9-8.053c-16.785-15.325-39.957-11.934-40.19-11.9a8,8,0,0,1-5.344-14.764c16.783-10.073,23.237-20.966,25.211-31.452l-16.173,12.619-9.842-12.616,25.685-20.04C140.225,74.364,139.525,71.091,138.749,67.854Zm-17.067,186.02a160.93,160.93,0,0,0-1.89-20.913L111.883,242Q116.428,248,121.682,253.874ZM280.69,369.482s-4.46,3.345-4.466,3.351c-4.188,3.141-.765,8.489,2.274,10.92,11,8.8,31.573,39.5,50.886,82.254l4.354-2.239C328.949,445.275,312.061,388.645,280.69,369.482ZM233.5,128.247c-11-8.8-31.573-39.5-50.886-82.254l-4.354,2.239c4.789,18.493,21.677,75.123,53.048,94.286l5.562-4.172a4.707,4.707,0,0,0,.851-3.015C237.672,132.864,236.212,130.415,233.5,128.247ZM412.8,96.033A222.347,222.347,0,0,1,480,256c0,39.395-11.722,79.54-32.313,114.348a195.977,195.977,0,0,0-2.381-35.195c-6.46-39.638-28.448-75.122-57.2-102.188-28.881-27.187-63.977-48.787-99.74-65.686-10.932-5.207-28.4-12.514-40.372-17.424a20.218,20.218,0,0,0,5.73-14.753c-.117-7.3-3.748-14.169-10.223-19.349-2.488-1.991-6.069-6.053-10.389-11.962L223.032,34.156c3.717-.337,8.315-.734,13-1.1L244.4,99.334l15.875-2-8.23-65.251C253.558,32.028,254.885,32,256,32A225.576,225.576,0,0,1,412.8,96.033Zm-116.132.8a24,24,0,1,0-24-24A24.028,24.028,0,0,0,296.667,96.833Zm38.193,51.283,24-40a8,8,0,0,0,.568-7.087l-16-40-14.856,5.942L343.1,103.287l-20.254,33.756-28.785,7.2,3.88,15.522,32-8A8,8,0,0,0,334.86,148.116ZM400,200H384v16h16Zm66.445,89.565c-4.653-39.552-17.581-71.5-40.684-100.545l-12.522,9.96c13.32,16.745,31.679,44.546,37.316,92.455ZM366.965,121.89l-4.935,15.219c.325.106,28.525,9.42,48.2,26.395l-27.651,10.844c-6.49-8.247-19.8-23.94-30.855-29.11l-6.777,14.494c8.051,3.765,21.736,19.779,28.47,28.987a8,8,0,0,0,9.381,2.729l44.625-17.5a8,8,0,0,0,3.185-12.617C408.894,135.684,368.667,122.44,366.965,121.89Zm-75.344,64.926c-1.126,15.58-.552,38.594,6.905,66.288a66.2,66.2,0,0,1,26.764-18.142l-15.781-38.5C303.8,193.245,297.82,190.018,291.621,186.816ZM399.975,64a240.526,240.526,0,0,1,22.434,19.094,330.132,330.132,0,0,1,32.91,10.7c-2.635-5.19-4.834-10.31-5.516-14.011A123.75,123.75,0,0,1,448.209,64ZM335.407,328.661,372.79,340.72l-4.913,15.226-24.191-7.8a44.747,44.747,0,0,0,6.9,8.053c16.785,15.325,39.959,11.933,40.19,11.9a8,8,0,0,1,5.344,14.764c-16.783,10.073-23.237,20.966-25.211,31.452l16.173-12.619,9.842,12.616-25.685,20.04c.539,3.288,1.239,6.561,2.015,9.8,8.779-4.923,21.919-12.676,27.309-17.283a218.611,218.611,0,0,0,29.124-30.306c2.425-19.008,2.691-36.121.791-52-36.6-.918-77.613-24.239-97.77-37.265A102.779,102.779,0,0,0,335.407,328.661ZM304.667,72.833a8,8,0,1,0-8,8A8.009,8.009,0,0,0,304.667,72.833Zm85.651,185.293a160.93,160.93,0,0,0,1.89,20.913L400.117,270Q395.574,264,390.318,258.126Z"/>
    </g>
</svg>