<svg xmlns="http://www.w3.org/2000/svg" viewBox="0 -20 550 500" x="0px" y="0px">
    <title>sagittarius icon - Created by monkik from the Noun Project</title>
    <metadata>        <?xpacket begin="&#65279;" id="W5M0MpCehiHzreSzNTczkc9d"?>
        <x:xmpmeta xmlns:x="adobe:ns:meta/" x:xmptk="Adobe XMP Core 5.6-c145 79.162955, 2018/05/10-01:07:16        "/>
        <?xpacket end="w"?></metadata>
    <g>
        <path d="M336,152.494V176h16V154.253l50.954,10.191c-.166.171-.328.346-.5.511a17.523,17.523,0,0,1-4.321,3.04,8.062,8.062,0,0,0-1.937,1.359L380.8,184H352v16h24v16H352v-8H336v8H312V200h24V184H307.314l-27.168-27.169L296,139.757v4.737a8,8,0,0,0,8,8ZM326.266,54.42,323.056,48H309.544l-6,16h13.143ZM392,201.874a24.151,24.151,0,0,0,7.63-13.7l-7.63,7.26ZM312,248h24V232H312Zm40,0h24V232H352Zm-56-46.126v-6.561l-7.715-7.715A24.132,24.132,0,0,0,296,201.874Zm48.8-73.42a7.94,7.94,0,0,1-4.374-.805l-14.311-7.155H312v16h32a8.026,8.026,0,0,1,1.569.155L422.32,152,440,140.213v-7.437l-18.054-12.037ZM328,75.313l-2.343,2.344A8,8,0,0,1,320,80h-8v24h16ZM344,32H328a8,8,0,0,1,7.155,4.422l5.172,10.345c5.819-.621,12.58.583,16.776,6.715a19.008,19.008,0,0,1,.789,20.785c-.411.722-.846,1.4-1.289,2.028l5.337,8.1a7.978,7.978,0,0,0,6.681,3.6h3.3A76.659,76.659,0,0,1,368,63.885V56A24.028,24.028,0,0,0,344,32Zm12.808,79.174-2.114-11.62a24.024,24.024,0,0,1-6.117-6.355L344,86.25V104a15.876,15.876,0,0,1-1.531,6.785l3.038,1.519ZM440,375.571l10.53-3.51A8,8,0,0,0,456,364.47V304a8.009,8.009,0,0,0-8-8H392v16h24a24.028,24.028,0,0,1,24,24v39.571ZM195.2,425.6A61.125,61.125,0,0,0,219.126,384H205.418l-1.89,4.729a98.887,98.887,0,0,1-25.51,36.567l-8.532,8.531L189.275,480h18.567a20.6,20.6,0,0,0-1.116-4.569,20.23,20.23,0,0,0-3.65-6.212,8.017,8.017,0,0,1-1.629-3.022l-9.139-32A8,8,0,0,1,195.2,425.6ZM136,152v24a19.618,19.618,0,0,0,9.859,17l2.436,1.391A41.224,41.224,0,0,1,144,176V153.851A24.059,24.059,0,0,1,137.371,144H136ZM99.208,350.8A32.2,32.2,0,0,1,129.86,328h.178a64.189,64.189,0,0,1,6.561-16H120.55a45.944,45.944,0,0,0-44,33.187L58.979,406.693a45.429,45.429,0,0,0,32.848-31.3ZM424,352V336a8.009,8.009,0,0,0-8-8H352V312h24V264H305.889l-62.311,31.155A7.994,7.994,0,0,1,240,296H192a47.97,47.97,0,0,0-48,48v56a8,8,0,0,1-3.2,6.4l-27.75,20.813L126.246,480h17.661a22.087,22.087,0,0,0-4.3-11.194,8.01,8.01,0,0,1-1.365-2.866l-6-24a8,8,0,0,1,3.93-8.963l15.4-8.4a82.64,82.64,0,0,0,37.1-41.788L192,374.461V336h16v32h78.35a47.741,47.741,0,0,0,27.521-8.673l4.733-3.313A40.051,40.051,0,0,1,296,320V304h16v16a24.028,24.028,0,0,0,24,24h64a8,8,0,0,1,8,8v32a8,8,0,0,1-4.422,7.155L392,396.944V412.9l26.529-8.843A7.989,7.989,0,0,0,424,396.468ZM206.431,167.845,167.208,160H160v16a25.193,25.193,0,0,0,9.491,19.756l11.984,9.574a49.253,49.253,0,0,1,14.39,18.751L247.94,168H208A8.026,8.026,0,0,1,206.431,167.845ZM253.824,120a59.732,59.732,0,0,1,16.787-6.074L198.168,41.483a49.115,49.115,0,0,1-16.689,25.183l-12,9.584A25.187,25.187,0,0,0,160,96v19.056L169.889,120Zm30.281,9.053c-1.064-.1-2.136-.163-3.215-.163a41.486,41.486,0,0,0-20.453,5.767A8,8,0,0,1,256,136H168a7.994,7.994,0,0,1-3.578-.845L150.111,128H144a8,8,0,0,1,8,8,8.009,8.009,0,0,0,8,8h8a8.026,8.026,0,0,1,1.569.155L208.792,152H262.8ZM144,96a41.237,41.237,0,0,1,4.294-18.386l-2.437,1.392A19.559,19.559,0,0,0,136,96v16h8ZM72,128l24,16v-8h24V120H96v-8Z"/>
    </g>
</svg>