<svg xmlns="http://www.w3.org/2000/svg" viewBox="10 0 520 479" x="0px" y="0px">
    <title>scorpio icon - Created by monkik from the Noun Project</title>
    <metadata>        <?xpacket begin="&#65279;" id="W5M0MpCehiHzreSzNTczkc9d"?>
        <x:xmpmeta xmlns:x="adobe:ns:meta/" x:xmptk="Adobe XMP Core 5.6-c145 79.162955, 2018/05/10-01:07:16        "/>
        <?xpacket end="w"?></metadata>
    <g>
        <path d="M293.809,171.372c-.286-.642-.6-1.266-.921-1.882A23.878,23.878,0,0,1,312,160h29.135a33.61,33.61,0,0,0,7.043,4.993,24.116,24.116,0,0,1-3.2,3.98A23.843,23.843,0,0,1,328,176H295.865ZM368,80c-32,0-32,18.064-32,24,0,25.4,13.421,48,24,48s24-22.6,24-48V72a39.809,39.809,0,0,0-9.009-25.263A41.716,41.716,0,0,1,376,56c0,3.052,0,6.1.007,8.711l0,5.225c0,3.114,0,5.364-2.351,7.717A8,8,0,0,1,368,80ZM136,56a41.716,41.716,0,0,1,1.009-9.263A39.809,39.809,0,0,0,128,72v32c0,25.4,13.421,48,24,48s24-22.6,24-48c0-5.936,0-24-32-24a8,8,0,0,1-5.661-2.347c-2.35-2.353-2.35-4.6-2.351-7.717l0-5.225C136,62.1,136,59.052,136,56ZM433.979,392c0,10.212-3.1,22.34-9.074,28.439l-9.036-4.195-6.738,14.512,8.573,3.98c-1.148,7.449-6.065,16.252-13.4,23.587C394.225,468.4,382.931,472.69,375.779,471.9l-1.339-10.878-15.88,1.956,1.385,11.255C353.784,477.884,345.168,480,336,480c-8.329,0-16.376-1.8-22.427-4.925l.774-11.269-15.962-1.1-.756,11c-8.1,1.942-21.239-4.711-29.933-13.4-9.261-9.262-13.3-19.163-13.626-26.014l7.572-3.545-6.784-14.49-6.689,3.131C243.757,414.127,240,404.553,240,392c0-11.954,3.586-22.948,9.359-28.692a8,8,0,0,0-2.688-13.106A25.247,25.247,0,0,1,232,334.7l-20.026-60.077a77.45,77.45,0,0,1,2.7-55.945L224,197.7V200h16V184h-9.912l2.724-6.13A16.634,16.634,0,0,1,248,168v48h16V168a16.634,16.634,0,0,1,15.188,9.87l2.724,6.13H272v16h16v-2.3l9.325,20.981a77.45,77.45,0,0,1,2.7,55.945L280,334.7a25.245,25.245,0,0,1-14.671,15.5,8,8,0,0,0-2.688,13.106C268.414,369.052,272,380.046,272,392c0,8.26-1.728,16.182-4.865,22.306a8,8,0,0,0,4.534,11.217,50.489,50.489,0,0,1,18.655,12.154,54.4,54.4,0,0,1,9.847,13.288,8,8,0,0,0,11.323,3.139c6.266-3.879,15.2-6.1,24.506-6.1,8.977,0,17.693,2.094,23.915,5.745a8,8,0,0,0,11.277-3.472A53.426,53.426,0,0,1,381.676,435.7c5.9-5.9,12.778-10.294,19.382-12.384a8,8,0,0,0,4.9-10.86A51.086,51.086,0,0,1,401.979,392c0-18.314,8.448-32,16-32S433.979,373.686,433.979,392ZM224,248h64V232H224Zm64,32V264H224v16Zm-16,32V296H240v16Zm145.142,31.86c4.313-.107,7.842-1.435,9.939-3.741h0c10.742-11.816,4.124-34.508-5.41-43.456-14.956-14.034-26.327-9.987-38.365-5.7-2.255.8-4.386,1.561-6.558,2.2a7.963,7.963,0,0,1-2.269.329c-9.457,0-16.93-3.946-22.668-9.131v.692c0,17.119,20.178,19.483,21.037,19.576a8,8,0,0,1,7.1,7.105c.009.071,1.413,11.321,9.33,19.2C397.629,339.256,408.016,344.06,417.142,343.86ZM184,176h32.135l2.056-4.628c.286-.642.6-1.266.921-1.882A23.878,23.878,0,0,0,200,160H170.9a33.843,33.843,0,0,1-7.072,5,24.09,24.09,0,0,0,3.2,3.974A23.843,23.843,0,0,0,184,176Zm41.99,169.343-8-8a8,8,0,0,0-11.863.609L188.2,360H152a8,8,0,0,0-5.657,2.343l-16,16A8,8,0,0,0,128,384v56a8,8,0,0,0,1.344,4.438l16,24a8,8,0,0,0,14.245-6.968L152,438.7V387.313L155.313,384H200a8,8,0,0,0,6.207-2.952l20.333-25A8,8,0,0,0,225.99,345.343ZM80,344a8,8,0,0,0,7.585-10.531L80.966,313.6,107.845,280h1.488L139.2,302.4a8,8,0,0,0,9.237.256l48-32A8,8,0,0,0,200,264v-8a8,8,0,0,0-12.438-6.656l-43.29,28.86L116.8,257.6A8,8,0,0,0,112,256h-8a8,8,0,0,0-6.146,2.879l-40,48a8,8,0,0,0-.51,9.559l16,24A8,8,0,0,0,80,344Zm0-184v48a8,8,0,0,0,2.878,6.146l48,40a8,8,0,0,0,9.238.714l38.1-22.86H192a8,8,0,0,0,7.034-4.189l4.334-8A8,8,0,0,0,196.333,208H176a8.009,8.009,0,0,0-4.116,1.14l-35.23,21.138L104,204.155V161.889l7.155-14.311a8,8,0,0,0-12.812-9.235l-16,16A8,8,0,0,0,80,160ZM192,296a8,8,0,0,0-5.657,2.343L164.687,320H112a8,8,0,0,0-7.353,4.849l-24,56a8,8,0,0,0,.2,6.729l16,32a8,8,0,0,0,14.916-5.518l-7.282-29.129L124.944,344H168a8,8,0,0,0,5.657-2.343l21.222-21.222,9.1,1.167a8,8,0,0,0,8.124-11.61l-5-9.667A8,8,0,0,0,200,296ZM363.082,432.733A49.161,49.161,0,0,1,384,414V384a8,8,0,0,0-2.343-5.657l-16-16A8,8,0,0,0,360,360H323.805l-17.844-21.94a8.151,8.151,0,0,0-3.251-2.471,8.04,8.04,0,0,0-8.7,1.754l-8,8a8,8,0,0,0-.55,10.705l20.333,25A8,8,0,0,0,312,384h44.687L360,387.312V437.75Zm50.575-294.391a8,8,0,0,0-12.812,9.235L408,161.888v42.266l-32.654,26.123-35.23-21.138A8.009,8.009,0,0,0,336,208H315.667a8,8,0,0,0-7.035,11.811l4.334,8A8,8,0,0,0,320,232h13.784l38.1,22.86a8,8,0,0,0,9.238-.714l48-40A8,8,0,0,0,432,208V160a8,8,0,0,0-2.343-5.657ZM341.58,288a28,28,0,0,1,8.372-18.28l2.048-2-27.373-18.249A8.236,8.236,0,0,0,318,248.25,8.009,8.009,0,0,0,312,256v8a8,8,0,0,0,3.562,6.656Zm-42.038,28.572a8.005,8.005,0,0,0,8.476,5.029l9.1-1.167,21.222,21.222A8,8,0,0,0,344,344H379.75l-2.6-2.389A42.578,42.578,0,0,1,364.5,320H347.313l-21.656-21.657A8,8,0,0,0,320,296h-8a8,8,0,0,0-7.106,4.325l-4.9,9.468A8.227,8.227,0,0,0,299.542,316.572Z"/>
    </g>
</svg>