<svg xmlns="http://www.w3.org/2000/svg" viewBox="0 0 530 440" x="0px" y="0px">
    <title>taurus icon - Created by monkik from the Noun Project</title>
    <metadata>        <?xpacket begin="&#65279;" id="W5M0MpCehiHzreSzNTczkc9d"?>
        <x:xmpmeta xmlns:x="adobe:ns:meta/" x:xmptk="Adobe XMP Core 5.6-c145 79.162955, 2018/05/10-01:07:16        "/>
        <?xpacket end="w"?></metadata>
    <g>
        <path d="M80,352H96v24a63.153,63.153,0,0,1-27.347-6.609,57.588,57.588,0,0,1-13.371-9.259C42.286,348.1,32,327.664,32,309.849a57.467,57.467,0,0,1,11.511-34.53l22.035-29.381,13.3,39.9-20.5,20.5a8,8,0,0,0-1.5,9.235l16,32A8,8,0,0,0,80,352Zm251.165-48H312.31a74.808,74.808,0,0,0,35.805,57.14,8,8,0,0,1,1.257,12.789l-45.26,41.009q-.183.165-.375.319A41.694,41.694,0,0,0,288.76,440h34.959l13.625-20.438a7.954,7.954,0,0,1,1.45-1.636L392,372.32V358.5A123.669,123.669,0,0,1,331.165,304ZM56,216h8V200H60a20.023,20.023,0,0,1-20-20,4,4,0,0,0-1.577-3.181A35.422,35.422,0,0,1,40,187.313V200A16.019,16.019,0,0,0,56,216Zm398.979,34.86c.367.576.733,1.166,1.1,1.782a82.927,82.927,0,0,1,11.377,34.25l1.63,16.312c.2,2.013.514,4.14.926,6.335,1.142,1.618,2.387,3.246,3.725,4.857L480,321.9V301.61A100.859,100.859,0,0,0,449.593,229.1,105.786,105.786,0,0,1,454.979,250.86ZM480,346.9v49.791l-21.657,21.656a8.052,8.052,0,0,0-1,1.219L443.719,440H409.062a30.753,30.753,0,0,1,1.27-3.722,30.427,30.427,0,0,1,6.635-9.93l36.69-36.691A8,8,0,0,0,456,384V360a8,8,0,0,0-8-8h-8.45a107.32,107.32,0,0,1-36.818-6.488c-24.139-8.788-49.464-28.579-59.462-52.873-8.282-20.123-10.276-44.033-10.295-44.273l-15.951,1.264A194.216,194.216,0,0,0,324.617,288H243.853A61.779,61.779,0,0,0,256,251.155V248H240v3.155a45.807,45.807,0,0,1-20.438,38.189,8,8,0,0,0-3.323,4.716l-8,32a8,8,0,0,0,2.1,7.6l32,32a8,8,0,0,0,11.314,0l9.478-9.477,13.39,17.854-2.909,1.94a47.787,47.787,0,0,1-60.3-5.971L198,354.683a47.476,47.476,0,0,1-14-33.791V264H168v16.984l-16-6.4v-7.271l13.657-13.656A8,8,0,0,0,168,248V232h8a32.036,32.036,0,0,0,32-32V187.313a19.185,19.185,0,0,1,5.657-13.656A8,8,0,0,0,208,160H196a20.023,20.023,0,0,0-20,20,4,4,0,0,1-4,4H152a24,24,0,0,0,0,48v12.687l-13.657,13.656A8,8,0,0,0,136,264v32a8.009,8.009,0,0,1-8,8H101.767L80,238.7V194.666L145.521,107.3A88.677,88.677,0,0,1,216.13,72a90.469,90.469,0,0,1,62.4,25.848l58.86,58.859c13.014,13.013,30.557,18.613,47.171,25.532,27.31,11.373,48.936,37.861,54.014,67.211,4.224,24.415,2.986,46.1,17.467,67.583C463.159,327.584,471.894,337.169,480,346.9ZM227.6,212.422l-14.333,7.11c.061.127,6.061,12.813.022,24.89l14.311,7.156C237.277,232.223,228,213.222,227.6,212.422ZM296,248H280v16h16Zm0-16c0-43.5-33.763-69.322-35.2-70.4l-9.6,12.8c.288.216,28.8,22.012,28.8,57.6Zm32,0c0-51.688-26.437-69.906-27.562-70.656l-8.876,13.312c.2.137,20.438,14.815,20.438,57.344Zm47.155,44.422A72.437,72.437,0,0,1,368,247.979L352,248a87.7,87.7,0,0,0,8.845,35.578ZM192,200V187.313a35.422,35.422,0,0,1,1.577-10.494A4,4,0,0,0,192,180a20.023,20.023,0,0,1-20,20H152a8,8,0,0,0,0,16h24A16.019,16.019,0,0,0,192,200Z"/>
    </g>
</svg>