<svg xmlns="http://www.w3.org/2000/svg" viewBox="40 0 500 479" x="0px" y="0px">
    <title>virgo icon - Created by monkik from the Noun Project</title>
    <metadata>        <?xpacket begin="&#65279;" id="W5M0MpCehiHzreSzNTczkc9d"?>
        <x:xmpmeta xmlns:x="adobe:ns:meta/" x:xmptk="Adobe XMP Core 5.6-c145 79.162955, 2018/05/10-01:07:16        "/>
        <?xpacket end="w"?></metadata>
    <g>
        <path d="M101.175,77.031A23.179,23.179,0,0,1,92.1,72.088a22.766,22.766,0,0,1,14.942-.85,23.177,23.177,0,0,1,9.072,4.943A22.775,22.775,0,0,1,101.175,77.031ZM92.918,33.2a23.754,23.754,0,0,0,17.1,17.467A23.74,23.74,0,0,0,92.918,33.2Zm21.925,90.519a23.342,23.342,0,0,0,12.608,5.608,8,8,0,0,1,2.843-1.176l7.177-1.435a23.185,23.185,0,0,0-7.717-3.841A22.742,22.742,0,0,0,114.843,123.723Zm13.008-22.839a23.039,23.039,0,0,0-9.515-3.8,22.8,22.8,0,0,0-14.812,2.652,23.025,23.025,0,0,0,9.515,3.8A22.784,22.784,0,0,0,127.851,100.884Zm63.727,50.5-10.148,26.4c1.438,4.02,2.868,8.095,4.266,12.193l7.6,13.246,15.274-38.185A8,8,0,0,1,216,160h1.221c.186-.694.384-1.385.612-2.068a35.429,35.429,0,0,1,5.295-10.1L232,136H213.98A24.137,24.137,0,0,0,191.578,151.38ZM176.28,250.4a28.329,28.329,0,0,1-32.372-21.916l-18.215-83.258A39.5,39.5,0,0,1,112,141.016v194.6a81.925,81.925,0,0,0,16-3.179V280h16v45.628a82.422,82.422,0,0,0,16-11.665V264h16v29.5a82.363,82.363,0,0,0,5.588-12.549l7.839-22.391c-1.024-3.988-2.067-7.956-3.131-11.878A28.326,28.326,0,0,1,176.28,250.4ZM139.155,42.031a24.341,24.341,0,0,0-5.569,23.857A24.34,24.34,0,0,0,139.155,42.031ZM218.6,64.919l-6.434-9.295A54.856,54.856,0,0,0,167.08,32h-.25a55.2,55.2,0,0,0-13.688,1.735,40.354,40.354,0,0,1,3.024,16.823l2.539-1.218a8,8,0,0,1,10.717,3.843,40.13,40.13,0,0,1,3.364,22.37,7.951,7.951,0,0,1,7.264,4.539,40.424,40.424,0,0,1-3.84,41.2,7.964,7.964,0,0,1,3.414,4.772l2.46,9.841a40.272,40.272,0,0,1,31.9-15.9H248V107.388L245.656,104H232a8,8,0,0,1-8-8V83.313l-5.657-5.656a8,8,0,0,1-1.5-9.235ZM304,144V63.27A31.3,31.3,0,0,0,272.73,32H267l18.607,18.3A8,8,0,0,1,288,56V166.629A24.042,24.042,0,0,0,304,144ZM245.847,37.867A19.89,19.89,0,0,0,240,52c0,7.13-3.148,12.188-6.266,18.423l3.923,3.923A8,8,0,0,1,240,80v8h16a8,8,0,0,1,8,8v24h8V59.354L248.159,35.911A20.54,20.54,0,0,0,245.847,37.867Zm-88.232,79.517a24.17,24.17,0,0,0,10.272-22.216A24.165,24.165,0,0,0,157.615,117.384ZM146.572,90.218a24.157,24.157,0,0,0,10.519-22.1A24.152,24.152,0,0,0,146.572,90.218Zm12.967,134.847a12.363,12.363,0,0,0,14.111,9.554,12.364,12.364,0,0,0,8.692-18.351l-25.417-44.286a8,8,0,0,1,3.36-11.137l10.261-5.13-4.594-18.374-17.226,3.445a38.78,38.78,0,0,1-6.981,2.951ZM400,104v-1.376a24.015,24.015,0,0,1-8-4.755,24.015,24.015,0,0,1-8,4.755V104a8,8,0,0,0,16,0ZM359.025,273.728c-.02-.112-.039-.225-.055-.337-3.011-21.085-6.594-41.829-7.682-63.127L349.014,165.8c-.167-3.281.08-6.917-.519-10.155A23.937,23.937,0,0,0,324.89,136H320v8a39.741,39.741,0,0,1-5.055,19.433q2.583,1.595,5.055,3.343c9.938,7.035,12,29.224,15.892,55.91.008.06.019.122.028.182l7.969,55.781L350.559,312h21.625c-4.262-10.654-8.672-20.277-11.525-31.024C360.034,278.621,359.483,276.212,359.025,273.728ZM328,416a128.9,128.9,0,0,0,17.166,64H248V264.98a533.273,533.273,0,0,1,3.616-66.381c.761-6.506-6.192-9.592-10.534-12.819-.114-.085-.229-.166-.347-.244a19.894,19.894,0,0,1-7.722-22.545,19.522,19.522,0,0,1,2.918-5.561l13.928-18.576L272,153.612V176a8,8,0,0,0,8,8,39.787,39.787,0,0,0,24.31-8.266q2.939,1.688,5.732,3.62l-13.47,33.675a8,8,0,0,0,2.43,9.217c19.783,15.832,29,40.291,29,76.974ZM256.481,230.734c.114.311,2.827,7.74,8.214,19.8l14.61-6.523c-5.131-11.493-7.762-18.681-7.787-18.752Zm-2.351,70.7c.115.629,2.911,15.688,11.225,37.422l14.944-5.716c-7.74-20.235-10.4-34.443-10.43-34.584Zm55.527,156.907c-26.168-26.167-36.9-60.347-37.009-60.689l-15.3,4.684c.472,1.548,11.917,38.242,40.993,67.319Zm8.646-57.27a258.57,258.57,0,0,1-31.507-52.38l-14.568,6.614a274.608,274.608,0,0,0,33.469,55.62Zm.353-85.511a488.585,488.585,0,0,1-31.627-55.1l-14.355,7.066a504.618,504.618,0,0,0,32.67,56.9ZM442.213,62.306A55.159,55.159,0,0,1,448,86.83V335.618a81.925,81.925,0,0,1-16-3.179V280H416v45.628a82.452,82.452,0,0,1-16-11.665V264H384v29.5a82.467,82.467,0,0,1-5.589-12.553l-3.715-10.61-6.725-47.107-3.522-68.9a8.181,8.181,0,0,0-.1-.911A39.894,39.894,0,0,0,324.89,120H320V95.829l27.836-40.2A54.86,54.86,0,0,1,392.92,32h.25A54.552,54.552,0,0,1,442.213,62.306ZM392,128a24.028,24.028,0,0,0,24-24v-1.376A24.039,24.039,0,0,0,432,80V72H416v8a8,8,0,0,1-16,0V72H384v8a8,8,0,0,1-16,0V72H352v8a24.039,24.039,0,0,0,16,22.624V104A24.028,24.028,0,0,0,392,128Zm52.784,92.006-13.849-8.012A8,8,0,0,1,416,208v-1.376A24.039,24.039,0,0,0,432,184H416a8,8,0,0,1-16,0H384a24.039,24.039,0,0,0,16,22.624V208a24,24,0,0,0,44.784,12.006ZM208.844,477.267A2.738,2.738,0,0,0,211.578,480H232V464l-21.646,10.822A2.721,2.721,0,0,0,208.844,477.267Z"/>
    </g>
</svg>