<?xml version="1.0" encoding="utf-8"?>
<!-- Generator: Adobe Illustrator 24.0.1, SVG Export Plug-In . SVG Version: 6.00 Build 0)  -->
<svg version="1.1" id="Layer_1" xmlns="http://www.w3.org/2000/svg" xmlns:xlink="http://www.w3.org/1999/xlink" x="0px" y="0px"
	 viewBox="0 0 28 28" style="enable-background:new 0 0 28 28;" xml:space="preserve">
<style type="text/css">
	.st0{fill:#843B8C;}
</style>
<title>user_2</title>
<g>
	<path class="st0" d="M7,7c0-3.9,3.1-7,7-7s7,3.1,7,7s-3.1,7-7,7S7,10.9,7,7z M27.9,26.7L25.1,19c-0.9-2.4-3.1-4-5.6-4h-11
		c-2.5,0-4.8,1.6-5.6,4l-2.8,7.7c-0.2,0.5,0.1,1.1,0.6,1.3C0.8,28,0.9,28,1,28h26c0.6,0,1-0.4,1-1C28,26.9,28,26.8,27.9,26.7z"/>
</g>
</svg>
