<?xml version="1.0" encoding="utf-8"?>
<!-- Generator: Adobe Illustrator 24.0.1, SVG Export Plug-In . SVG Version: 6.00 Build 0)  -->
<svg version="1.1" id="Layer_1" xmlns="http://www.w3.org/2000/svg" xmlns:xlink="http://www.w3.org/1999/xlink" x="0px" y="0px"
	 viewBox="0 0 88 91.5" style="enable-background:new 0 0 88 91.5;" xml:space="preserve">
<style type="text/css">
	.st0{fill:#843B8C;}
</style>
<title>09</title>
<path class="st0" d="M12,91.5h64c6.6,0,12-5.4,12-12v-58c0-6.6-5.4-12-12-12h-8V4c0-2.2-1.8-4-4-4s-4,1.8-4,4v5.5H28V4
	c0-2.2-1.8-4-4-4s-4,1.8-4,4v5.5h-8c-6.6,0-12,5.4-12,12v58C0,86.1,5.4,91.5,12,91.5z M76,83.5H12c-2.2,0-4-1.8-4-4v-33h72v33
	C80,81.7,78.2,83.5,76,83.5z M12,17.5h8V22c0,2.2,1.8,4,4,4s4-1.8,4-4v-4.5h32V22c0,2.2,1.8,4,4,4s4-1.8,4-4v-4.5h8c2.2,0,4,1.8,4,4
	v17H8v-17C8,19.3,9.8,17.5,12,17.5z"/>
</svg>
