<svg xmlns="http://www.w3.org/2000/svg" viewBox="0 0 46 46">
    <title>Cancer by Mooms from the Noun Project</title>
    <path d="M39.2,31.8a8.4,8.4,0,0,0-16.8,0A8.29,8.29,0,0,0,29.1,40a20.84,20.84,0,0,1-6.6,1A20.2,20.2,0,0,1,8.4,35.8,1,1,0,0,0,7,37.2,22.14,22.14,0,0,0,22.5,43c10.7,0,15-5.9,15.6-7.1A7.44,7.44,0,0,0,39.2,31.8Zm-14.7,0a6.4,6.4,0,1,1,6.4,6.4A6.44,6.44,0,0,1,24.5,31.8ZM6.8,14.2a8.4,8.4,0,0,0,16.8,0A8.29,8.29,0,0,0,16.9,6a20.84,20.84,0,0,1,6.6-1,20.2,20.2,0,0,1,14.1,5.2A1,1,0,0,0,39,8.8,22.57,22.57,0,0,0,23.4,3C12.7,3,8.4,8.9,7.8,10.1A8.3,8.3,0,0,0,6.8,14.2Zm14.7,0a6.4,6.4,0,1,1-6.4-6.4A6.44,6.44,0,0,1,21.5,14.2Z"/>
</svg>