<svg xmlns="http://www.w3.org/2000/svg" viewBox="0 0 46 46">
    <title>Capricorn by Mooms from the Noun Project</title>
    <path d="M33.8,26.4a8.14,8.14,0,0,0-6.2,2.9V11.2A8.24,8.24,0,0,0,19.4,3a8.13,8.13,0,0,0-7.2,4.3A8.13,8.13,0,0,0,5,3,.94.94,0,0,0,4,4,.94.94,0,0,0,5,5a6.23,6.23,0,0,1,6.2,6.2V35.8a1,1,0,0,0,2,0V11.2a6.2,6.2,0,0,1,12.4,0V32l-7,9.4a1.08,1.08,0,0,0,.2,1.4,1.42,1.42,0,0,0,.6.2.91.91,0,0,0,.8-.4l5.4-7.3a8.21,8.21,0,1,0,8.2-8.9Zm0,14.4a6.23,6.23,0,0,1-6.2-6.2v-2L28.8,31a6.25,6.25,0,0,1,5-2.6A6.11,6.11,0,0,1,40,34.6,6.23,6.23,0,0,1,33.8,40.8Z"/>
</svg>