<svg xmlns="http://www.w3.org/2000/svg" viewBox="0 0 46 46">
    <title>Scorpio by Mooms from the Noun Project</title>
    <path d="M40.59,37.4l-3-4A1,1,0,0,0,36,34.6l1.8,2.4H35a3.8,3.8,0,0,1-3.8-3.8V8.9a5.66,5.66,0,0,0-5.8-5.7,5.78,5.78,0,0,0-4.8,2.5A5.93,5.93,0,0,0,11,5.6,5.63,5.63,0,0,0,6.19,3a.94.94,0,0,0-1,1,.94.94,0,0,0,1,1A3.8,3.8,0,0,1,10,8.8V31a.94.94,0,0,0,1,1,.94.94,0,0,0,1-1V8.9a3.71,3.71,0,0,1,3.8-3.7,3.71,3.71,0,0,1,3.8,3.7V31a1,1,0,0,0,2,0V8.9a3.8,3.8,0,0,1,7.6,0V33.2A5.68,5.68,0,0,0,35,39h2.8L36,41.4a1.08,1.08,0,0,0,.2,1.4,1.42,1.42,0,0,0,.6.2.91.91,0,0,0,.8-.4l3-4A.91.91,0,0,0,40.59,37.4Z"/>
</svg>