<svg xmlns="http://www.w3.org/2000/svg" viewBox="0 0 46 46">
    <title>Virgo by Mooms from the Noun Project</title>
    <path d="M39.75,36a.94.94,0,0,0-1,1,3.8,3.8,0,1,1-7.6,0v-5.8L39.45,20h0a5.94,5.94,0,0,0,1.3-3.7,5.68,5.68,0,0,0-5.8-5.8,5.56,5.56,0,0,0-3.8,1.4V8.65a5.6,5.6,0,0,0-5.8-5.4,5.78,5.78,0,0,0-4.8,2.5,5.86,5.86,0,0,0-9.6,0,5.6,5.6,0,0,0-4.7-2.5.94.94,0,0,0-1,1,.94.94,0,0,0,1,1A3.71,3.71,0,0,1,10,9.05v22.2a.94.94,0,0,0,1,1,.94.94,0,0,0,1-1V9h0a3.71,3.71,0,0,1,3.8-3.7A3.71,3.71,0,0,1,19.55,9v22.2a1,1,0,0,0,2,0V9a3.8,3.8,0,0,1,7.6,0v21.6l-7.5,10.1a1.08,1.08,0,0,0,.2,1.4,1.42,1.42,0,0,0,.6.2.91.91,0,0,0,.8-.4l5.9-8V37a5.68,5.68,0,0,0,5.8,5.8,5.8,5.8,0,0,0,5.8-5.8A.94.94,0,0,0,39.75,36Zm-8.6-19.7a3.8,3.8,0,1,1,7.6,0,3.92,3.92,0,0,1-.9,2.4c-.6.8-6.7,9.1-6.7,9.1Z"/>
</svg>